<svg width="425" height="112" viewBox="0 0 425 112" fill="none" xmlns="http://www.w3.org/2000/svg"><path fill-rule="evenodd" clip-rule="evenodd" d="M7.571 26.095c-.68.2-1.05.967-1.187 2.466-.049.533-.152 1.173-.23 1.423-.078.25-.183.91-.233 1.467-.05.557-.134 1.157-.186 1.333a9.528 9.528 0 00-.192 1.088 16.37 16.37 0 01-.28 1.513c-.1.41-.184.931-.185 1.158a6.339 6.339 0 01-.145 1.054c-.078.353-.182.993-.23 1.422-.095.835-.34 2.219-.71 3.988-.125.605-.227 1.285-.226 1.512.003.456-.269 1.996-.616 3.492-.133.573-.226 1.26-.226 1.678 0 .39-.08 1.108-.18 1.597-.1.489-.207 1.12-.24 1.404-.032.283-.12.737-.195 1.008-.075.271-.176.886-.225 1.365a12.87 12.87 0 01-.28 1.596c-.105.399-.191.956-.192 1.238 0 .281-.085.9-.187 1.374-.102.474-.186.99-.185 1.146 0 .156-.069.638-.154 1.07-.182.933-.098 1.222.434 1.483.31.153 1.859.16 29.727.138 28.348-.022 29.418-.03 29.914-.193.283-.094 1.19-.493 2.013-.886 1.778-.85 2.985-1.692 4.22-2.943 1.042-1.055 1.27-1.38 2.147-3.057.704-1.349 1.063-2.335 1.503-4.122.229-.932.244-1.12.214-2.705l-.032-1.703-.496-1.007c-.464-.94-.566-1.075-1.545-2.023-.984-.953-1.121-1.052-2.219-1.585-.891-.433-1.483-.646-2.481-.895-1.267-.316-1.393-.33-3.745-.405-1.658-.053-2.614-.123-2.996-.22-.495-.125-2.125-.142-13.576-.14-7.158 0-13.418.037-13.91.08-1.323.116-1.699.335-3.552 2.072-.386.363-1.018.902-1.405 1.198-.386.297-1.08.885-1.544 1.307a26.224 26.224 0 01-1.56 1.305c-.773.58-1.14.969-1.05 1.112.032.05.21.159.397.242.31.137 1.586.155 14.15.197l13.81.045.445.215c.916.442 1.253 1.181 1.172 2.572-.057.98-.3 1.494-1.106 2.337-.455.477-.706.652-1.287.898l-.722.304H20.073l-.264-.192c-.437-.317-.535-.769-.355-1.638.084-.405.21-1.067.28-1.47.069-.403.213-1.123.32-1.598.106-.476.193-.894.193-.93 0-.035.148-.276.33-.534l.33-.47-.203-.653c-.17-.548-.194-.787-.146-1.489.031-.46.12-1.062.196-1.34.077-.277.204-.896.283-1.375.079-.479.206-1.139.283-1.467.077-.327.14-.793.142-1.035a6.89 6.89 0 01.14-1.1c.243-1.156.521-2.739.654-3.724.145-1.069.3-1.364.808-1.539.243-.083 5.127-.11 20.543-.115 13.766-.004 20.336-.036 20.576-.101.284-.078.957-.686 3.475-3.147 1.718-1.678 3.318-3.206 3.555-3.397.87-.698 1.04-1.338.435-1.633-.31-.152-2.028-.16-32.067-.153-17.49.004-31.861.043-32.01.087zm76.061-.01a3.35 3.35 0 00-.515.22c-.361.19-3.818 3.524-4.77 4.6a54.782 54.782 0 01-1.559 1.67c-1.042 1.062-1.158 1.434-.543 1.744.176.088 4.19.113 18.54.114 11.503.001 18.494.035 18.797.09 1.441.269 3.081 1.61 3.757 3.074.139.303.39 1.078.556 1.722.302 1.168.303 1.178.263 3.026-.037 1.686-.068 1.965-.34 3.091-.458 1.899-.642 2.43-1.25 3.621-.989 1.937-1.253 2.315-2.452 3.515-1.352 1.352-1.936 1.752-3.131 2.146l-.902.298-15.496.046-15.495.047-.411.237c-.226.13-1.659 1.453-3.183 2.938-1.525 1.485-2.97 2.865-3.21 3.067-.515.434-.853.955-.81 1.249.019.132.151.269.358.37.31.151 1.74.16 25.885.16h25.558l1.22-.287c1.719-.406 3.495-1.139 5.199-2.145 1.236-.73 1.33-.8 2.662-1.968a13.322 13.322 0 001.832-1.925c.403-.53.9-1.176 1.103-1.437.456-.586 1.629-2.583 1.876-3.197.101-.25.383-.888.627-1.417.608-1.32.73-1.684 1.315-3.93.336-1.289.541-2.293.599-2.934.048-.536.152-1.243.232-1.57.099-.41.144-1.07.145-2.11.001-1.558-.063-1.977-.787-5.142-.285-1.243-1.257-3.266-2.132-4.435-.976-1.304-1.825-2.107-3.119-2.948-1.16-.755-1.847-1.07-3.106-1.429l-.732-.208-23.173-.017c-12.745-.01-23.279.014-23.408.053zm64.381.009c-.287.085-.673.397-.82.664-.049.09-.128.502-.176.917-.048.415-.17 1.105-.271 1.534-.282 1.198-.555 2.81-.612 3.621a17.481 17.481 0 01-.238 1.696c-.404 2.096-.484 2.549-.573 3.255a44.49 44.49 0 01-.271 1.742 106.66 106.66 0 00-.615 3.794c-.072.525-.176 1.102-.231 1.284-.054.182-.135.826-.178 1.431-.044.605-.145 1.348-.225 1.65-.08.303-.21.942-.289 1.421-.079.48-.207 1.14-.284 1.467-.077.328-.14.792-.141 1.032-.002.24-.084.858-.184 1.375a75.36 75.36 0 00-.617 3.736c-.074.53-.182 1.148-.239 1.375-.057.227-.138.788-.179 1.247-.041.46-.168 1.23-.282 1.715-.186.788-.194.919-.08 1.265.071.217.243.47.392.578.263.191.289.192 10.112.215 9.234.022 9.867.014 10.168-.137.53-.266.681-.556.76-1.462.07-.803.181-1.456.606-3.558.122-.605.24-1.492.263-1.972.023-.479.107-1.139.187-1.466.425-1.736.625-2.808.629-3.366a5.8 5.8 0 01.087-.99c.538-2.4.682-3.186.755-4.125.047-.605.15-1.304.229-1.554.08-.25.188-.826.24-1.28.103-.892.285-1.303.667-1.513.487-.268.944.153 2.84 2.615 1.101 1.43 1.552 1.987 2.183 2.695a33 33 0 011.568 1.97c.48.656 1.239 1.585 1.687 2.064a26.5 26.5 0 011.344 1.558l.954 1.238c.233.302.608.798.832 1.1.802 1.078 1.321 1.513 1.807 1.513.322 0 .831-.362 1.797-1.277a24.357 24.357 0 011.498-1.305c.36-.28 1.308-1.118 2.106-1.865.798-.746 1.746-1.586 2.107-1.867.36-.28 1.35-1.168 2.2-1.971 1.479-1.399 3.399-3.112 4.494-4.011.283-.233.986-.86 1.562-1.395.576-.534 1.153-.997 1.281-1.029.363-.089.626.04.77.378.188.44.165.873-.101 1.92-.128.504-.234 1.02-.235 1.145-.002.126-.067.518-.145.871-.078.353-.184.967-.237 1.365a16.455 16.455 0 01-.277 1.467c-.1.41-.183.93-.184 1.156-.001.227-.082.784-.179 1.238a15.37 15.37 0 00-.241 1.65 16.32 16.32 0 01-.243 1.688c-.099.474-.179.97-.179 1.1 0 .131-.105.65-.233 1.155-.128.504-.234 1.164-.236 1.466-.001.303-.087.942-.19 1.421-.103.48-.213 1.284-.244 1.788-.051.848-.04.936.148 1.167.112.137.359.294.549.348.239.068 3.268.09 9.773.07 9.399-.026 9.427-.027 9.69-.218.366-.266.644-.782.78-1.447.063-.309.215-1.002.338-1.54.123-.54.224-1.22.225-1.513a6.08 6.08 0 01.141-1.13c.076-.328.223-1.086.328-1.686.104-.599.213-1.128.243-1.175.03-.047.086-.567.126-1.156.039-.59.16-1.484.268-1.988.334-1.556.492-2.436.623-3.47.069-.546.192-1.35.274-1.787.171-.912.358-2.036.616-3.708.1-.645.205-1.21.235-1.257.029-.047.092-.51.139-1.028a14.18 14.18 0 01.276-1.723c.106-.428.193-.985.195-1.238.001-.252.064-.726.14-1.054.076-.328.201-1.089.278-1.691a33.46 33.46 0 01.28-1.788c.407-2.019.525-2.7.612-3.541.053-.508.138-1.065.188-1.237.249-.85.012-1.462-.639-1.647-.239-.068-3.18-.09-9.521-.07-8.685.025-9.194.036-9.522.195-.485.237-2.02 1.554-2.962 2.543a20.164 20.164 0 01-1.692 1.547 50.134 50.134 0 00-2.256 1.975c-.747.693-1.652 1.49-2.013 1.772-.36.282-1.456 1.271-2.434 2.199-.979.927-2.167 1.992-2.641 2.367-.474.374-1.633 1.403-2.575 2.286-.942.883-1.899 1.728-2.127 1.878-.554.364-1.069.37-1.477.02-.384-.333-2.009-2.254-3.121-3.69a71.344 71.344 0 00-1.589-1.98 40.929 40.929 0 01-1.277-1.607 28.403 28.403 0 00-1.217-1.505 26.103 26.103 0 01-1.132-1.392c-.27-.363-.744-.935-1.054-1.27-.311-.336-1.076-1.276-1.7-2.09-1.49-1.94-2.197-2.74-2.655-3.005l-.374-.216-9.457-.016c-5.201-.009-9.577.02-9.726.064zm79.667.08c-.487.22-.595.416-.706 1.273-.05.389-.152 1.017-.226 1.395a31.27 31.27 0 00-.229 1.375c-.053.378-.161.914-.24 1.19-.079.275-.146.852-.148 1.283-.004.777-.032.967-.308 2.111-.231.959-.517 2.65-.574 3.392a8.77 8.77 0 01-.238 1.37c-.103.374-.188.89-.189 1.145a6.473 6.473 0 01-.143 1.107c-.078.353-.185.967-.237 1.365a16.455 16.455 0 01-.277 1.467c-.101.409-.183.99-.185 1.293-.001.303-.106.984-.233 1.513-.127.53-.232 1.128-.234 1.33a6.275 6.275 0 01-.146 1.008c-.079.353-.182.992-.229 1.42-.048.43-.169 1.13-.271 1.56-.295 1.245-.557 2.822-.614 3.695a12.474 12.474 0 01-.239 1.626c-.102.45-.187.995-.188 1.21 0 .215-.085.778-.187 1.252-.224 1.039-.236 1.666-.039 2.038.296.56-.128.538 10.364.538h9.58l.417-.206c.61-.3.836-.76.937-1.897.044-.499.142-1.147.217-1.441.075-.294.161-.742.192-.994s.139-.912.24-1.467c.101-.554.226-1.318.278-1.696.053-.378.158-.955.236-1.283a6.68 6.68 0 00.142-1.249c.002-.617.378-2.731.698-3.928.081-.3.147-.836.148-1.191.001-.355.08-1.017.176-1.47.097-.455.204-1.058.238-1.34a8.49 8.49 0 01.2-1.01c.076-.27.179-.926.229-1.456.051-.529.157-1.169.235-1.42a6.17 6.17 0 00.191-1.147c.026-.378.129-1.162.228-1.742.099-.58.228-1.353.286-1.72.122-.771.49-1.536.867-1.805.264-.187.307-.188 13.031-.188h12.767l.264.193c.473.343.543.756.324 1.916a18.518 18.518 0 00-.242 1.742 8.73 8.73 0 01-.239 1.415c-.103.375-.188.849-.189 1.054-.001.205-.065.662-.143 1.015-.078.353-.185.967-.237 1.365a16.455 16.455 0 01-.277 1.467 7.652 7.652 0 00-.187 1.569c-.003.453-.041.99-.086 1.191-.549 2.496-.753 3.552-.754 3.897-.001.227-.106.825-.235 1.329-.128.504-.233 1.156-.233 1.45 0 .292-.081.932-.18 1.42-.1.49-.207 1.12-.239 1.404a7.759 7.759 0 01-.198 1.008c-.076.272-.178.989-.227 1.594-.049.605-.152 1.303-.231 1.55-.171.544-.181 1.21-.022 1.521.064.127.264.302.443.39.306.152.934.16 10.127.138 9.734-.023 9.803-.025 10.06-.212.532-.39.615-.592.693-1.704.041-.573.137-1.289.214-1.591.077-.303.166-.757.197-1.009.031-.252.139-.912.24-1.467.101-.554.226-1.318.278-1.696.053-.378.158-.955.236-1.283a6.68 6.68 0 00.142-1.249c.002-.617.378-2.731.698-3.928.081-.3.147-.746.147-.99 0-.245.08-.845.179-1.333.099-.489.205-1.178.235-1.53.03-.354.118-.87.196-1.147.078-.277.182-.925.23-1.439.048-.514.151-1.153.229-1.42a10.4 10.4 0 00.242-1.312c.056-.454.142-.97.193-1.146.051-.177.131-.738.178-1.248.048-.51.173-1.25.279-1.644.106-.395.192-.938.192-1.205 0-.512.229-1.794.613-3.438.146-.622.23-1.26.23-1.75 0-.47.073-1.05.187-1.488.225-.863.229-.984.041-1.34-.307-.582 2.459-.54-34.798-.537-32.92.002-34.025.007-34.387.172zM86.112 41.384c-.6.203-.946.444-1.87 1.303a29.715 29.715 0 01-1.64 1.388 35.05 35.05 0 00-1.733 1.462 106.66 106.66 0 01-1.575 1.406c-1.076.937-1.27 1.417-.67 1.662.283.116 2.162.13 13.88.11 13.152-.023 13.564-.03 13.927-.2.383-.18 5.076-4.65 5.956-5.673.545-.634.602-.976.204-1.231-.212-.136-.479-.164-1.615-.171-.749-.005-1.551-.055-1.783-.112-.303-.075-3.534-.104-11.516-.104-10.289 0-11.13.012-11.565.16z" fill="#2E56F6"/><path d="M367.333 72.867l-19.529 17.346.962-7.872 19.439-17.266-.872 7.792zm1.928-12.877l-19.529 17.347.962-7.872 19.439-17.267-.872 7.793zm2.284-13.193l-19.528 17.346.962-7.872 19.439-17.266-.873 7.792zm-5.444-12.443L360.795 8.82l6.357 4.768 5.283 25.418-6.334-4.65zm10.223 8.105l-5.307-25.535 6.357 4.767 5.283 25.419-6.333-4.651zm10.319 8.571l-5.307-25.536 6.357 4.768 5.283 25.418-6.333-4.65z" fill="#2E56F6"/><path d="M400.165 52.538L425 60.728l-7.32 3.104-24.721-8.152 7.206-3.142zm-12.15 4.772l24.835 8.19-7.32 3.104-24.721-8.152 7.206-3.142zm-12.604 4.623l24.835 8.19-7.319 3.104-24.722-8.152 7.206-3.142zM5.933 69c1.564 0 2.856.465 3.876 1.394 1.031.918 1.547 2.13 1.547 3.638 0 1.96-.64 3.57-1.921 4.828-1.28 1.247-2.805 1.87-4.573 1.87-1.213 0-2.233-.272-3.06-.816A4.848 4.848 0 010 77.755l1.904-.68a2.95 2.95 0 001.207 1.411c.544.317 1.162.476 1.853.476.93 0 1.774-.306 2.533-.918.77-.612 1.298-1.417 1.581-2.414H2.873l.391-1.751h6.001c-.057-.93-.397-1.677-1.02-2.244-.623-.578-1.434-.867-2.431-.867-1.088 0-2.029.43-2.822 1.292l-1.513-1.054c.59-.703 1.275-1.213 2.057-1.53A6.409 6.409 0 015.933 69zm15.804 11.526h-1.99l1.089-4.947h-5.9l-1.087 4.947h-1.99l2.5-11.339h1.989l-1.02 4.641h5.899l1.02-4.641h1.989l-2.5 11.339zm10.177 0h-7.769l2.499-11.339h7.769l-.391 1.751h-5.78l-.646 2.941h5.661l-.391 1.751h-5.661l-.697 3.145h5.78l-.374 1.751zm4.032 0h-1.99l2.5-11.339h4.556c1.054 0 1.875.295 2.465.884.6.578.9 1.303.9 2.176a4 4 0 01-.152 1.088 3.88 3.88 0 01-.476 1.071c-.227.363-.51.68-.85.952-.33.272-.76.499-1.292.68-.522.17-1.111.255-1.768.255H36.88l-.935 4.233zm1.309-5.984h2.72c.714 0 1.28-.198 1.7-.595.419-.408.629-.912.629-1.513 0-.42-.153-.77-.46-1.054-.305-.295-.69-.442-1.155-.442h-2.635l-.8 3.604zm9.033 5.984H44.3l2.5-11.339h7.768l-.39 1.751h-5.78l-2.109 9.588zm15.326 0h-7.769l2.5-11.339h7.768l-.39 1.751h-5.78l-.647 2.941h5.661l-.39 1.751h-5.662l-.697 3.145h5.78l-.374 1.751zm6.735 0h-1.99l2.109-9.588h-3.434l.39-1.751h8.858l-.391 1.751h-3.434l-2.108 9.588zm7.041 0h-1.922l2.5-11.339h1.988l-1.802 8.177 7.6-8.177h2.04l-2.5 11.339h-2.006l1.87-8.398-7.769 8.398zm19.545 0h-2.33l-2.804-4.862-1.31 1.241-.798 3.621h-1.99l2.5-11.339h1.989l-1.156 5.236 5.474-5.236h2.584l-5.78 5.355 3.62 5.984zm11.527 0h-2.159l-.357-2.176h-5.202l-1.309 2.176h-2.363l6.953-11.339h2.482l1.955 11.339zm-2.686-3.927l-.85-5.406-3.23 5.406h4.08zm18.168 3.927h-1.989l1.088-4.947h-5.899l-1.088 4.947h-1.989l2.499-11.339h1.989l-1.02 4.641h5.899l1.02-4.641h1.989l-2.499 11.339zm8.409.204c-1.564 0-2.862-.453-3.893-1.36-1.02-.918-1.53-2.142-1.53-3.672 0-1.87.623-3.451 1.87-4.743 1.258-1.303 2.799-1.955 4.624-1.955 1.564 0 2.856.459 3.876 1.377 1.031.907 1.547 2.12 1.547 3.638 0 1.881-.629 3.474-1.887 4.777-1.247 1.292-2.782 1.938-4.607 1.938zm.119-1.768c1.19 0 2.204-.459 3.043-1.377.839-.93 1.258-2.074 1.258-3.434 0-1.031-.329-1.853-.986-2.465-.657-.612-1.485-.918-2.482-.918-1.19 0-2.204.465-3.043 1.394-.839.918-1.258 2.057-1.258 3.417 0 1.043.323 1.87.969 2.482.657.6 1.49.901 2.499.901zm12.659 1.564h-5.78l2.499-11.339h5.168c.895 0 1.615.255 2.159.765a2.48 2.48 0 01.833 1.904c0 .77-.261 1.445-.782 2.023-.51.578-1.116.901-1.819.969.499.136.895.425 1.19.867.306.442.459.924.459 1.445 0 .907-.334 1.694-1.003 2.363-.657.669-1.632 1.003-2.924 1.003zm.918-6.647c.635 0 1.099-.164 1.394-.493.295-.329.442-.725.442-1.19 0-.351-.136-.646-.408-.884a1.408 1.408 0 00-.986-.374h-3.043l-.646 2.941h3.247zm-1.02 4.896c.623 0 1.116-.17 1.479-.51.363-.351.544-.776.544-1.275 0-.408-.136-.737-.408-.986-.261-.25-.623-.374-1.088-.374h-3.145l-.697 3.145h3.315zm11.347 1.955c-1.564 0-2.862-.453-3.893-1.36-1.02-.918-1.53-2.142-1.53-3.672 0-1.87.623-3.451 1.87-4.743 1.258-1.303 2.799-1.955 4.624-1.955 1.564 0 2.856.459 3.876 1.377 1.031.907 1.547 2.12 1.547 3.638 0 1.881-.629 3.474-1.887 4.777-1.247 1.292-2.783 1.938-4.607 1.938zm.119-1.768c1.19 0 2.204-.459 3.043-1.377.838-.93 1.258-2.074 1.258-3.434 0-1.031-.329-1.853-.986-2.465-.658-.612-1.485-.918-2.482-.918-1.19 0-2.205.465-3.043 1.394-.839.918-1.258 2.057-1.258 3.417 0 1.043.323 1.87.969 2.482.657.6 1.49.901 2.499.901zm8.868 1.564h-1.989l2.499-11.339h7.769l-.391 1.751h-5.78l-2.108 9.588zm13.342.204c-1.564 0-2.862-.453-3.893-1.36-1.02-.918-1.53-2.142-1.53-3.672 0-1.87.623-3.451 1.87-4.743 1.258-1.303 2.799-1.955 4.624-1.955 1.564 0 2.856.459 3.876 1.377 1.031.907 1.547 2.12 1.547 3.638 0 1.881-.629 3.474-1.887 4.777-1.247 1.292-2.783 1.938-4.607 1.938zm.119-1.768c1.19 0 2.204-.459 3.043-1.377.838-.93 1.258-2.074 1.258-3.434 0-1.031-.329-1.853-.986-2.465-.658-.612-1.485-.918-2.482-.918-1.19 0-2.205.465-3.043 1.394-.839.918-1.258 2.057-1.258 3.417 0 1.043.323 1.87.969 2.482.657.6 1.49.901 2.499.901zm21.122 1.564h-1.989l2.108-9.588h-5.899l-2.108 9.588h-1.989l2.499-11.339h9.877l-2.499 11.339zm8.409.204c-1.564 0-2.862-.453-3.893-1.36-1.02-.918-1.53-2.142-1.53-3.672 0-1.87.623-3.451 1.87-4.743 1.258-1.303 2.799-1.955 4.624-1.955 1.564 0 2.856.459 3.876 1.377 1.031.907 1.547 2.12 1.547 3.638 0 1.881-.629 3.474-1.887 4.777-1.247 1.292-2.782 1.938-4.607 1.938zm.119-1.768c1.19 0 2.204-.459 3.043-1.377.839-.93 1.258-2.074 1.258-3.434 0-1.031-.329-1.853-.986-2.465-.657-.612-1.485-.918-2.482-.918-1.19 0-2.204.465-3.043 1.394-.839.918-1.258 2.057-1.258 3.417 0 1.043.323 1.87.969 2.482.657.6 1.49.901 2.499.901zm16.11 1.564h-2.329l-2.805-4.862-1.309 1.241-.799 3.621h-1.989l2.499-11.339h1.989l-1.156 5.236 5.474-5.236h2.584l-5.78 5.355 3.621 5.984z" fill="#2E56F6"/><path d="M229.066 80.73c-1.564 0-2.862-.453-3.893-1.36-1.02-.918-1.53-2.142-1.53-3.672 0-1.87.623-3.451 1.87-4.743 1.258-1.303 2.799-1.955 4.624-1.955 1.564 0 2.856.459 3.876 1.377 1.031.907 1.547 2.12 1.547 3.638 0 1.881-.629 3.474-1.887 4.777-1.247 1.292-2.782 1.938-4.607 1.938zm.119-1.768c1.19 0 2.204-.459 3.043-1.377.839-.93 1.258-2.074 1.258-3.434 0-1.031-.329-1.853-.986-2.465-.657-.612-1.485-.918-2.482-.918-1.19 0-2.204.465-3.043 1.394-.839.918-1.258 2.057-1.258 3.417 0 1.043.323 1.87.969 2.482.657.6 1.49.901 2.499.901zm5.765 1.768l.391-1.768c.657 0 1.201-.255 1.632-.765.442-.521.935-1.581 1.479-3.179l1.938-5.831h7.701l-2.482 11.339h-1.989l2.108-9.588h-3.927l-1.411 4.216c-.385 1.167-.788 2.13-1.207 2.89-.408.76-.844 1.332-1.309 1.717-.465.374-.918.629-1.36.765-.442.136-.963.204-1.564.204zm20.836-.204h-7.769l2.499-11.339h7.769l-.391 1.751h-5.78l-.646 2.941h5.661l-.391 1.751h-5.661l-.697 3.145h5.78l-.374 1.751zm11.92 0h-1.989l1.088-4.947h-5.899l-1.088 4.947h-1.989l2.499-11.339h1.989l-1.02 4.641h5.899l1.02-4.641h1.989l-2.499 11.339zm4.329 0h-1.921l2.499-11.339h1.989l-1.802 8.177 7.599-8.177h2.04l-2.499 11.339h-2.006l1.87-8.398-7.769 8.398zm12.354 0h-2.55l3.774-4.42c-.544-.181-1.014-.527-1.411-1.037-.385-.521-.578-1.133-.578-1.836 0-.363.045-.72.136-1.071.102-.363.266-.725.493-1.088.227-.363.504-.68.833-.952.34-.272.771-.493 1.292-.663a5.52 5.52 0 011.785-.272h4.947l-2.499 11.339h-1.989l.935-4.233h-1.717l-3.451 4.233zm2.924-5.984h2.635l.782-3.604h-2.703c-.714 0-1.281.204-1.7.612-.419.397-.629.895-.629 1.496 0 .42.153.776.459 1.071.306.283.691.425 1.156.425z" fill="#2E56F6"/></svg>