<svg width="209" height="93" viewBox="0 0 209 93" fill="none" xmlns="http://www.w3.org/2000/svg"><path d="M21.8 66.763c5.022-2.619 15.622-9.61 17.848-16.633-4.636 1.54-15.437-1.294-21.556-24.95 2.086 3.542 9.41 10.996 22.02 12.475-3.478-7.623-2.319-12.706 17.15-28.646-2.549 2.926-7.138 12.152-5.098 25.643 1.7-2.156 6.675-5.96 12.98-3.927 6.304 2.032 15.143 7.777 18.774 10.395-5.177-1.155-17.337-2.125-24.569 3.234 3.168 1.078 8.761 6.053 5.795 17.326-2.428 9.223-3.055 13.096-3.076 14.327.022.157.043.31.062.458-.042-.042-.067-.185-.062-.458-.876-6.115-4.142-18.55-10.831-22.874.386 2.849-.881 9.148-9.04 11.55-5.563 1.618-8.112.463-20.397 2.08z" fill="#2E56F6"/><path opacity=".8" d="M27.131 0c-1.669 0-6.721 16.787-9.04 25.18 4.096 6.392 11.96 19.406 10.663 20.33C27.13 46.665-.683 48.282.013 51.747.708 55.212 20.178 67.225 21.8 66.763c1.298-.37 16.611-3.388 24.106-4.851-3.94 13.398-8.113 29.338-5.563 30.956 2.55 1.617 22.02-12.013 21.787-16.402-.185-3.512.696-17.943 1.16-24.719 8.575 5.852 26.237 17.049 28.277 15.016 2.55-2.541-6.954-25.18-7.65-25.643-.555-.37-14.138-6.776-20.86-9.933 7.108-6.469 21.093-19.96 20.165-22.177-1.158-2.773-25.032-.925-25.96 0-.74.739-10.816 10.626-15.76 15.477C37.407 16.325 28.8 0 27.132 0z" fill="#2E56F6"/><path d="M151.086 61h-13.203l-10.611-19.197h-8.424V61h-11.502V6.973h25.272c5.562 0 9.963 1.62 13.203 4.86 3.294 3.24 4.941 7.425 4.941 12.555 0 4.428-1.161 8.019-3.483 10.773-2.268 2.754-5.049 4.509-8.343 5.265L151.086 61zm-20.169-29.322c2.376 0 4.32-.648 5.832-1.944 1.512-1.35 2.268-3.132 2.268-5.346s-.756-3.97-2.268-5.265c-1.512-1.35-3.456-2.025-5.832-2.025h-12.069v14.58h12.069zm71.003 24.219c-4.104 4.05-10.152 6.075-18.144 6.075-7.992 0-14.067-2.025-18.225-6.075-4.104-4.104-6.156-9.585-6.156-16.443V6.973h11.664v32.076c0 3.888 1.107 6.993 3.321 9.315 2.214 2.268 5.346 3.402 9.396 3.402 4.05 0 7.155-1.134 9.315-3.402 2.214-2.322 3.321-5.427 3.321-9.315V6.973h11.745v32.4c0 6.966-2.079 12.474-6.237 16.524zM116.52 93H107V69h9.52c3.788 0 6.865 1.103 9.23 3.31 2.388 2.207 3.583 5.11 3.583 8.708s-1.182 6.5-3.547 8.708C123.421 91.909 120.332 93 116.52 93zm0-4.498c2.316 0 4.15-.72 5.501-2.159 1.376-1.439 2.064-3.214 2.064-5.325 0-2.207-.664-4.006-1.991-5.397-1.327-1.416-3.185-2.123-5.574-2.123h-4.38v15.004h4.38zM152.526 93h-5.9l-4.741-8.528h-3.765V93h-5.139V69h11.293c2.485 0 4.452.72 5.9 2.159 1.472 1.44 2.208 3.298 2.208 5.577 0 1.967-.519 3.562-1.557 4.786-1.013 1.223-2.256 2.003-3.728 2.339L152.526 93zm-9.012-13.025c1.061 0 1.93-.288 2.606-.864.675-.6 1.013-1.391 1.013-2.375 0-.983-.338-1.763-1.013-2.339-.676-.6-1.545-.9-2.606-.9h-5.394v6.478h5.394zM161.379 93h-5.14V69h5.14v24zm18.005 0h-6.443l-9.339-24h5.864l6.696 18.459L182.822 69h5.864l-9.302 24zM208 93h-17.085V69H208v4.498h-11.945v5.073h11.692v4.498h-11.692v5.433H208V93z" fill="#2E56F6"/></svg>