<svg width="253" height="66" viewBox="0 0 253 66" fill="none" xmlns="http://www.w3.org/2000/svg"><path fill-rule="evenodd" clip-rule="evenodd" d="M39.03 4.093c-.143.084-.71.921-2.16 3.19a1028.426 1028.426 0 01-2.866 4.464c-.453.702-1.137 1.765-1.52 2.362-.382.598-1.066 1.66-1.52 2.362a871.86 871.86 0 00-1.52 2.362 758.18 758.18 0 01-1.519 2.362c-.453.702-1.137 1.765-1.52 2.362-.382.598-1.066 1.66-1.52 2.362-.453.702-1.136 1.765-1.52 2.362a758.18 758.18 0 01-1.519 2.362c-.453.702-1.137 1.765-1.52 2.362-.382.598-1.066 1.66-1.52 2.362-.453.702-1.136 1.765-1.519 2.362-.383.598-1.067 1.66-1.52 2.362-.453.702-1.123 1.743-1.488 2.315-1.373 2.147-2.08 3.249-2.881 4.488-.453.701-1.137 1.764-1.52 2.362-.382.597-1.066 1.66-1.52 2.362-.453.701-1.137 1.764-1.52 2.362-.382.597-1.066 1.66-1.519 2.362-.453.701-1.137 1.764-1.52 2.362-.698 1.09-1.72 2.672-3.072 4.758-.4.617-.727 1.175-.727 1.24 0 .066.058.168.13.226.133.111 21.524.095 79.208-.06 23.383-.062 26.491-.087 26.57-.212.057-.089.091-11.44.092-30.25.001-27.247-.013-30.123-.148-30.258-.134-.133-1.784-.148-16.743-.148-14.254 0-16.622.02-16.789.135-.185.13-.559.678-2.063 3.03a739.65 739.65 0 01-1.49 2.315c-.77 1.193-1.16 1.8-2.849 4.44-3.03 4.737-2.839 4.457-3.02 4.422-.15-.029-.165-.544-.209-7.095-.041-6.142-.066-7.077-.19-7.154-.187-.118-1.578-.119-1.8-.001-.094.05-.31.316-.482.59-.17.274-.596.945-.946 1.491l-1.316 2.055-1.345 2.102a905.006 905.006 0 01-2.85 4.44 992.25 992.25 0 00-2.833 4.418l-1.33 2.078-1.361 2.126c-.374.585-1.051 1.637-1.504 2.338-.77 1.193-1.16 1.8-2.85 4.44l-2.347 3.668c-.216.337-.375.492-.483.471-.151-.029-.165-1.021-.21-15.079-.041-13.239-.064-15.059-.19-15.137-.182-.115-1.424-.115-1.622 0zm63.342 2.143c.87.059 1.19.115 1.257.22.056.089.09 10.696.091 28.078.002 25.271-.013 27.95-.147 28.084-.136.135-4.786.148-49.76.148-43 0-49.626-.018-49.724-.135-.151-.182-.218-.062 1.579-2.84a803.5 803.5 0 001.55-2.41c.383-.598 1.067-1.66 1.52-2.362.454-.701 1.138-1.764 1.52-2.362.383-.597 1.067-1.66 1.52-2.362.453-.701 1.137-1.764 1.52-2.362.382-.597 1.066-1.66 1.52-2.362.453-.701 1.136-1.764 1.52-2.362a758.18 758.18 0 011.519-2.362c.453-.701 1.137-1.764 1.52-2.362a912.55 912.55 0 011.52-2.362c.453-.701 1.13-1.754 1.504-2.338l1.36-2.126c.374-.585 1.051-1.637 1.505-2.338.453-.702 1.137-1.765 1.52-2.362a758.18 758.18 0 011.519-2.362c.453-.702 1.137-1.765 1.52-2.362.382-.598 1.066-1.66 1.52-2.362.453-.702 1.136-1.765 1.52-2.362a758.18 758.18 0 011.519-2.362c.453-.702 1.137-1.765 1.52-2.362 1.31-2.046 2.4-3.683 2.517-3.78.082-.067.15-.057.224.032.079.094.114 4.456.132 16.322.022 15.132.034 16.194.185 16.223.102.02.243-.1.387-.33.125-.197.54-.849.924-1.446l1.33-2.079a984.276 984.276 0 012.85-4.44 977.994 977.994 0 002.849-4.44c1.852-2.902 3.222-5.04 4.179-6.52a966.901 966.901 0 002.85-4.44l1.313-2.055 1.361-2.126c.375-.585 1.066-1.658 1.536-2.386l1.177-1.824c.215-.337.374-.492.483-.472.15.029.164.627.208 8.437.044 7.804.06 8.409.209 8.437.104.02.251-.111.419-.376.142-.224.629-.982 1.082-1.683.453-.702 1.123-1.743 1.489-2.315a1084.65 1084.65 0 012.88-4.488 989.335 989.335 0 002.85-4.44c.732-1.147 1.59-2.486 2.873-4.488.5-.78 1.037-1.556 1.195-1.725l.287-.308 13.756.04c7.565.022 14.281.076 14.923.119zm-26.487 4.09c-.178.107-1.045 1.414-3.903 5.886a976.506 976.506 0 01-2.834 4.416 1053.29 1053.29 0 00-2.85 4.441 384.66 384.66 0 01-1.219 1.894c-.322.496-.585.984-.585 1.083 0 .099.299.639.665 1.2.365.56.97 1.498 1.345 2.082.374.585 1.05 1.637 1.504 2.339.453.701 1.137 1.764 1.52 2.362.382.597 1.066 1.66 1.52 2.362.453.701 1.123 1.743 1.488 2.314a905.79 905.79 0 004.29 6.661c.851 1.306 1.072 1.714 1.042 1.926-.029.196-.07.2-2.204.225-1.742.02-2.215 0-2.379-.107-.112-.073-.476-.552-.809-1.065-.567-.874-.961-1.487-2.6-4.05a724.762 724.762 0 00-1.488-2.314c-.8-1.239-1.508-2.341-2.88-4.488a658.989 658.989 0 00-1.49-2.315 396.98 396.98 0 01-1.545-2.409c-.915-1.442-1.022-1.559-1.436-1.559-.674 0-.628-.676-.628 9.165 0 7.935-.015 8.883-.149 9.016-.125.124-.436.148-1.923.147-.976-.001-1.839-.042-1.917-.091-.125-.079-.148-1.674-.19-13.107-.044-12.153-.058-13.018-.209-13.047-.166-.032-.203.02-1.69 2.343-.383.598-1.067 1.66-1.52 2.362a989.335 989.335 0 00-2.85 4.44 1412.711 1412.711 0 01-4.18 6.52c-.812 1.258-1.593 2.476-2.864 4.464l-1.299 2.031c-.357.559-.95 1.483-1.317 2.055a72.81 72.81 0 00-.878 1.394c-.375.631-.4.637-2.567.636-1.072-.001-2.014-.042-2.092-.091-.125-.079-.148-1.679-.19-13.154-.044-12.2-.058-13.066-.21-13.095-.164-.031-.299.157-1.88 2.627a829.53 829.53 0 01-1.52 2.362 871.86 871.86 0 00-1.52 2.362c-.382.597-1.066 1.66-1.519 2.362-.453.701-1.137 1.764-1.52 2.362-.382.597-1.066 1.66-1.52 2.362-.453.701-1.13 1.754-1.504 2.338l-1.36 2.126c-.375.585-1.051 1.637-1.505 2.338-.453.702-1.137 1.765-1.52 2.362a871.86 871.86 0 01-1.52 2.362l-1.519 2.362a944.527 944.527 0 01-2.897 4.488c-.964 1.482-1.39 2.23-1.358 2.39.03.152 2.577.162 43.786.185 39.684.021 43.77.01 43.905-.125.135-.134.15-2.43.15-23.944 0-21.506-.015-23.81-.15-23.944-.131-.13-.698-.148-4.79-.148-4.092 0-4.658.017-4.79.148-.134.134-.149 2.025-.149 19.409 0 17.383-.014 19.275-.149 19.409-.222.22-3.659.22-3.88 0-.136-.134-.15-2.025-.151-19.392-.001-11.948-.036-19.297-.092-19.385-.076-.12-.644-.153-3.679-.21-1.974-.038-4.06-.091-4.634-.119-.594-.028-1.11-.01-1.194.04zm7.171 2.326c.135.134.15 2.034.15 19.503 0 17.47.014 19.37.149 19.503.13.13.637.149 4.125.149 3.487 0 3.994-.018 4.125-.149.134-.134.149-2.034.149-19.503 0-17.47.014-19.37.15-19.503.223-.223 5.175-.223 5.4 0 .134.134.149 2.248.149 21.865 0 19.617-.015 21.731-.15 21.865-.135.135-3.973.149-40.823.149-31.51 0-40.7-.026-40.789-.114-.062-.062-.114-.163-.114-.225s.327-.617.727-1.233c1.353-2.086 2.374-3.668 3.073-4.758a912.55 912.55 0 011.52-2.362c.453-.702 1.136-1.765 1.52-2.362a758.18 758.18 0 011.519-2.362c.453-.702 1.137-1.765 1.52-2.362.382-.598 1.066-1.66 1.52-2.362l1.519-2.362a869.254 869.254 0 012.917-4.518c.904-1.388.828-2.23.882 9.695.042 9.124.066 10.43.19 10.508.084.053 1.648.09 3.763.091 3.444.002 3.632-.007 3.855-.182.225-.176.404-.438 1.911-2.792.366-.572 1.036-1.614 1.49-2.315.453-.702 1.122-1.743 1.488-2.315l1.33-2.078 1.33-2.079c1.451-2.27 2.09-3.266 2.88-4.488.453-.701 1.137-1.764 1.52-2.362 1.58-2.47 1.715-2.658 1.88-2.626.151.028.165.744.21 10.544.041 9.207.065 10.524.19 10.602.083.053 1.75.09 4.042.091 3.22.002 3.932-.022 4.084-.132.179-.13.186-.342.232-7.014.044-6.38.06-6.882.209-6.91.165-.032.3.155 1.88 2.626.383.597 1.067 1.66 1.52 2.362.453.701 1.137 1.764 1.52 2.362.383.597 1.067 1.66 1.52 2.362.455.701 1.142 1.78 1.529 2.399.387.618.88 1.31 1.095 1.536l.392.413 4.727-.025c4.281-.022 4.736-.04 4.826-.181.078-.124-.007-.321-.409-.945-.28-.433-.8-1.245-1.157-1.804a1008.6 1008.6 0 00-2.835-4.417 856.479 856.479 0 01-1.52-2.362c-.382-.597-1.066-1.66-1.52-2.362a832.593 832.593 0 01-1.519-2.362c-.383-.597-1.066-1.66-1.52-2.362a879.485 879.485 0 01-1.52-2.362c-.382-.597-1.068-1.66-1.524-2.362a54.994 54.994 0 01-1.081-1.716c-.245-.428-.248-.452-.102-.803.083-.2.527-.936.986-1.638.786-1.2 1.315-2.02 2.877-4.464a977.201 977.201 0 012.834-4.417 382.09 382.09 0 002.467-3.852c.571-.917.38-.872 3.665-.872 2.49 0 2.898.02 3.027.149z" fill="#2E56F6"/><path d="M118.655 10.901l.855-3.268V17h1.881V3.7h-2.299l-1.71 5.491-.76 2.926V3.7h-1.862V17h2.147l1.748-6.099zm7.253.399h2.375V17h2.128V3.7h-2.128v5.7h-2.375V3.7h-2.09V17h2.09v-5.7zM138.9 3.7h-2.071v5.377l-2.47-5.377h-2.09l2.584 5.453L132.269 17h2.147l1.9-5.909.513 1.026V17h2.071v-4.883l.513-1.007 1.9 5.89h2.147l-2.565-7.904L143.46 3.7h-2.09l-2.47 5.377V3.7zm8.483 1.9h3.61V3.7h-5.7V17h5.7v-1.9h-3.61v-3.895h2.869v-1.9h-2.869V5.6zm7.945 5.7h2.375V17h2.128V3.7h-2.128v5.7h-2.375V3.7h-2.09V17h2.09v-5.7zm9.059-5.7h3.61V3.7h-5.7V17h5.7v-1.9h-3.61v-3.895h2.869v-1.9h-2.869V5.6zm8.933-1.9h-3.078V17h2.09v-4.997h.988c2.09 0 3.116-1.159 3.116-3.287V6.987c0-2.128-1.026-3.287-3.116-3.287zm0 1.9c.665 0 1.026.304 1.026 1.254V8.85c0 .95-.361 1.254-1.026 1.254h-.988V5.6h.988zm7.124 5.7h2.375V17h2.128V3.7h-2.128v5.7h-2.375V3.7h-2.09V17h2.09v-5.7zm10.047 5.7c2.089 0 3.115-1.159 3.115-3.287v-1.729c0-2.128-1.026-3.287-3.115-3.287h-.989V3.7h-2.09V17h3.079zm-.989-1.9v-4.503h.989c.665 0 1.026.304 1.026 1.254v1.995c0 .95-.361 1.254-1.026 1.254h-.989zm7.392 1.9V3.7h-2.091V17h2.091zm4.618 0h-2.147V3.7h1.862v8.417l.76-2.926 1.71-5.49h2.299V17h-1.881V7.632l-.855 3.268-1.748 6.1zM203.659.736c-.057.703-.38.874-.95.874-.551 0-.836-.17-.893-.874h-1.292c.038 1.292.722 2.11 2.185 2.11 1.482 0 2.223-.818 2.223-2.11h-1.273zM212.361 17h5.472v1.786h2.033v-3.648h-.912V3.7h-2.128v11.4h-2.375V3.7h-2.09V17zm11.687-11.4h3.61V3.7h-5.7V17h5.7v-1.9h-3.61v-3.895h2.869v-1.9h-2.869V5.6zm7.945 5.7h2.375V17h2.128V3.7h-2.128v5.7h-2.375V3.7h-2.09V17h2.09v-5.7zm6.36-5.7h2.185V17h2.09V5.6h2.185V3.7h-6.46v1.9zm11.409-1.9h-3.078V17h2.09v-4.997h.988c2.09 0 3.116-1.159 3.116-3.287V6.987c0-2.128-1.026-3.287-3.116-3.287zm0 1.9c.665 0 1.026.304 1.026 1.254V8.85c0 .95-.361 1.254-1.026 1.254h-.988V5.6h.988zm-97.159 19.068c2.651.077 5.042.116 7.174.116 1.901 0 4.138-.039 6.712-.116l.173 1.47-3.947 1.123c-.442.134-.672.451-.691.95a160.81 160.81 0 00-.058 4.783v22.96c0 2.267.019 4.178.058 5.733.019.442.278.74.778.893l3.745 1.066.115 1.44A437.989 437.989 0 00157.53 65c-3.246 0-5.964.03-8.153.087l-.144-1.44 3.313-1.009c.461-.134.701-.48.72-1.037.057-1.498.086-3.38.086-5.647V37.517c0-.999.029-2.91.087-5.733a373.994 373.994 0 01-2.074 5.128L139.899 65l-2.593.23-10.947-27.28a108.082 108.082 0 01-2.017-5.215c.038 2.727.058 4.523.058 5.387v17.832c0 2.267.019 4.149.057 5.647.019.557.269.903.749 1.037l3.169 1.008.087 1.44a236.147 236.147 0 00-5.906-.086c-1.652 0-3.812.03-6.482.087l-.144-1.44 3.86-1.067c.5-.153.759-.45.778-.893.039-1.555.058-3.466.058-5.733v-22.96c0-1.92-.019-3.515-.058-4.782-.019-.5-.25-.817-.691-.95l-3.861-1.125-.086-1.469c3.188.077 5.579.116 7.173.116 2.19 0 4.427-.039 6.713-.116l10.054 25.38a75.473 75.473 0 011.181 3.112c.384-.98.787-2.017 1.21-3.111l10.342-25.38zm35.389 19.042h1.527c.864 0 1.651-.018 2.362-.057a6.986 6.986 0 001.901-.346 4.293 4.293 0 001.556-.921c.461-.423.893-1.009 1.296-1.758.423-.768.826-1.728 1.21-2.88.384-1.172.778-2.593 1.181-4.264.327-1.364.625-2.526.894-3.486.268-.98.528-1.796.777-2.449.269-.672.557-1.19.865-1.555a3.215 3.215 0 011.123-.865c.442-.192.96-.317 1.556-.374a22.55 22.55 0 012.132-.087c2.861 0 5.377.106 7.547.317l.145 1.93c-2.267.077-4.043.576-5.33 1.498-1.268.922-2.468 2.507-3.601 4.754-1.076 2.132-2.103 3.947-3.083 5.445a22.958 22.958 0 01-3.485 4.148c1.67 2.42 3.092 4.657 4.263 6.712a393.284 393.284 0 013.198 5.56c1.709 3.054 3.169 5.215 4.379 6.483a6.27 6.27 0 001.844 1.382c.691.308 1.574.586 2.65.836l.115 1.469c-2.074.23-4.302.346-6.683.346-1.518 0-2.795-.183-3.832-.548a7.831 7.831 0 01-2.708-1.67c-.749-.75-1.44-1.672-2.074-2.766a109.121 109.121 0 01-2.103-3.832 465.837 465.837 0 00-2.19-4.033 90.336 90.336 0 00-2.448-4.177 27.11 27.11 0 00-.692-.95 3.153 3.153 0 00-.576-.635 1.41 1.41 0 00-.605-.317 2.551 2.551 0 00-.807-.115h-2.304v9.45c0 2.266.019 4.157.057 5.675.02.537.269.874.749 1.008l3.342 1.008.087 1.44a354.884 354.884 0 00-8.441-.086c-3.323 0-6.319.03-8.989.087l-.144-1.44 3.861-1.067c.499-.153.758-.45.778-.893.038-1.555.057-3.466.057-5.733v-22.96c0-1.92-.019-3.515-.057-4.782-.02-.5-.25-.817-.692-.95l-3.86-1.125-.087-1.469c2.67.077 5.628.116 8.873.116 3.342 0 6.185-.039 8.528-.116l.173 1.47-3.429.979c-.48.134-.729.432-.749.893a180.188 180.188 0 00-.057 4.869V43.71zM233.089 65c-3.38 0-6.607.03-9.68.087l-.144-1.44 4.609-1.268c.481-.154.73-.461.749-.922.039-1.44.058-3.294.058-5.56V27.75h-8.297l-2.65 7.663-1.614.26-.749-10.775.202-.23c4.725.076 9.248.114 13.569.114h8.038a849.6 849.6 0 0013.655-.115l.173.23-1.902 10.545-1.613.259-1.873-7.951h-8.325v28.146c0 2.266.019 4.12.057 5.56.02.46.279.768.778.922l4.523 1.267.087 1.44a533.506 533.506 0 00-9.651-.086z" fill="#2E56F6"/></svg>