<svg width="284" height="53" viewBox="0 0 284 53" fill="none" xmlns="http://www.w3.org/2000/svg"><path fill-rule="evenodd" clip-rule="evenodd" d="M177.939.12c-.369.162-.276-.05-2.085 4.815-.328.881-.773 2.06-.99 2.619-.854 2.204-1.353 3.658-1.353 3.944 0 .181.052.34.132.405.11.089 1.683.113 9.252.146l9.12.039.182.178.182.178.039 19.861.04 19.862.224.188.224.189h14.342l.224-.189.224-.188.039-19.862.04-19.861.182-.178.182-.178 9.199-.04c7.637-.032 9.223-.056 9.332-.146.235-.19.154-.65-.335-1.902-.257-.657-.616-1.6-.797-2.094a544.28 544.28 0 00-1.016-2.737 619.86 619.86 0 01-1.154-3.111c-.54-1.472-.717-1.79-1.083-1.94-.389-.16-43.983-.156-44.346.003zm-33.267.281c-.175.038-.599.07-.942.073-.342.003-.863.038-1.156.08-.294.04-.911.114-1.372.162-2.234.234-5.879 1.2-8.057 2.135-2.03.871-3.712 1.81-5.136 2.866-1.73 1.282-1.89 1.423-2.756 2.423-1.459 1.686-2.301 3.05-2.951 4.782-.595 1.585-.725 2.415-.725 4.638 0 2.869.294 4.293 1.286 6.236.771 1.512 1.873 2.696 3.543 3.809.667.444 2.262 1.237 2.989 1.486.285.097.781.278 1.101.402.729.282 4.598 1.25 5.88 1.471.526.091 1.477.287 2.114.434a20.66 20.66 0 001.874.348 36.05 36.05 0 011.835.277 69.01 69.01 0 004.109.59c.819.088 2.183.303 4.906.773 1.518.261 2.948.697 3.776 1.15.732.4 1.393 1.066 1.711 1.724.253.523.257.55.257 1.665 0 1.02-.019 1.174-.187 1.537-.384.833-1.635 1.784-2.845 2.162-.593.186-2.459.577-3.211.673l-1.276.163c-.83.105-4.667.1-5.52-.01a64.777 64.777 0 01-1.999-.309c-.724-.122-1.657-.278-2.074-.346a25.322 25.322 0 01-1.795-.389c-.571-.146-1.54-.39-2.154-.541-2.505-.62-8.42-2.42-9.64-2.934-.5-.21-.882-.21-1.098.002-.093.09-.294.434-.448.763-.902 1.924-1.179 2.532-1.389 3.052a9.3 9.3 0 01-.351.782c-.064.112-.371.766-.683 1.454-.312.688-.78 1.716-1.04 2.285-.506 1.108-.532 1.318-.192 1.536.448.288 3.992 1.534 5.347 1.88.395.1 1.149.313 1.676.471.526.158 1.262.352 1.635.431a81.7 81.7 0 011.955.456c1.818.446 5.772 1.17 7.18 1.313 1.187.121 1.774.184 3.231.346 1.957.218 2.653.253 5.783.288 2.122.023 3.585.006 3.989-.046 1.72-.222 2.557-.34 2.601-.367.027-.015.646-.132 1.375-.258 2.496-.433 5.501-1.475 7.512-2.605 2.528-1.42 4.083-2.758 5.604-4.82.937-1.27 1.931-3.48 2.099-4.663a7.56 7.56 0 01.161-.831c.244-.805.331-3.09.175-4.602-.244-2.354-.854-4.114-2.013-5.805-1.095-1.597-1.892-2.363-3.73-3.583-1.396-.927-3.758-2.04-5.103-2.404-.299-.081-.97-.276-1.492-.433a31.21 31.21 0 00-2.274-.556l-2.282-.466c-.527-.109-1.101-.197-1.277-.198-.34 0-1.2-.115-3.51-.472-1.342-.207-1.729-.257-3.65-.472-.405-.045-1.563-.24-2.572-.432-1.01-.193-2.122-.405-2.472-.47-.843-.16-2.58-.726-3.329-1.083-1.473-.704-2.116-1.773-1.819-3.024.361-1.517 1.776-2.799 3.87-3.507 2.312-.782 3.161-.896 6.661-.895 2.089 0 3.297.063 5.106.264 1.041.116 4.861.893 6.107 1.243a27.99 27.99 0 001.592.406c.263.053.831.215 1.262.362.43.147 1.184.386 1.675.532.49.146 1.267.409 1.725.584.96.367 1.334.4 1.581.142.092-.097.346-.58.563-1.075.217-.494.599-1.339.848-1.876.25-.538.682-1.51.961-2.16.279-.649.622-1.423.762-1.719 1.029-2.181 1.114-2.463.839-2.76-.08-.087-.473-.28-.873-.427-.912-.337-3.701-1.185-4.251-1.292a19.846 19.846 0 01-1.317-.35 28.912 28.912 0 00-1.901-.477 69.482 69.482 0 01-1.914-.432 23.255 23.255 0 00-1.795-.349 17.464 17.464 0 01-1.317-.236c-.489-.122-2.587-.478-3.51-.595-.558-.07-1.041-.107-4.068-.307-1.795-.118-3.439-.15-3.79-.075zM27.341.525c-.027.026-.616.079-1.31.118-2.699.15-3.762.28-5.152.624-.34.085-.981.225-1.424.312-1.594.313-4.513 1.348-6.374 2.26-1.608.787-3.83 2.281-5.534 3.72-1.265 1.069-3.277 3.643-4.456 5.702-.881 1.538-1.876 4.063-2.172 5.511-.066.323-.224 1.08-.352 1.682-.127.603-.273 1.43-.323 1.837l-.169 1.371c-.099.806-.1 4.337-.002 5.023.04.288.114.858.163 1.266.15 1.264.714 4.027.993 4.867 1.147 3.453 1.853 4.802 3.962 7.563 1.382 1.81 3.383 3.65 5.497 5.058 1.305.868 3.689 2.04 5.518 2.712.774.284 1.451.517 1.505.517.054 0 .551.14 1.105.312 1.002.31 3.172.733 4.995.972.527.068 1.198.16 1.491.202.334.048 5.11.077 12.725.077 11.448 0 12.207-.008 12.463-.137.323-.161.462-.408 1.116-1.973a477.205 477.205 0 012.44-5.668c1.024-2.355 1.476-3.463 1.476-3.616a.602.602 0 00-.113-.298c-.111-.148-.369-.152-13.542-.197-13.453-.045-14.831-.074-16.192-.335-1.756-.336-4.347-1.416-5.772-2.405-.79-.55-2.582-2.21-3.11-2.882-.447-.57-1.382-2.06-1.444-2.3-.07-.273.018-.477.25-.58.15-.067 3.467-.09 12.81-.09h12.606l.233-.23.233-.228V21.105l-.233-.228-.233-.229H28.41c-7.7 0-12.683-.029-12.804-.073-.28-.105-.333-.348-.153-.693.568-1.084 1.812-2.702 2.786-3.622.256-.243.841-.746 1.3-1.118 2-1.626 4.636-2.61 8.066-3.013.435-.051 4.647-.08 11.63-.08 9.236 0 10.99-.017 11.216-.11.332-.136.547-.482 1.071-1.728.217-.516.599-1.377.848-1.915.249-.537.572-1.28.718-1.65.145-.369.346-.826.444-1.015.099-.19.332-.714.518-1.165a61.26 61.26 0 01.903-2.033c.584-1.25.65-1.504.456-1.763-.111-.15-.359-.152-14.067-.172-7.674-.011-13.975 0-14.001.027zm34.085.053c-.11.054-.265.221-.344.371-.13.247-.139.417-.09 1.797.03.838.046 2.087.036 2.775-.015.984-.026 8.438-.02 14.19v9.379a17101.525 17101.525 0 010 10.632c-.005 9.265.011 11.62.086 12.448.007.074.118.188.248.254.205.104 1.02.119 6.308.119h6.073l.234-.228.233-.229V35.239c0-10.757.028-16.92.078-17.048.104-.27.41-.264.708.014.127.118.826.901 1.552 1.74a521.42 521.42 0 001.945 2.232c.343.39 1.287 1.48 2.097 2.423.811.944 1.69 1.947 1.955 2.228a115.65 115.65 0 012.076 2.382c.877 1.028 1.83 2.116 2.118 2.419a81.66 81.66 0 011.832 2.075c.72.838 2.262 2.616 3.426 3.95a656.785 656.785 0 013.351 3.87 69.13 69.13 0 001.721 1.952c.267.28 1.008 1.123 1.645 1.876a71.39 71.39 0 001.783 2.032c.343.366 1.151 1.28 1.795 2.033 2.089 2.438 2.317 2.694 2.574 2.892l.253.196 4.813.021 4.813.022.235-.23.235-.231V.936l-.233-.229-.233-.228h-12.311l-.233.228-.233.229V13.51c0 11.255-.013 12.593-.124 12.748-.155.217-.275.22-.544.011-.23-.177-2.081-2.31-4.943-5.695a229.176 229.176 0 00-2.49-2.908c-.74-.83-.951-1.08-2.509-2.96a87.418 87.418 0 00-1.558-1.837c-.27-.301-.9-1.022-1.4-1.603a213.28 213.28 0 01-2.8-3.316c-.582-.697-.658-.786-2.579-3.014-.79-.917-1.627-1.899-1.86-2.183-.996-1.212-1.408-1.67-1.75-1.944L79.03.518 70.328.499c-6.858-.015-8.745.002-8.902.08zM252.53.558c-.176.038-.596.07-.935.073-1.317.01-3.373.28-5.088.668-.636.144-1.319.287-1.516.317-.624.094-3.19.96-4.428 1.493-2.64 1.137-4.829 2.47-6.965 4.244-1.107.918-1.601 1.415-2.555 2.57-1.774 2.146-3.062 4.352-3.969 6.798-.371 1.002-1.024 3.44-1.27 4.748-.393 2.084-.396 7.604-.007 9.991.191 1.17.856 3.636 1.322 4.902.43 1.166 1.754 3.797 2.341 4.651 1.162 1.69 2.699 3.438 3.906 4.439 1.516 1.257 2.964 2.29 4.166 2.969.639.361 2.55 1.278 3.749 1.799 2.075.9 6.657 1.935 9.256 2.09a58.54 58.54 0 012.192.168c.772.084 2.546.058 5.266-.078 1.82-.09 2.277-.152 4.726-.634 4.886-.962 8.898-2.765 12.556-5.644 1.346-1.06 1.844-1.526 2.784-2.609 1.932-2.225 3.474-4.797 4.334-7.23l.515-1.446c.199-.554.843-3.74 1.004-4.968.113-.86.115-5.858.004-6.68-.159-1.162-.407-2.498-.596-3.205a18.357 18.357 0 01-.274-1.182c-.212-1.174-1.547-4.385-2.374-5.713a38.139 38.139 0 01-.572-.954c-.348-.603-1.879-2.518-2.681-3.354-1.172-1.22-3.371-2.925-5.186-4.02-.783-.473-2.439-1.303-3.097-1.553a46.954 46.954 0 01-1.055-.425c-.857-.357-3.22-1.095-3.866-1.208-.285-.05-.798-.16-1.139-.244-1.283-.317-2.203-.475-3.209-.552l-1.954-.152c-1.299-.103-5.004-.15-5.385-.069zm3.949 11.922c.64.056 2.437.344 2.987.478.737.18 2.726.91 3.44 1.262 2.691 1.327 4.879 3.708 5.983 6.508.626 1.59.844 2.464.934 3.75.113 1.609.111 2.793-.004 4.027-.121 1.281-.225 1.746-.723 3.223-.621 1.845-1.477 3.233-2.817 4.567-1.719 1.713-3.188 2.578-5.971 3.517-1.224.414-3.926.801-5.584.801-2.582 0-5.932-.699-7.814-1.63-3.342-1.653-5.553-4.174-6.689-7.625-.388-1.18-.772-3.936-.713-5.12.154-3.093.732-5.263 1.949-7.31 1.507-2.536 3.874-4.398 7.044-5.539.593-.213 1.293-.424 1.556-.47a118.09 118.09 0 013.031-.47c.529-.069 2.438-.052 3.391.031z" fill="#2E56F6"/></svg>