<svg width="272" height="250" viewBox="0 0 272 250" fill="none" xmlns="http://www.w3.org/2000/svg"><path fill-rule="evenodd" clip-rule="evenodd" d="M140.896 1.165a829.767 829.767 0 01-3.47 9.982c-2.032 5.73-2.854 8.114-2.854 8.283 0 .417.288.471 2.475.471h2.174v38.526l-2.167 1.12c-10.564 5.464-19.196 13.592-25.785 24.28-1.659 2.69-2.07 3.426-3.326 5.946-4.072 8.174-6.233 16.281-6.791 25.486-1.041 17.149 3.943 33.237 14.345 46.308 3.552 4.464 7.873 8.65 12.541 12.149 2.024 1.518 5.055 3.58 6.628 4.511.501.296.911.563.911.592 0 .049-7.707 3.898-26.826 13.396l-14.575 7.243-14.639 7.273-14.198 7.054a295609.7 295609.7 0 00-28.46 14.138c-14.393 7.155-20.439 10.141-20.53 10.141-.05 0-.599-1.12-1.219-2.488-.936-2.067-1.169-2.484-1.374-2.465-.136.012-.332.141-.436.285-.187.261-3.486 4.247-9.963 12.036-1.843 2.217-3.352 4.13-3.354 4.252-.003.284-.354.292 7.118-.152 3.444-.204 7.95-.47 10.013-.59 3.576-.209 3.758-.232 3.872-.482.096-.213-.11-.74-1.082-2.763-.66-1.375-1.201-2.524-1.201-2.554 0-.029 1.823-.95 4.052-2.047 2.229-1.096 8.067-3.991 12.973-6.433a12326.73 12326.73 0 0114.325-7.117c2.971-1.472 8.908-4.419 13.193-6.549 4.284-2.13 10.447-5.19 13.696-6.802 3.248-1.611 9.072-4.502 12.941-6.424 3.87-1.922 9.694-4.813 12.942-6.424 3.248-1.611 9.129-4.53 13.068-6.487 3.939-1.956 9.311-4.62 11.937-5.92a3075.01 3075.01 0 009.351-4.65c2.709-1.355 4.658-2.258 4.775-2.214.109.04 1.922 1.014 4.03 2.164l7.414 4.04 5.717 3.114c1.174.641 2.503 1.364 2.952 1.607l5.278 2.871c2.453 1.336 5.732 3.118 7.287 3.961 1.555.844 3.506 1.906 4.335 2.361.83.455 3.204 1.747 5.278 2.871 2.073 1.124 5.041 2.738 6.596 3.586 4.941 2.695 7.197 3.922 8.23 4.476.553.297 2.221 1.202 3.707 2.013 1.486.81 4.398 2.396 6.471 3.523 2.073 1.127 5.07 2.759 6.659 3.626 1.59.866 3.23 1.758 3.644 1.981.862.463 5.577 3.026 9.738 5.292l5.215 2.838 2.889 1.573 1.32.716c8.052 4.358 17.607 9.552 17.696 9.62.023.017-.415.848-.974 1.845-.559.997-1.016 1.905-1.016 2.018 0 .266-.352.224 8.733 1.039 4.215.378 7.93.718 8.254.756.566.067.589.058.565-.242-.021-.272-1.554-2.294-6.935-9.145a960.332 960.332 0 01-2.136-2.741c-.775-.999-1.474-1.783-1.591-1.786-.215-.005-.399.255-1.112 1.57-.225.416-.545.991-.711 1.278l-.301.523-1.221-.664a13572.82 13572.82 0 01-11.335-6.174 3433.594 3433.594 0 00-9.487-5.164c-.414-.223-2.054-1.114-3.644-1.981-1.589-.866-5.575-3.037-8.858-4.823l-8.858-4.823c-1.59-.866-3.23-1.757-3.644-1.98-.76-.408-4.184-2.273-9.455-5.147-2.926-1.596-4.49-2.447-10.963-5.966a1750.026 1750.026 0 01-4.272-2.328 199.94 199.94 0 00-1.383-.753l-3.769-2.049a8453.705 8453.705 0 00-13.57-7.376c-2.592-1.406-4.768-2.606-4.836-2.667-.071-.063 1.111-.074 2.764-.027 12.45.357 24.299-2.583 35.306-8.759 7.953-4.463 15.49-11.157 21.137-18.774a68.072 68.072 0 0012.522-29.537c.685-4.136.764-5.286.765-11.022 0-5.712-.065-6.652-.752-10.919-2.866-17.795-12.843-33.927-27.42-44.334-9.365-6.686-19.769-10.727-31.068-12.065-10.221-1.21-21.762.065-30.837 3.409-.824.303-1.545.552-1.602.552-.057 0-.104-8.134-.104-18.075V19.902h2.054c2.752 0 2.663.111 1.758-2.205-.379-.97-1.246-3.237-1.927-5.038-.68-1.801-2.033-5.367-3.006-7.923a414.024 414.024 0 01-1.769-4.692c0-.024-.101-.044-.224-.044-.17 0-.317.278-.614 1.165zm33.61 56.345c11.476 1.1 22.44 5.423 31.917 12.582 7.429 5.611 13.716 13.05 17.603 20.83.358.716.633 1.351.612 1.41-.021.06-1.336 1.43-2.922 3.044s-4.442 4.523-6.345 6.463l-7.107 7.242c-4.343 4.426-9.044 9.22-18.28 18.643l-10.492 10.7c-3.525 3.592-6.963 7.1-14.073 14.359l-6.973 7.119c-5.183 5.29-9.859 10.067-11.87 12.127-.964.987-1.798 1.795-1.853 1.795-.054 0-.085-25.124-.068-55.831l.032-55.83 1.57-.673c2.849-1.22 6.977-2.498 10.239-3.17 2.33-.481 5.956-.883 9.551-1.06 1.658-.082 6.488.06 8.459.25zm-35.285 62.156v54.796l-.283-.15c-.155-.083-1.046-.604-1.979-1.159-9.073-5.394-16.784-13.245-22.074-22.476-4.804-8.382-7.476-17.088-8.216-26.766-.188-2.465-.087-8.276.186-10.717.86-7.694 2.909-14.736 6.201-21.318a62.909 62.909 0 0119.568-22.991c1.974-1.42 6.093-3.982 6.44-4.006.125-.008.157 11.028.157 54.787zm87.863-22.08c.034.122.378 1.242.765 2.489 1.596 5.146 2.566 9.86 3.031 14.733.22 2.302.252 7.241.061 9.388-.223 2.51-.84 6.488-1.348 8.691l-.218.945-.88.441c-1.363.685-7.922 3.873-24.816 12.062-1.071.519-3.05 1.482-4.397 2.139a701.068 701.068 0 01-3.833 1.858c-.76.365-2.513 1.215-3.895 1.889-1.382.674-4.068 1.978-5.968 2.897-1.901.919-4.586 2.224-5.968 2.898a646.739 646.739 0 01-3.896 1.888c-.76.364-3.389 1.64-5.842 2.834-2.454 1.195-4.97 2.414-5.592 2.71a638.07 638.07 0 00-4.254 2.063c-1.717.839-3.178 1.526-3.246 1.526-.067 0-.104-.051-.081-.113.023-.062 3.292-3.42 7.265-7.463 3.972-4.042 10.389-10.581 14.259-14.53 3.871-3.948 8.678-8.85 10.683-10.892 4.734-4.822 12.115-12.349 21.555-21.983 14.182-14.474 16.369-16.69 16.469-16.69.046 0 .111.1.146.22zm-.049 44.024a116.66 116.66 0 00-.573 1.474c-1.287 3.39-3.873 8.038-6.695 12.035-3.218 4.558-8.572 10.058-13.323 13.687-6.185 4.724-13.199 8.354-20.397 10.554-6.189 1.892-11.126 2.652-17.235 2.652-6.3.001-11.646-.818-18.544-2.84-1.876-.549-2.193-.673-2.052-.802.063-.058 1.641-.828 3.507-1.711 1.866-.883 3.986-1.889 4.712-2.235.726-.347 2.337-1.111 3.581-1.698 1.244-.587 3.859-1.828 5.811-2.756 6.38-3.035 10.634-5.053 11.466-5.441a386.54 386.54 0 002.387-1.13c.864-.413 2.023-.964 2.576-1.226l4.658-2.212c2.009-.955 4.497-2.132 5.529-2.614a425.393 425.393 0 003.509-1.664 481.01 481.01 0 013.581-1.698 2995.37 2995.37 0 0011.434-5.409c1.417-.673 3.933-1.868 5.592-2.654 1.658-.787 4.683-2.225 6.722-3.196 2.039-.971 3.776-1.769 3.862-1.772.109-.004.076.192-.108.656z" fill="#2E56F6"/></svg>