<svg width="1083" height="997" viewBox="0 0 1083 997" fill="none" xmlns="http://www.w3.org/2000/svg"><path opacity=".05" fill-rule="evenodd" clip-rule="evenodd" d="M560.67 4.86c-2.436 7.284-9.133 26.569-13.809 39.767-8.087 22.823-11.357 32.323-11.357 32.996 0 1.66 1.145 1.878 9.85 1.878h8.65v153.47l-8.625 4.466c-42.037 21.767-76.384 54.146-102.603 96.722-6.602 10.72-8.239 13.649-13.236 23.689-16.206 32.561-24.804 64.859-27.026 101.528-4.14 68.315 15.692 132.407 57.085 184.48 14.135 17.783 31.329 34.458 49.905 48.399 8.055 6.045 20.116 14.262 26.375 17.969 1.994 1.181 3.625 2.243 3.625 2.36 0 .196-30.669 15.527-106.75 53.364-15.4 7.66-41.5 20.643-58 28.853s-42.712 21.249-58.25 28.977l-56.5 28.099c-15.537 7.728-40.4 20.091-55.25 27.474-14.85 7.384-40.95 20.366-58 28.851-57.274 28.5-81.332 40.396-81.697 40.396-.2 0-2.381-4.46-4.848-9.91-3.728-8.235-4.652-9.895-5.47-9.821-.542.05-1.322.561-1.735 1.137-.743 1.037-13.873 16.917-39.646 47.949C6.024 986.784.018 994.405.013 994.888c-.011 1.135-1.41 1.165 28.325-.602 13.704-.815 31.634-1.874 39.845-2.353 14.228-.831 14.951-.922 15.405-1.921.385-.848-.436-2.947-4.304-11.007-2.629-5.477-4.78-10.055-4.78-10.172 0-.117 7.257-3.787 16.125-8.155 8.87-4.368 32.1-15.901 51.625-25.627a47971.754 47971.754 0 0157-28.351c11.825-5.866 35.45-17.608 52.5-26.091 17.05-8.484 41.575-20.678 54.5-27.096 12.925-6.42 36.1-17.936 51.5-25.593 15.4-7.656 38.575-19.173 51.5-25.592 12.925-6.419 36.325-18.047 52-25.841 15.675-7.793 37.05-18.406 47.5-23.584 10.45-5.177 27.196-13.514 37.212-18.527 10.78-5.395 18.534-8.994 19-8.819.434.161 7.651 4.04 16.038 8.62 8.388 4.58 21.663 11.822 29.5 16.095 7.838 4.271 18.075 9.855 22.75 12.406 4.675 2.552 9.963 5.433 11.75 6.403 1.788.97 11.238 6.116 21 11.436a25768.02 25768.02 0 0029 15.782c6.188 3.359 13.95 7.59 17.25 9.402 3.3 1.812 12.75 6.96 21 11.439s20.063 10.908 26.25 14.287c19.662 10.736 28.638 15.623 32.75 17.831 2.2 1.181 8.838 4.789 14.75 8.017 5.913 3.228 17.5 9.544 25.75 14.035s20.175 10.991 26.5 14.444c6.325 3.453 12.85 7.005 14.5 7.894 3.428 1.846 22.192 12.054 38.75 21.081 6.188 3.373 15.525 8.46 20.75 11.305 5.225 2.845 10.4 5.665 11.5 6.266 1.1.602 3.463 1.886 5.25 2.855 32.044 17.359 70.066 38.051 70.416 38.322.09.07-1.65 3.379-3.87 7.351-2.23 3.972-4.05 7.589-4.05 8.038 0 1.06-1.4.894 34.75 4.139 16.78 1.505 31.56 2.862 32.85 3.014 2.25.265 2.34.228 2.25-.965-.08-1.084-6.18-9.139-27.6-36.431-1.65-2.103-5.47-7.017-8.5-10.919-3.08-3.98-5.86-7.104-6.33-7.115-.86-.02-1.59 1.015-4.42 6.253-.9 1.656-2.17 3.948-2.83 5.093l-1.2 2.082-4.86-2.644c-8.66-4.714-33.566-18.295-45.106-24.595-24.151-13.182-34.87-19.025-37.75-20.575-1.65-.888-8.175-4.438-14.5-7.889a73830.681 73830.681 0 00-35.25-19.216 99890.712 99890.712 0 01-35.25-19.213 5089.21 5089.21 0 00-14.5-7.887c-3.023-1.627-16.65-9.054-37.625-20.505a32041.305 32041.305 0 00-43.625-23.767 6965.727 6965.727 0 01-17-9.273 835.58 835.58 0 00-5.5-3.002c-1.787-.966-8.537-4.639-15-8.16a35151.85 35151.85 0 00-54-29.387c-10.312-5.6-18.971-10.38-19.242-10.621-.283-.252 4.421-.298 11-.109 49.539 1.42 96.692-10.292 140.492-34.896 31.647-17.776 61.638-44.444 84.108-74.788 25.809-34.852 42.746-74.848 49.83-117.67 2.725-16.475 3.043-21.058 3.044-43.906.002-22.755-.256-26.501-2.99-43.499-11.405-70.891-51.108-135.157-109.113-176.614-37.269-26.638-78.668-42.733-123.629-48.065-40.673-4.823-86.598.259-122.711 13.58-3.279 1.209-6.148 2.198-6.375 2.198-.228 0-.414-32.402-.414-72.006V79.501h8.173c10.951 0 10.597.445 6.995-8.781-1.508-3.864-4.958-12.896-7.665-20.072a17189.32 17189.32 0 00-11.963-31.564c-3.872-10.185-7.04-18.596-7.04-18.692 0-.095-.401-.173-.891-.173-.678 0-1.261 1.106-2.443 4.641zm133.743 224.463c45.667 4.386 89.295 21.603 127.009 50.122 29.563 22.354 54.58 51.992 70.047 82.984 1.424 2.853 2.521 5.382 2.437 5.62-.083.237-5.316 5.693-11.629 12.124-6.312 6.43-17.674 18.015-25.25 25.744a203136.751 203136.751 0 00-101.023 103.119 169027.24 169027.24 0 01-41.75 42.626 94820.188 94820.188 0 00-56 57.205c-7.425 7.588-19.912 20.35-27.75 28.358a50901.585 50901.585 0 00-47.233 48.311c-3.836 3.933-7.153 7.15-7.371 7.15-.218 0-.34-100.086-.271-222.415l.125-222.415 6.25-2.678c11.337-4.858 27.76-9.949 40.743-12.63 9.27-1.914 23.699-3.517 38.007-4.222 6.597-.326 25.818.244 33.659.997zM554.004 476.935V695.23l-1.125-.599c-.618-.329-4.162-2.406-7.875-4.616-36.107-21.489-66.79-52.765-87.841-89.537-19.116-33.392-29.75-68.077-32.692-106.63-.749-9.82-.35-32.97.737-42.693 3.425-30.653 11.577-58.707 24.677-84.926 18.256-36.538 44.826-67.79 77.869-91.591 7.852-5.655 24.244-15.862 25.625-15.956.499-.034.625 43.929.625 218.253zm349.632-87.956c.137.483 1.508 4.943 3.047 9.91 6.35 20.503 10.209 39.282 12.062 58.695.875 9.169 1.003 28.846.243 37.398-.889 9.998-3.346 25.848-5.367 34.623l-.867 3.764-3.5 1.759c-5.424 2.728-31.526 15.429-98.75 48.05-4.262 2.069-12.137 5.904-17.5 8.523a3215.08 3215.08 0 01-15.25 7.402c-3.025 1.453-10 4.838-15.5 7.524s-16.187 7.879-23.75 11.542a9078.773 9078.773 0 00-23.75 11.545 2859.22 2859.22 0 01-15.5 7.522c-3.025 1.449-13.487 6.53-23.25 11.288-9.762 4.76-19.775 9.617-22.25 10.794-2.475 1.178-10.092 4.877-16.927 8.221-6.836 3.344-12.648 6.079-12.917 6.079-.269 0-.414-.202-.322-.45.091-.248 13.1-13.626 28.907-29.731a76023.303 76023.303 0 0056.743-57.882 88677.947 88677.947 0 0142.509-43.394c18.84-19.209 48.209-49.194 85.774-87.573 56.436-57.66 65.138-66.487 65.536-66.487.182 0 .443.395.579.878zm-.195 175.375a470.504 470.504 0 00-2.278 5.875c-5.121 13.505-15.411 32.021-26.641 47.942-12.807 18.157-34.112 40.069-53.018 54.527-24.609 18.82-52.523 33.28-81.167 42.045-24.628 7.537-44.273 10.564-68.583 10.565-25.068.001-46.341-3.261-73.791-11.314-7.465-2.19-8.725-2.684-8.165-3.198.251-.231 6.531-3.297 13.956-6.815a8427.075 8427.075 0 0018.75-8.905c2.888-1.38 9.3-4.423 14.25-6.763 4.95-2.34 15.357-7.28 23.125-10.979 25.388-12.089 42.315-20.13 45.625-21.675 1.788-.833 6.063-2.86 9.5-4.502 3.438-1.643 8.05-3.841 10.25-4.884 2.2-1.043 10.541-5.009 18.536-8.813 7.994-3.805 17.894-8.49 22-10.413a1645.635 1645.635 0 0013.964-6.627c3.575-1.722 9.988-4.767 14.25-6.766 8.163-3.827 28.288-13.357 45.5-21.547 5.638-2.682 15.65-7.441 22.25-10.574s18.638-8.863 26.75-12.732c8.113-3.869 15.028-7.045 15.368-7.058.433-.016.304.766-.431 2.611z" fill="#000"/></svg>