<svg width="661" height="628" viewBox="0 0 661 628" fill="none" xmlns="http://www.w3.org/2000/svg"><path fill-rule="evenodd" clip-rule="evenodd" d="M329.616 1.32c-.815.725-2.626 2.084-4.025 3.02-1.399.935-3.041 2.116-3.65 2.624a34.346 34.346 0 01-2.287 1.723c-.65.44-1.639 1.164-2.198 1.609-.963.767-1.65 1.283-5.095 3.828a98.988 98.988 0 00-2.533 1.94c-1.224.984-3.333 2.572-5.299 3.99a47.002 47.002 0 00-2.611 2.062c-.696.6-1.604 1.325-2.017 1.61-.413.284-1.322.99-2.019 1.567-.697.578-1.637 1.285-2.089 1.572-.452.286-1.474 1.114-2.27 1.84-.797.725-1.962 1.648-2.59 2.05-.627.403-1.74 1.292-2.473 1.976-.734.683-1.721 1.477-2.193 1.764-.472.287-1.476 1.085-2.231 1.773-.754.688-1.902 1.604-2.55 2.036-.648.432-1.818 1.386-2.6 2.12-.782.734-1.905 1.663-2.495 2.065-.591.402-1.999 1.575-3.13 2.605-1.13 1.031-2.359 2.06-2.73 2.287-.372.227-1.814 1.465-3.205 2.751-1.391 1.287-2.946 2.606-3.456 2.932-.509.326-1.998 1.596-3.307 2.822-1.31 1.225-2.777 2.516-3.261 2.869-.483.352-2.473 2.135-4.422 3.96-1.948 1.826-3.977 3.619-4.508 3.984-.532.365-3.524 3.131-6.649 6.148-3.126 3.017-6.362 6.02-7.193 6.674-2.243 1.766-25.695 25.308-27.222 27.327-.717.948-3.517 4.013-6.221 6.81-2.704 2.798-5.128 5.438-5.386 5.869-.259.43-1.587 1.974-2.952 3.431-1.365 1.458-3.101 3.426-3.857 4.375-.756.949-2.234 2.647-3.283 3.774-1.049 1.126-2.232 2.553-2.628 3.17-.396.616-1.384 1.829-2.196 2.695-.812.866-1.881 2.131-2.376 2.811-.495.68-1.44 1.845-2.101 2.588-.661.742-1.496 1.787-1.856 2.321-.36.533-1.294 1.746-2.074 2.695-1.454 1.766-3.155 3.977-5.058 6.574-.59.806-1.46 1.96-1.932 2.564-.473.604-1.457 1.9-2.188 2.88-.731.981-1.816 2.414-2.41 3.184-.595.771-1.923 2.664-2.95 4.205-1.028 1.542-2.218 3.24-2.646 3.774-1.295 1.618-4.432 6.256-8.815 13.034-1.244 1.923-2.605 3.977-3.025 4.564-.419.586-1.175 1.84-1.679 2.785-.504.946-1.225 2.156-1.601 2.69a23.043 23.043 0 00-1.306 2.156 23.58 23.58 0 01-1.303 2.157c-.374.533-1.047 1.649-1.496 2.48-.449.83-1.117 1.946-1.485 2.479-.368.534-1.237 2.084-1.931 3.444a106.354 106.354 0 01-2.335 4.313c-1.4 2.399-5.055 9.31-6.732 12.729-.728 1.482-2.901 5.903-4.831 9.824-1.929 3.92-3.794 7.899-4.144 8.841-.35.942-1.195 2.843-1.879 4.225-.683 1.383-1.243 2.575-1.243 2.65 0 .188-2.212 5.836-3.215 8.207-.451 1.067-.885 2.183-.964 2.48-.079.296-.471 1.315-.871 2.264a67.609 67.609 0 00-2.306 6.258c-.3.951-.99 2.892-1.533 4.312a609.653 609.653 0 00-1.39 3.662c-.643 1.726-2.612 7.953-2.607 8.246.002.147-.23.972-.516 1.833-.782 2.354-1.36 4.474-1.508 5.523-.072.517-.273 1.214-.446 1.551-.173.336-.412 1.272-.53 2.08-.118.807-.355 1.856-.528 2.33a6.425 6.425 0 00-.323 1.773c-.005.5-.251 1.653-.546 2.561-.361 1.11-.54 2.155-.547 3.187-.005.85-.158 1.921-.342 2.399-.213.552-.396 2.103-.509 4.312-.134 2.623-.284 3.746-.624 4.685-.43 1.184-.448 1.639-.448 11.131 0 9.478.02 9.955.452 11.273.313.954.505 2.301.625 4.394.104 1.795.309 3.369.506 3.882.182.474.335 1.553.34 2.398.007 1.032.186 2.077.547 3.187.295.909.536 1.83.536 2.048 0 .218.194 1.004.43 1.747.236.742.433 1.652.439 2.023.005.37.16 1.06.343 1.535.184.474.47 1.467.636 2.206.684 3.052 3.414 10.672 5.004 13.967.458.948 1.06 2.349 1.338 3.113.667 1.83 3.71 8.071 4.356 8.932.279.372.965 1.55 1.524 2.618.883 1.684 2.803 4.871 3.961 6.577.201.296 1.207 1.792 2.235 3.324 1.028 1.532 2.235 3.231 2.681 3.774a31.726 31.726 0 011.494 1.999c.375.556 1.452 1.845 2.392 2.865.941 1.019 2.046 2.359 2.456 2.978.924 1.392 13.208 13.689 14.449 14.463.497.31 1.709 1.326 2.693 2.257s2.343 2.049 3.021 2.484c.677.435 1.639 1.169 2.138 1.63.498.461 1.858 1.473 3.022 2.249 1.164.776 2.758 1.906 3.543 2.512 1.564 1.207 3.334 2.378 5.866 3.879a256.885 256.885 0 016.79 4.189c1.929 1.232 22.602 11.675 23.552 11.897.355.083 1.804.687 3.221 1.341 1.417.656 3.108 1.364 3.757 1.574 1.817.587 5.614 2.03 6.34 2.408.358.186 1.179.484 1.825.662.646.178 2.727.862 4.624 1.519 1.897.657 4.071 1.332 4.831 1.5.76.167 2.203.567 3.207.887 1.795.573 3.906 1.131 6.656 1.76.767.176 1.906.51 2.531.742.624.233 1.409.423 1.743.423.334 0 1.213.194 1.952.431.739.237 1.72.431 2.179.431.459 0 1.527.243 2.371.54.901.315 2.032.542 2.734.548.658.005 1.583.155 2.056.333.472.178 1.777.412 2.898.521 1.122.109 2.593.396 3.269.638.842.301 1.763.439 2.925.439 1.054 0 2.172.152 2.957.401.772.244 2.264.449 3.839.528 1.701.084 3.042.278 3.946.57 1.2.387 1.922.442 5.823.442 3.862 0 4.632.057 5.797.431 1.297.416 1.936.432 18.035.432 16.1 0 16.739-.016 18.036-.432 1.141-.366 1.935-.431 5.26-.431 3.294 0 4.125-.067 5.229-.421.722-.232 2.304-.488 3.517-.57 1.212-.082 2.772-.329 3.466-.549.787-.25 1.902-.401 2.958-.401 1.157 0 2.085-.139 2.924-.438.676-.241 2.099-.528 3.162-.639 1.063-.11 2.319-.345 2.791-.522.472-.178 1.218-.327 1.656-.332.438-.005 1.308-.2 1.932-.432 1.073-.399 2.793-.837 5.215-1.327.59-.119 1.701-.411 2.469-.648a41.343 41.343 0 012.684-.713c.708-.155 2.109-.544 3.113-.863a68.948 68.948 0 013.082-.9c1.689-.431 4.022-1.219 5.721-1.932.768-.322 2.7-1.05 4.294-1.617 4.56-1.622 6.883-2.533 8.159-3.199.649-.34 1.813-.825 2.586-1.078 3.064-1.003 13.518-6.701 13.84-7.542.227-.596-.252-.766-1.408-.498-.602.14-1.692.259-2.42.264-.73.005-1.713.155-2.185.332-.472.178-1.783.411-2.913.518-1.13.106-2.482.351-3.006.542-.536.197-2.17.43-3.743.535-1.535.102-3.177.326-3.65.498-.472.172-2.094.375-3.604.452-1.678.086-3.097.274-3.65.486-.67.255-2.13.387-5.628.506-3.855.132-4.901.235-5.69.562-.914.379-1.907.4-18.572.402l-17.606.001-1.369-.481c-1.192-.419-1.806-.481-4.724-.481-2.69 0-3.647-.084-4.828-.423-.81-.233-2.452-.489-3.649-.57-1.197-.081-2.745-.327-3.439-.547-.746-.237-1.898-.401-2.817-.401-.935 0-2.062-.163-2.829-.409-.701-.225-2.042-.48-2.98-.568-.938-.087-2.274-.339-2.968-.561-.694-.221-1.523-.403-1.841-.403-.319 0-1.27-.242-2.115-.539-.845-.296-1.912-.539-2.372-.539-.459 0-1.44-.194-2.179-.431-.739-.237-1.563-.432-1.83-.432-.267 0-1.149-.206-1.958-.459a43.548 43.548 0 00-2.653-.73c-2.46-.563-11.934-3.762-14.385-4.857-1.004-.448-2.308-.97-2.899-1.159-.59-.188-3.923-1.777-7.407-3.529-5.232-2.632-7.137-3.725-10.95-6.278-2.539-1.7-5.024-3.468-5.522-3.928-.499-.46-1.465-1.191-2.147-1.624-1.308-.83-10.915-10.24-11.997-11.751-.343-.479-1.16-1.565-1.815-2.415-1.169-1.515-2.965-4.118-4.658-6.753-1.468-2.282-5.373-10.415-6.301-13.121-1.293-3.769-1.93-5.855-2.272-7.439a22.837 22.837 0 00-.723-2.542c-.231-.627-.421-1.609-.421-2.182 0-.574-.179-1.613-.399-2.31-.219-.698-.464-2.252-.545-3.454-.08-1.202-.335-2.851-.567-3.665-.391-1.375-.421-2.191-.421-11.508 0-9.377.028-10.126.429-11.534.262-.922.482-2.553.567-4.204.086-1.661.293-3.186.538-3.967.219-.697.398-1.772.398-2.388 0-.64.23-1.782.537-2.664.295-.848.537-1.92.537-2.381 0-.461.193-1.446.429-2.189.236-.742.43-1.63.43-1.972 0-.343.241-1.318.536-2.166.296-.849.535-1.696.533-1.883-.005-.376 1.817-6.144 2.904-9.194a70.045 70.045 0 001.055-3.194c.197-.683.638-1.759.979-2.392.342-.633.731-1.573.865-2.089.135-.516.755-2.053 1.379-3.417.624-1.364 1.257-2.868 1.407-3.342.325-1.034 2.696-5.97 7.353-15.311 4.29-8.606 5.382-10.688 6.391-12.183a27.592 27.592 0 001.499-2.588c.384-.771 1.005-1.838 1.381-2.372.375-.533 1.056-1.649 1.513-2.48a43.603 43.603 0 011.624-2.695c.436-.652 1.01-1.623 1.275-2.156.264-.534 1.22-2.068 2.123-3.41a165.094 165.094 0 002.342-3.558 60.741 60.741 0 011.874-2.736c1.134-1.563 2.577-3.639 4.718-6.792.564-.831 1.268-1.772 1.566-2.091.297-.32.986-1.209 1.531-1.976 2.089-2.938 3.193-4.367 4.758-6.157.891-1.019 1.855-2.24 2.142-2.715.287-.474 1.222-1.615 2.077-2.535.855-.92 1.939-2.241 2.408-2.935.47-.694 2.482-2.949 4.473-5.012 1.991-2.062 4.041-4.332 4.556-5.043 1.216-1.679 11.752-12.261 13.427-13.487.709-.518 2.979-2.584 5.046-4.591 2.066-2.007 4.337-4.043 5.045-4.523.709-.481 2.206-1.76 3.328-2.843 1.122-1.083 2.523-2.297 3.113-2.699.591-.401 1.965-1.463 3.053-2.358 2.461-2.025 6.494-5.11 9.6-7.344.742-.533 1.68-1.264 2.085-1.623.404-.359 1.408-1.109 2.231-1.665.823-.557 2.317-1.597 3.321-2.311 3.925-2.795 16.304-10.878 17.893-11.684a17.433 17.433 0 001.86-1.144c.531-.381 1.739-1.11 2.684-1.622.945-.512 2.254-1.296 2.91-1.741 1.547-1.051 19.271-9.947 20.815-10.448.649-.211 2.147-.85 3.328-1.419 1.181-.57 3.548-1.512 5.262-2.094 1.713-.581 3.449-1.231 3.859-1.444 1.024-.532 4.074-1.564 6.015-2.036a63.311 63.311 0 003.436-.97c2.192-.694 4.654-1.368 6.119-1.674.59-.124 1.828-.456 2.751-.738.922-.283 1.9-.514 2.172-.514.273 0 1.101-.194 1.84-.431.76-.244 1.935-.431 2.705-.431.87 0 1.954-.195 3.006-.539 1.271-.417 2.093-.539 3.628-.539 1.338 0 2.396-.131 3.247-.401 1.048-.333 2.305-.427 7.405-.551 4.223-.103 6.505-.247 7.3-.459 1.463-.391 2.358-.39 3.83.003.812.217 3.045.358 7.3.46 5.091.122 6.344.215 7.393.547 1.64.52 4.966.558 5.668.065.262-.185.477-.542.477-.794 0-.532-1.296-2.626-2.997-4.842a73.262 73.262 0 01-2.156-2.984 84.477 84.477 0 00-1.877-2.654 97.118 97.118 0 01-2.081-2.95c-.643-.951-1.426-1.97-1.74-2.264-.315-.294-.992-1.166-1.505-1.937-.89-1.337-1.295-1.886-4.139-5.606-.68-.89-1.405-1.886-1.611-2.215-.206-.328-.962-1.248-1.68-2.043-.717-.796-1.633-1.962-2.034-2.592-.401-.63-1.3-1.761-1.996-2.513-.697-.752-1.511-1.756-1.809-2.23-.299-.475-1.137-1.53-1.862-2.344-.726-.815-1.619-1.918-1.986-2.452-.366-.533-1.421-1.785-2.344-2.78-.923-.997-2.037-2.355-2.476-3.02-.439-.664-1.534-1.984-2.433-2.933-.9-.949-2.057-2.307-2.572-3.019-.515-.711-1.94-2.4-3.166-3.75-1.225-1.351-2.462-2.828-2.747-3.283-.286-.454-1.982-2.357-3.769-4.228-1.787-1.871-3.524-3.83-3.861-4.353-.336-.524-2.784-3.213-5.44-5.977-2.656-2.765-5.089-5.442-5.408-5.95-1.012-1.613-41.869-42.663-44.207-44.416-.823-.617-3.443-3.043-5.822-5.391C332.97.17 332.762 0 331.946 0c-.735 0-1.048.177-2.33 1.32zm73.945 175.286c-.839.277-2.225.452-4.402.556-2.132.101-3.593.283-4.44.552-.83.264-1.905.401-3.14.401-1.42 0-2.276.131-3.521.539-.904.297-1.822.539-2.039.539-.217 0-1 .195-1.739.432-.739.237-1.818.431-2.396.431-.579 0-1.412.156-1.851.347-.81.353-2.585.882-5.307 1.582-3.89 1-8.423 2.667-14.767 5.431-1.627.709-3.321 1.417-3.765 1.575-1.355.48-8.446 4.041-9.702 4.873-.65.429-1.954 1.197-2.899 1.706a55.423 55.423 0 00-3.435 2.057c-.945.622-2.442 1.598-3.328 2.169a110.313 110.313 0 00-4.187 2.795c-.826.571-2.651 1.814-4.054 2.76-1.404.946-3.046 2.122-3.65 2.613a37.237 37.237 0 01-1.85 1.41c-.413.284-1.524 1.165-2.469 1.956-.945.791-2.007 1.623-2.361 1.848-.353.225-1.658 1.319-2.898 2.431-1.241 1.112-2.639 2.267-3.108 2.566-.469.3-1.776 1.432-2.903 2.516-1.128 1.084-2.774 2.515-3.657 3.179-1.959 1.473-15.758 15.385-16.749 16.888-.392.593-1.937 2.339-3.434 3.881-1.498 1.542-2.977 3.212-3.288 3.711-.311.499-1.17 1.605-1.91 2.458-.74.852-1.78 2.16-2.311 2.906-1.678 2.354-3.091 4.23-3.787 5.03-.803.923-2.112 2.814-5.162 7.459a741.153 741.153 0 01-3.905 5.882c-.901 1.338-2.172 3.376-2.824 4.529-.652 1.152-1.49 2.539-1.863 3.082-.372.542-1.003 1.658-1.4 2.479-1.267 2.618-3.877 7.489-4.707 8.785-.442.69-.966 1.757-1.165 2.372-.199.616-1.111 2.671-2.027 4.569-1.964 4.065-2.912 6.224-3.126 7.116-.085.356-.466 1.278-.845 2.049-.38.77-.865 1.935-1.077 2.587-.213.653-.71 1.863-1.104 2.69-.394.826-.717 1.627-.717 1.778 0 .389-.787 2.652-1.67 4.805-.979 2.385-1.718 4.536-2.114 6.145-.335 1.365-1.762 6.081-2.446 8.087-.38 1.111-.79 2.757-1.318 5.283-.124.593-.457 1.807-.74 2.699-.283.892-.515 1.825-.515 2.074 0 .25-.193 1.061-.429 1.804-.236.742-.43 1.727-.43 2.188 0 .461-.241 1.533-.536 2.381-.315.905-.541 2.041-.547 2.746-.005.661-.153 1.59-.328 2.065-.176.474-.406 1.654-.512 2.622-.107.969-.36 2.085-.564 2.48-.248.48-.42 1.513-.518 3.096-.081 1.307-.277 2.617-.434 2.911-.168.313-.345 1.655-.427 3.23-.106 2.061-.236 2.874-.552 3.451-.392.717-.416 1.396-.473 13.666-.053 11.518-.023 12.969.282 13.437.22.337.504.5.793.457.466-.069.398.118 2.874-7.83.295-.948.717-2.404.937-3.234.736-2.774 1.073-3.86 2.276-7.332.658-1.897 1.372-4.032 1.588-4.744a50.09 50.09 0 01.969-2.803c.318-.83.751-2.092.963-2.803a25.42 25.42 0 01.969-2.588c.321-.712.806-1.925 1.078-2.695.271-.771.925-2.324 1.452-3.451.527-1.126 1.08-2.436 1.229-2.911.319-1.017 2.231-5.032 6.005-12.614 3.571-7.173 4.799-9.495 5.678-10.735.397-.56 1.035-1.648 1.419-2.419a28 28 0 011.488-2.588c.435-.652 1.193-1.817 1.684-2.587 1.105-1.735 3.921-5.957 5.035-7.548.457-.652 1.381-1.975 2.054-2.941 2.749-3.944 4.019-5.636 5.077-6.762.612-.653 1.482-1.769 1.931-2.48.45-.712 1.806-2.313 3.013-3.558 1.207-1.245 2.518-2.75 2.913-3.342.959-1.441 13.009-13.637 14.517-14.693.654-.458 2.267-1.808 3.584-2.999 1.316-1.191 2.78-2.4 3.252-2.686.473-.287 1.391-1.022 2.04-1.635 2.465-2.327 8.128-5.859 14.71-9.176 3.423-1.725 6.852-3.339 7.619-3.587.768-.247 3.087-1.038 5.153-1.757 2.067-.719 4.011-1.308 4.32-1.309.31-.002 1.168-.197 1.907-.434.739-.237 1.742-.431 2.228-.431.487 0 1.722-.247 2.744-.549l1.859-.55 9.843.076c8.768.067 9.946.116 10.793.454.524.208 1.877.465 3.006.572 1.13.107 2.441.339 2.914.517.472.178 1.149.328 1.505.333.355.005 1.756.396 3.113.868s3.006.959 3.664 1.081c.659.122 2.06.608 3.113 1.079 1.054.471 2.042.858 2.197.86.154.001 1.265.429 2.469.95 1.204.522 2.43 1.017 2.725 1.102 1.009.29 8.049 3.83 9.266 4.659.668.455 2.359 1.425 3.757 2.156 1.399.731 2.882 1.588 3.295 1.906.413.317 1.621 1.14 2.684 1.829 2.071 1.343 2.852 1.896 4.591 3.25 3.367 2.621 4.343 3.352 5.199 3.893.52.328 1.863 1.485 2.985 2.57 1.121 1.085 2.764 2.512 3.65 3.171 1.971 1.467 12.307 11.732 13.313 13.223.4.593 1.798 2.248 3.105 3.676 1.308 1.429 2.762 3.144 3.232 3.812.47.668 1.627 2.088 2.572 3.156 1.659 1.875 2.627 3.123 4.566 5.889a32.34 32.34 0 001.793 2.307c.482.549 1.126 1.436 1.431 1.969.305.534.828 1.326 1.163 1.761.952 1.237 2.078 2.842 5.647 8.051 1.206 1.76 1.359 1.99 2.94 4.42.655 1.008 1.431 2.27 1.723 2.804a88.792 88.792 0 001.73 2.911c2.602 4.216 3.102 5.044 4.423 7.331 2.323 4.021 3.593 6.428 7.223 13.693 5.264 10.537 7.756 15.695 8.335 17.251.595 1.599 1.593 4.046 3.299 8.086 1.278 3.028 3.376 8.755 3.618 9.875.082.381.466 1.325.853 2.1.387.775.817 1.842.955 2.372.138.53.621 2.031 1.073 3.336a224.51 224.51 0 011.168 3.45c1.236 3.848 1.603 5.081 1.797 6.038.12.593.567 2.08.992 3.304.424 1.224.776 2.534.781 2.911.006.377.16 1.073.342 1.547.183.475.509 1.591.724 2.48.509 2.11 1.175 4.419 1.585 5.499.18.474.331 1.262.336 1.751.006.489.203 1.496.439 2.238.236.743.43 1.568.43 1.834s.241 1.226.536 2.135c.296.908.537 2.072.537 2.587 0 .514.194 1.543.43 2.285.236.743.429 1.563.429 1.823s.242 1.284.537 2.274c.3 1.006.537 2.344.537 3.029 0 .675.193 1.835.429 2.578.236.742.429 1.805.429 2.362 0 .557.242 1.823.537 2.813.383 1.285.537 2.307.537 3.568 0 1.173.144 2.22.429 3.117.309.969.43 1.944.43 3.455 0 1.547.142 2.653.537 4.179.482 1.867.536 2.494.536 6.249 0 3.58.061 4.366.43 5.524.409 1.285.429 1.944.429 13.693 0 11.749-.02 12.408-.429 13.693-.363 1.14-.43 1.944-.43 5.165 0 3.446-.052 3.99-.536 5.617-.383 1.285-.537 2.307-.537 3.568 0 1.173-.145 2.22-.43 3.116-.256.807-.429 1.944-.429 2.825 0 .989-.177 2.019-.537 3.126-.295.909-.537 2.063-.537 2.566 0 .504-.193 1.523-.429 2.265-.236.743-.429 1.628-.429 1.967 0 .339-.23 1.321-.51 2.182-.281.861-.611 2.051-.735 2.644-.472 2.262-1.59 6.108-2.728 9.38-.309.889-.761 2.248-1.004 3.019a21.517 21.517 0 01-1.033 2.587 17.32 17.32 0 00-.947 2.426c-.195.682-.602 1.701-.904 2.264-.301.564-.935 1.995-1.408 3.181-.841 2.109-3.039 6.524-3.801 7.635-.211.308-.893 1.53-1.515 2.716-1.033 1.969-4.362 7.316-6.156 9.889-1.075 1.542-.93 2.729.333 2.723.301-.002 1.16-.196 1.908-.432.749-.235 1.872-.428 2.495-.428.624 0 1.702-.182 2.397-.405.694-.222 1.987-.477 2.872-.566.886-.088 2.179-.343 2.873-.565.694-.223 1.806-.409 2.469-.414.664-.006 1.593-.152 2.066-.327.472-.174 1.582-.413 2.467-.531.885-.117 2.166-.407 2.846-.644.68-.236 1.744-.434 2.363-.439.62-.005 1.513-.152 1.985-.327.473-.174 1.583-.413 2.468-.531.885-.117 2.165-.407 2.846-.643.68-.237 1.528-.43 1.885-.43s1.171-.185 1.81-.41c.639-.226 1.578-.475 2.088-.555.51-.079 1.483-.332 2.162-.56.68-.229 1.743-.42 2.362-.426.619-.005 1.513-.159 1.985-.343.884-.344 3.472-1.018 5.368-1.398.59-.119 1.701-.409 2.469-.646 1.306-.403 2.689-.748 5.26-1.312a45.65 45.65 0 002.749-.743c.921-.279 1.847-.508 2.057-.508.376 0 2.414-.575 4.319-1.218a43.513 43.513 0 012.63-.74c.915-.227 2.413-.601 3.328-.83a69.335 69.335 0 003.489-.998 61.545 61.545 0 013.436-.97c1.935-.468 4.294-1.201 7.192-2.233 1.181-.42 2.389-.764 2.684-.765.522 0 4.986-1.39 9.769-3.041 3.575-1.234 4.377-1.491 6.012-1.926 3.275-.872 8.421-2.514 10.413-3.325.413-.168 1.718-.616 2.899-.995a65.396 65.396 0 003.864-1.389c1.602-.652 3.055-1.162 9.662-3.388 1.417-.477 3.253-1.145 4.079-1.484 2.271-.932 7.845-2.926 8.696-3.111.413-.09 1.322-.452 2.02-.804 1.167-.589 2.308-1.023 5.495-2.089.649-.218 1.969-.748 2.933-1.178.964-.431 1.868-.783 2.009-.783.142 0 1.237-.425 2.435-.945 1.197-.52 2.853-1.16 3.68-1.422 2.673-.846 3.213-1.07 4.431-1.835 1.314-.825 2.084-1.83 2.668-3.482.359-1.016.361-1.157.022-2.509-.196-.788-.358-1.824-.358-2.303 0-.48-.191-1.43-.425-2.112-.233-.683-.523-1.92-.643-2.751-.12-.83-.359-1.897-.531-2.372-.173-.474-.318-1.42-.324-2.101-.005-.682-.196-1.798-.425-2.48-.228-.683-.521-1.956-.649-2.829-.129-.874-.339-1.784-.466-2.023-.127-.238-.308-1.328-.401-2.421-.095-1.116-.327-2.293-.529-2.686-.198-.385-.444-1.51-.546-2.5-.101-.991-.296-2.011-.432-2.267-.137-.256-.328-1.317-.425-2.358-.097-1.041-.335-2.201-.529-2.577-.193-.375-.439-1.453-.546-2.394-.107-.941-.297-1.905-.423-2.141s-.322-1.161-.434-2.054c-.113-.893-.357-1.918-.543-2.279-.186-.361-.428-1.404-.537-2.317-.11-.914-.342-2.05-.517-2.525-.175-.474-.32-1.105-.323-1.401-.004-.297-.243-1.316-.532-2.264-.289-.949-.629-2.235-.755-2.858-.558-2.751-.727-3.472-1.102-4.69a44.745 44.745 0 01-.716-2.695 308.11 308.11 0 00-1.53-6.361 532.499 532.499 0 00-1.48-5.715 62.53 62.53 0 01-.592-2.479 23.618 23.618 0 00-.54-2.049 44.387 44.387 0 01-.709-2.588 94.236 94.236 0 00-.861-3.234c-.257-.89-.605-2.151-.773-2.803a99.821 99.821 0 00-.732-2.642l-.854-2.911a82.162 82.162 0 01-.723-2.642 67.117 67.117 0 00-.874-3.019 93.476 93.476 0 01-.977-3.342c-.694-2.613-1.25-4.457-2.035-6.754-.419-1.224-.761-2.384-.761-2.578 0-.194-.29-1.23-.644-2.303-.355-1.072-1.515-4.618-2.577-7.88-1.063-3.261-2.187-6.658-2.498-7.547-.311-.89-.788-2.345-1.06-3.235-.272-.889-.947-2.781-1.501-4.205-1.829-4.703-2.074-5.378-2.461-6.792-.211-.771-.84-2.566-1.398-3.989a287.222 287.222 0 01-1.958-5.176 136.34 136.34 0 00-1.567-4.097c-.343-.83-.74-1.897-.882-2.372-.143-.474-.55-1.445-.905-2.156a27.933 27.933 0 01-1.134-2.696c-.679-1.948-1.818-4.736-3.438-8.42-.759-1.726-1.38-3.289-1.38-3.473 0-.183-.575-1.494-1.278-2.912-.703-1.418-1.535-3.301-1.849-4.183-.314-.883-1.224-2.963-2.023-4.624-.798-1.66-1.569-3.407-1.713-3.881-.403-1.328-14.24-29.102-15.47-31.053-.599-.948-1.774-3.082-2.613-4.743-.839-1.66-1.891-3.561-2.337-4.223-.446-.662-1.318-2.166-1.939-3.342-.621-1.176-1.484-2.672-1.919-3.324a29.354 29.354 0 01-1.494-2.588c-.388-.771-.956-1.733-1.263-2.137-.307-.405-.994-1.497-1.526-2.427-1.842-3.217-9.113-14.408-13.218-20.342a544.828 544.828 0 01-2.8-4.075c-.309-.463-1.108-1.552-1.774-2.421-3.213-4.188-5.369-7.149-6.255-8.592-.289-.471-1.095-1.488-1.791-2.259-.696-.772-1.585-1.904-1.975-2.516-.389-.612-1.295-1.763-2.012-2.557-.718-.795-1.603-1.889-1.967-2.431-.364-.542-1.437-1.835-2.385-2.873-.948-1.037-2.055-2.381-2.46-2.986-.406-.605-1.643-2.062-2.75-3.239-1.107-1.176-2.568-2.898-3.247-3.825-1.687-2.308-29.297-30.01-31.334-31.44a30.9 30.9 0 01-2.899-2.379c-.767-.729-2.168-1.892-3.113-2.585-.945-.694-2.069-1.573-2.498-1.955-1.209-1.077-13.292-9.055-14.934-9.861a1092.34 1092.34 0 01-6.4-3.208c-2.716-1.369-5.518-2.739-6.227-3.045-5.575-2.404-11.654-4.54-15.78-5.543-.886-.216-1.997-.542-2.47-.726-.472-.184-1.197-.343-1.61-.353-.413-.01-1.138-.161-1.61-.334-.473-.173-1.535-.414-2.362-.534-.827-.121-2.059-.411-2.738-.646-.822-.284-1.801-.427-2.925-.427-1.049 0-2.166-.151-2.951-.4-.901-.286-2.294-.444-4.862-.55-2.653-.109-3.946-.259-4.913-.569-1.214-.39-1.95-.42-9.819-.408-7.716.012-8.62.051-9.73.418zM362.38 286.804c0 .667.816 2.148 1.744 3.166.457.501 1.186 1.471 1.622 2.157.435.685 1.294 1.779 1.908 2.432a25.823 25.823 0 012.012 2.48c.493.711 1.512 2.021 2.264 2.911.753.889 1.689 2.07 2.082 2.623a134.79 134.79 0 003.827 5.108c.531.667 2.13 2.96 3.553 5.097a879.393 879.393 0 003.25 4.854c.364.533 1.154 1.746 1.755 2.695a74.334 74.334 0 001.722 2.606c.346.484 1.307 1.988 2.135 3.342.828 1.354 1.986 3.238 2.574 4.187.589.949 1.648 2.841 2.353 4.205 1.586 3.064 2.124 4.032 2.682 4.821.503.713 6.814 13.274 6.814 13.564 0 .106.617 1.617 1.37 3.357.754 1.74 1.491 3.552 1.64 4.026.148.475.585 1.497.971 2.272.385.774.817 1.84.958 2.368.142.528.491 1.423.776 1.988.726 1.438 4.942 14.282 5.099 15.533.071.565.267 1.297.437 1.626.17.329.421 1.223.559 1.985.137.763.338 1.552.445 1.753.107.201.292 1.058.412 1.905s.354 1.805.521 2.129c.167.324.416 1.214.554 1.976.137.763.349 1.572.469 1.798.12.226.295 1.305.389 2.398.098 1.154.326 2.291.543 2.713.229.446.441 1.564.547 2.891.096 1.191.32 2.553.498 3.027.21.555.329 1.641.335 3.045.007 1.678.119 2.5.486 3.558.461 1.333.476 1.652.483 10.217.006 8.596-.007 8.882-.476 10.319-.353 1.078-.484 1.99-.484 3.368 0 1.296-.134 2.314-.429 3.24-.236.743-.434 1.798-.439 2.346-.005.548-.157 1.385-.337 1.859-.18.475-.505 1.493-.722 2.264-.218.771-.654 2.13-.968 3.019-.315.89-.75 2.2-.968 2.911-.988 3.236-1.473 4.388-3.902 9.273-1.062 2.134-2.672 4.979-3.578 6.32-.905 1.342-1.923 2.895-2.261 3.451-.338.556-.947 1.38-1.353 1.831-.405.452-1.079 1.374-1.497 2.049-.991 1.6-11.026 11.606-13.723 13.684-3.789 2.92-9.02 6.463-11.088 7.511-.745.378-1.653.916-2.019 1.196-.719.55-7.746 4.183-9.855 5.095-.709.306-2.4.993-3.758 1.526a3659.96 3659.96 0 00-5.475 2.157c-3.393 1.34-8.124 2.943-8.684 2.943-.204 0-1.571.389-3.036.864-1.466.475-3.257.96-3.98 1.078-.724.118-1.643.351-2.042.519-.4.168-1.45.41-2.335.537-.884.128-1.994.375-2.467.549-.472.173-1.368.32-1.991.325-.623.005-1.686.207-2.362.449-.676.242-2.147.529-3.269.638-1.121.109-2.426.343-2.898.521-.558.21-1.659.327-3.139.333-1.689.007-2.635.124-3.65.451-1.098.354-2.18.467-5.449.57-3.099.098-4.383.225-5.342.529-1.187.376-2.313.4-18.813.4s-17.625-.024-18.812-.4c-.988-.314-2.244-.429-5.772-.529-3.713-.105-4.75-.206-5.878-.57-1.074-.346-1.956-.444-4.08-.451-1.886-.007-2.97-.109-3.568-.338-.472-.18-1.97-.412-3.328-.515-1.525-.116-2.939-.358-3.698-.633-.855-.31-1.77-.448-3.006-.455-1.026-.005-2.14-.146-2.636-.331-.472-.178-1.728-.413-2.791-.523-1.063-.111-2.485-.398-3.161-.639-.676-.241-1.763-.438-2.415-.438-.652 0-1.741-.192-2.421-.427-.679-.235-1.911-.525-2.738-.646-.827-.12-1.889-.361-2.362-.534-.472-.173-1.221-.319-1.663-.325-.442-.005-1.36-.199-2.04-.431-1.342-.458-3.404-.997-5.1-1.332a30.352 30.352 0 01-2.469-.643 39.938 39.938 0 00-2.684-.713c-.708-.156-2.109-.545-3.113-.865a61.784 61.784 0 00-3.435-.976c-1.826-.447-3.581-.993-6.227-1.939-1.003-.359-2.356-.752-3.005-.873a15.277 15.277 0 01-2.255-.637c-.59-.23-1.895-.67-2.898-.978a55.164 55.164 0 01-3.865-1.395c-1.122-.459-3.537-1.334-5.368-1.943-1.83-.61-4.101-1.439-5.045-1.842-.945-.403-2.394-.991-3.221-1.307-.827-.315-2.324-.986-3.328-1.491-1.004-.504-2.396-1.082-3.094-1.285-.699-.202-2.679-1.074-4.402-1.938-1.722-.864-3.518-1.693-3.991-1.842-1.31-.413-8.219-3.841-9.554-4.74-.649-.437-2.823-1.646-4.831-2.687-2.007-1.04-3.94-2.111-4.294-2.38-.354-.268-1.225-.783-1.936-1.143-1.626-.825-6.68-3.898-8.01-4.871a18.844 18.844 0 00-2.165-1.322c-.639-.322-2.165-1.28-3.392-2.129a115.192 115.192 0 00-3.457-2.306 32.083 32.083 0 01-2.44-1.725 70.059 70.059 0 00-2.752-2.039 103.74 103.74 0 01-3.078-2.265c-.847-.653-1.927-1.442-2.399-1.754-.473-.312-1.803-1.403-2.957-2.425-1.154-1.022-2.505-2.117-3.003-2.432-.498-.316-1.92-1.558-3.162-2.76-3.52-3.406-4.521-4.315-5.918-5.365-1.573-1.182-4.57-4.28-5.365-5.546-.32-.507-1.861-2.248-3.428-3.869-1.566-1.62-3.087-3.327-3.38-3.791-.292-.465-1.181-1.612-1.976-2.55-.794-.938-1.68-2.082-1.97-2.542a14.83 14.83 0 00-1.244-1.637c-.395-.44-1.454-1.917-2.354-3.28a1118.083 1118.083 0 00-3.864-5.824c-.513-.771-1.396-2.275-1.961-3.342a75.187 75.187 0 00-2.027-3.557c-1.207-1.953-3.49-6.557-4.062-8.194-.229-.652-.943-2.302-1.587-3.666-.644-1.364-1.294-2.868-1.446-3.342-.59-1.85-1.628-2.569-2.41-1.671-.707.811-2.918 5.482-3.496 7.385-.09.297-.913 2.092-1.829 3.989-.915 1.898-1.784 3.839-1.93 4.313-.148.474-.75 1.877-1.34 3.117-.59 1.24-1.244 2.744-1.453 3.342-.21.599-.858 2.156-1.442 3.46-.583 1.305-1.235 2.906-1.447 3.558-.213.653-.7 1.817-1.084 2.588-.384.771-.843 1.887-1.02 2.48-.178.593-.665 1.854-1.082 2.803-.417.949-.83 2.016-.917 2.372-.087.356-.442 1.278-.788 2.048-.346.771-1.05 2.567-1.564 3.99a341.128 341.128 0 01-1.927 5.175c-.546 1.423-1.176 3.17-1.4 3.881-.532 1.695-1.462 4.274-2.41 6.685a59.074 59.074 0 00-1.227 3.45c-.255.831-.602 1.849-.771 2.265-.377.924-1.916 5.457-2.453 7.223a88.112 88.112 0 01-.962 2.911c-.312.89-.746 2.2-.966 2.912-.22.711-.652 2.021-.962 2.911a69.06 69.06 0 00-.965 3.019c-.222.77-.661 2.129-.978 3.018-.316.89-.675 2.103-.799 2.696-.123.593-.587 2.194-1.03 3.558a164.651 164.651 0 00-1.483 4.852c-1.24 4.36-1.478 5.158-2.469 8.302-.541 1.719-.984 3.333-.983 3.586 0 .253-.24 1.104-.536 1.892-.295.787-.536 1.607-.536 1.822 0 .42-.591 2.548-1.313 4.727-.432 1.306-.554 1.782-1.422 5.55-.218.95-.467 1.84-.552 1.978-.145.236-.67 2.124-1.336 4.811a61.896 61.896 0 01-.721 2.588 31.757 31.757 0 00-.642 2.48c-.38 1.904-1.05 4.504-1.393 5.391-.182.474-.336 1.223-.341 1.663-.005.441-.15 1.217-.32 1.726-.172.508-.452 1.554-.624 2.325-.171.771-.462 1.79-.645 2.264-.184.475-.339 1.175-.344 1.556-.005.381-.15 1.109-.32 1.617a29.18 29.18 0 00-.623 2.326c-.171.771-.462 1.79-.646 2.264-.183.475-.338 1.258-.343 1.741-.005.483-.247 1.677-.538 2.653-.657 2.205-.902 4.653-.568 5.672.135.411.558 1.05.94 1.421.676.657 3.913 2.294 5.632 2.847.472.153 1.921.783 3.22 1.401 1.3.618 2.748 1.25 3.22 1.404.473.154 2.043.841 3.49 1.528s3.186 1.409 3.865 1.605c.679.196 1.669.599 2.2.897.531.298 1.932.926 3.113 1.395 1.181.47 2.92 1.182 3.865 1.583.945.402 3.119 1.274 4.83 1.938 1.713.665 3.887 1.538 4.832 1.941 2.674 1.141 7.643 3.074 9.378 3.649.864.286 2.207.81 2.984 1.163.777.353 2.516 1.005 3.865 1.449 1.349.444 3.273 1.174 4.277 1.623 1.004.448 2.115.879 2.47.957.354.078 1.706.516 3.005.974 1.3.458 2.893.994 3.543 1.19.65.197 2.34.823 3.757 1.391a97.69 97.69 0 004.724 1.74c1.18.389 3.21 1.07 4.508 1.513 3.267 1.116 5.022 1.658 5.905 1.821.413.077 1.959.564 3.435 1.083s3.409 1.152 4.294 1.406c.886.254 2.722.836 4.08 1.293 1.358.456 3.048.976 3.757 1.155.709.178 2.109.585 3.113.903 1.004.318 2.55.754 3.435.969.886.214 2.432.65 3.436.97 1.004.319 2.55.743 3.438.94.887.198 1.743.441 1.903.54.316.196 2.429.799 4.965 1.417.885.216 1.996.543 2.469.727.472.183 1.169.338 1.549.343.379.005 1.104.15 1.61.322.506.171 1.548.453 2.316.625.767.173 1.782.464 2.254.649.473.184 1.173.34 1.556.345.383.005 1.253.193 1.932.418a51.066 51.066 0 005.1 1.344c.591.12 1.948.454 3.017.743 1.069.288 2.24.523 2.602.523.363 0 1.264.194 2.003.432.74.237 1.621.431 1.96.431.338 0 1.172.193 1.852.43.68.236 1.961.526 2.846.643.885.118 1.995.357 2.467.532.473.174 1.253.321 1.734.326.481.005 1.682.252 2.668.549.986.296 2.198.539 2.694.539.495 0 1.505.194 2.244.431.739.237 1.798.431 2.352.431.554 0 1.815.243 2.801.539 1.022.308 2.354.543 3.097.549.718.005 1.691.156 2.163.336.473.179 1.829.404 3.014.5 1.352.109 2.432.318 2.899.561.508.264 1.493.433 3.109.534 1.302.081 2.603.275 2.891.43.289.155 1.64.358 3.002.451 1.585.108 2.919.329 3.706.614.931.338 1.763.448 3.435.455 1.457.007 2.498.123 3.065.343.522.203 2.079.403 3.972.51 2.284.128 3.44.295 4.342.627 1.036.38 1.717.452 4.32.452 2.413 0 3.368.087 4.353.4.947.299 2.26.433 5.246.534 3.133.106 4.274.228 5.342.571 1.218.39 1.931.435 6.885.435 5.086 0 5.636.037 6.896.464l1.37.463 26.838.002 26.839.002 1.369-.465c1.258-.428 1.807-.466 6.682-.466 4.772 0 5.451-.045 6.682-.443 1.054-.341 2.26-.481 5.234-.606 2.635-.112 4.036-.26 4.402-.464.363-.204 1.646-.342 3.972-.429 2.772-.103 3.58-.206 4.186-.531.543-.291 1.467-.448 3.328-.565 1.417-.089 2.963-.311 3.436-.493.505-.195 1.572-.335 2.592-.341 1.278-.007 2.138-.151 3.271-.548 1.019-.358 1.997-.539 2.908-.539.78 0 1.951-.186 2.715-.432.74-.237 1.846-.431 2.46-.431.637 0 1.775-.231 2.652-.539.845-.296 1.96-.539 2.478-.539.519 0 1.548-.194 2.287-.431.739-.238 1.742-.433 2.228-.434.487-.002 1.638-.244 2.557-.539.92-.295 2.042-.537 2.495-.537.452 0 1.428-.194 2.167-.431.739-.237 1.549-.43 1.799-.428.25.003 1.228-.233 2.173-.524.945-.29 2.201-.625 2.791-.744 2.555-.513 5.056-1.257 12.882-3.834 3.425-1.128 6.758-2.321 7.408-2.651.649-.33 1.712-.771 2.362-.979 1.406-.452 11.994-5.638 13.157-6.445.447-.31 1.606-1.018 2.577-1.573 2.343-1.34 5.061-3.134 6.965-4.596 2.101-1.614 4.919-3.742 5.964-4.502.472-.344 1.68-1.378 2.684-2.298 1.003-.921 2.211-1.912 2.683-2.204 1.04-.642 6.465-6.167 7.681-7.821.48-.652 1.582-1.938 2.45-2.858.868-.92 1.929-2.224 2.358-2.898.429-.674 1.323-1.813 1.985-2.532.663-.719 1.771-2.181 2.461-3.248a719.871 719.871 0 012.39-3.666c.623-.949 1.404-2.21 1.734-2.803.33-.593.969-1.632 1.419-2.307.45-.676 2.256-4.121 4.014-7.655 3.333-6.705 4.394-9.006 4.655-10.093.085-.355.475-1.291.867-2.079.391-.788.827-1.894.968-2.457.141-.564.54-1.763.885-2.665.346-.902.809-2.27 1.031-3.041l.962-3.343c.309-1.067.663-2.426.787-3.019.125-.593.456-1.836.737-2.762.282-.927.512-1.909.512-2.182 0-.274.193-1.106.429-1.848.237-.743.43-1.944.43-2.67 0-.727.197-2 .437-2.829.241-.83.525-2.674.631-4.097.106-1.423.349-3.016.54-3.54.308-.846.347-2.764.345-17.116-.001-15.423-.021-16.228-.422-17.592-.261-.884-.468-2.416-.544-4.017-.076-1.601-.288-3.162-.555-4.096-.275-.96-.436-2.175-.442-3.342-.005-1.057-.143-2.2-.325-2.696-.174-.475-.416-1.639-.538-2.588-.122-.949-.411-2.342-.641-3.096-.23-.753-.423-2.015-.428-2.803-.005-.788-.16-1.821-.344-2.295a14.61 14.61 0 01-.553-1.941 37.755 37.755 0 00-.622-2.462c-.222-.761-.404-1.659-.404-1.994 0-.335-.186-1.168-.413-1.85-.228-.683-.477-1.581-.553-1.996-.077-.415-.325-1.313-.553-1.995-.227-.683-.418-1.556-.423-1.941-.005-.385-.159-1.088-.342-1.563-.182-.474-.508-1.59-.722-2.479-.596-2.472-.998-3.819-1.738-5.823a53.852 53.852 0 01-1.072-3.234c-.217-.771-.83-2.663-1.36-4.205-2.965-8.605-3.325-9.568-5.533-14.771a272.877 272.877 0 01-1.392-3.343c-1.864-4.612-11.184-23.412-12.4-25.013-.277-.364-1.057-1.678-1.734-2.919-1.368-2.508-1.339-2.462-5.798-9.265-3.651-5.57-3.564-5.439-4.938-7.439a304 304 0 01-1.852-2.728 27.824 27.824 0 00-1.687-2.23c-.479-.556-1.058-1.378-1.285-1.826-.228-.448-.883-1.337-1.457-1.975-.574-.638-1.277-1.549-1.563-2.023-.287-.474-1.138-1.538-1.892-2.363s-1.608-1.878-1.898-2.34c-.29-.461-1.482-1.856-2.649-3.099s-2.484-2.81-2.927-3.483c-1.585-2.404-22.969-23.977-25.792-26.02-.656-.474-1.975-1.551-2.932-2.393-.957-.841-2.172-1.803-2.7-2.137-.529-.335-1.444-1.021-2.035-1.526-.59-.504-2.143-1.637-3.45-2.517-1.307-.88-2.66-1.792-3.006-2.028-.346-.235-1.353-.895-2.239-1.466a340.536 340.536 0 01-3.006-1.963c-1.717-1.14-4.022-2.25-4.67-2.25-.343 0-.483.127-.483.439z" fill="#2E56F6"/></svg>