<svg width="303" height="346" viewBox="0 0 303 346" fill="none" xmlns="http://www.w3.org/2000/svg"><path fill-rule="evenodd" clip-rule="evenodd" d="M151.407.478c-.295.263-.953.755-1.461 1.094-.508.339-1.104.766-1.325.95-.221.184-.595.465-.83.625-.236.159-.595.421-.798.582-.35.278-.599.465-1.85 1.387a35.12 35.12 0 00-.919.703 53.75 53.75 0 01-1.924 1.445c-.269.193-.695.53-.948.747-.253.217-.582.48-.732.582-.15.103-.48.359-.733.568-.253.21-.595.466-.759.57a8.171 8.171 0 00-.824.666 8.852 8.852 0 01-.94.743 7.936 7.936 0 00-.898.715 6.533 6.533 0 01-.796.64 7.05 7.05 0 00-.81.641 9.51 9.51 0 01-.926.738c-.235.156-.66.502-.944.768a9.367 9.367 0 01-.905.748c-.215.145-.726.57-1.137.943-.41.374-.856.747-.991.829-.135.082-.658.53-1.163.996-.505.466-1.07.944-1.255 1.062-.185.118-.725.578-1.201 1.022-.475.444-1.008.912-1.183 1.04-.176.127-.898.773-1.606 1.434-.707.661-1.444 1.31-1.636 1.442-.193.133-1.28 1.135-2.414 2.227-1.135 1.093-2.31 2.18-2.611 2.418-.815.64-9.329 9.166-9.883 9.898-.261.343-1.277 1.453-2.259 2.466-.981 1.014-1.861 1.97-1.955 2.126-.094.156-.576.715-1.072 1.243a34.34 34.34 0 00-1.4 1.584c-.274.344-.81.96-1.192 1.367-.38.408-.81.925-.954 1.148a8.741 8.741 0 01-.797.977 13.27 13.27 0 00-.863 1.018c-.18.246-.522.668-.762.937-.24.27-.544.648-.674.84-.13.194-.47.634-.753.977a54.97 54.97 0 00-1.836 2.381c-.215.292-.53.71-.702.929-.171.219-.529.688-.794 1.043-.266.355-.66.874-.875 1.154-.216.279-.698.964-1.071 1.523a28.343 28.343 0 01-.96 1.366c-.47.586-1.61 2.266-3.2 4.721a67.26 67.26 0 01-1.099 1.653c-.152.213-.427.667-.61 1.01-.182.342-.444.78-.58.974-.137.193-.35.544-.475.78a8.608 8.608 0 01-.473.781c-.135.194-.38.598-.543.899-.163.3-.406.705-.54.898-.133.193-.448.755-.7 1.247a38.675 38.675 0 01-.848 1.562c-.508.87-1.835 3.373-2.444 4.61-.264.538-1.053 2.139-1.754 3.559-.7 1.42-1.377 2.861-1.504 3.202-.127.341-.434 1.03-.682 1.53-.248.501-.451.933-.451.96 0 .069-.804 2.115-1.168 2.973-.163.387-.32.79-.35.898a10.33 10.33 0 01-.316.82 24.527 24.527 0 00-.837 2.267 35.29 35.29 0 01-.557 1.562c-.197.515-.424 1.111-.504 1.326-.234.626-.948 2.881-.947 2.987.001.053-.083.352-.187.664-.284.853-.494 1.62-.547 2-.026.188-.1.44-.162.562-.063.122-.15.461-.193.753a5.373 5.373 0 01-.191.845 2.31 2.31 0 00-.118.642c-.001.181-.09.598-.198.927a3.768 3.768 0 00-.198 1.155c-.002.307-.058.696-.124.868-.078.2-.144.762-.185 1.563-.049.95-.103 1.356-.227 1.696-.156.429-.162.594-.162 4.032 0 3.433.007 3.606.164 4.083.113.346.183.833.227 1.592.037.65.111 1.22.183 1.406.066.171.122.562.124.868.002.374.067.753.198 1.155.107.329.195.663.195.742 0 .079.07.363.156.632s.157.599.16.733c.001.134.057.384.124.556.066.172.17.531.23.799.249 1.105 1.24 3.865 1.817 5.059.166.343.385.851.486 1.127.242.663 1.347 2.924 1.581 3.236.102.134.35.561.554.948.32.61 1.017 1.764 1.438 2.382l.811 1.204c.374.555.812 1.17.974 1.367.162.197.406.523.542.724.136.201.527.668.868 1.038.342.369.743.854.892 1.078.335.505 4.795 4.958 5.245 5.239.18.112.62.48.978.817.357.338.85.743 1.097.9.246.158.595.423.776.59.18.167.675.534 1.097.815a28.29 28.29 0 011.286.91c.568.437 1.21.861 2.13 1.405a93.62 93.62 0 012.465 1.517c.7.446 8.205 4.229 8.55 4.309.129.03.655.249 1.17.486.514.238 1.128.494 1.364.57.659.213 2.038.735 2.301.872.13.068.428.176.663.24.234.065.99.312 1.678.55.689.238 1.478.483 1.754.544.276.06.8.205 1.164.321.652.207 1.418.41 2.417.638.278.063.692.184.919.268.226.084.511.153.632.153.122 0 .441.071.709.157.269.085.625.156.791.156.167 0 .554.088.861.195.327.114.738.197.992.199.24.002.575.056.747.12.171.065.645.15 1.052.189.407.039.941.143 1.187.231.305.109.64.159 1.061.159.383 0 .789.055 1.074.145.28.089.822.163 1.394.191.617.031 1.104.101 1.433.207.435.14.697.16 2.113.16 1.402 0 1.682.021 2.105.156.471.151.703.157 6.547.157 5.845 0 6.077-.006 6.548-.157.414-.132.703-.156 1.91-.156 1.195 0 1.497-.024 1.898-.152.262-.084.837-.177 1.277-.207.44-.029 1.006-.119 1.258-.199.286-.09.691-.145 1.074-.145.42 0 .757-.05 1.062-.159.245-.087.761-.191 1.147-.231.386-.04.842-.125 1.014-.189.171-.064.442-.118.601-.12.159-.002.475-.073.701-.157.39-.144 1.014-.303 1.893-.48.215-.044.618-.149.897-.235.278-.086.717-.202.974-.258.257-.057.766-.197 1.13-.313.365-.116.868-.262 1.119-.326.613-.156 1.46-.441 2.077-.7.279-.117.98-.38 1.559-.586 1.655-.587 2.499-.917 2.962-1.158.236-.123.658-.299.939-.391 1.112-.363 4.907-2.427 5.024-2.731.083-.216-.091-.278-.511-.181a4.847 4.847 0 01-.879.096c-.264.002-.621.056-.793.12-.171.065-.647.149-1.057.188-.41.038-.901.127-1.091.196-.195.071-.788.156-1.359.194-.557.037-1.154.118-1.325.18-.172.062-.761.136-1.309.164-.609.031-1.124.099-1.325.176-.243.093-.773.14-2.043.183-1.399.048-1.779.085-2.066.204-.332.137-.692.145-6.742.145l-6.392.001-.497-.174c-.433-.152-.656-.175-1.715-.175-.976 0-1.324-.03-1.752-.153-.295-.084-.891-.177-1.325-.206-.435-.03-.997-.119-1.249-.199a3.837 3.837 0 00-1.022-.145c-.34 0-.749-.059-1.027-.148a6.22 6.22 0 00-1.082-.205 6.196 6.196 0 01-1.078-.204c-.252-.08-.553-.146-.668-.146-.116 0-.461-.088-.768-.195-.307-.107-.694-.195-.861-.195-.167 0-.523-.07-.791-.156s-.567-.157-.664-.157c-.098 0-.417-.074-.711-.166a15.064 15.064 0 00-.963-.264c-.894-.204-4.333-1.363-5.223-1.76a13.258 13.258 0 00-1.052-.419c-.214-.069-1.425-.644-2.689-1.279-1.899-.953-2.591-1.349-3.975-2.274-.922-.615-1.824-1.256-2.005-1.422a6.476 6.476 0 00-.78-.588c-.474-.301-3.962-3.71-4.355-4.257a43.572 43.572 0 00-.659-.875c-.424-.548-1.076-1.491-1.691-2.445-.533-.827-1.95-3.773-2.287-4.753-.47-1.365-.701-2.121-.825-2.695a8.38 8.38 0 00-.263-.92 2.755 2.755 0 01-.153-.791 3.42 3.42 0 00-.144-.836c-.08-.253-.169-.816-.198-1.251-.029-.436-.122-1.033-.206-1.328-.142-.498-.153-.793-.153-4.168 0-3.396.01-3.668.156-4.178.095-.333.175-.924.206-1.522.031-.602.106-1.154.195-1.437a3.52 3.52 0 00.144-.865c0-.232.084-.646.195-.965.108-.307.195-.695.195-.862 0-.167.07-.524.156-.793s.156-.591.156-.715.088-.477.195-.784c.107-.308.194-.614.193-.682-.002-.136.66-2.225 1.054-3.33.139-.389.312-.91.384-1.157.071-.247.231-.637.355-.866.124-.23.265-.57.314-.757.049-.187.274-.744.501-1.238.226-.494.456-1.039.51-1.21.118-.375.979-2.162 2.67-5.546 1.557-3.117 1.954-3.871 2.32-4.413.16-.236.405-.658.544-.937.14-.28.365-.666.501-.859.137-.193.384-.598.55-.898.165-.3.431-.74.589-.977.159-.236.367-.587.463-.78.096-.194.443-.75.771-1.235.328-.486.711-1.066.85-1.29.14-.222.446-.668.68-.99.412-.566.936-1.319 1.713-2.46a8.71 8.71 0 01.569-.758c.108-.116.358-.438.556-.715.758-1.065 1.159-1.582 1.727-2.23.324-.37.674-.812.778-.984.104-.172.443-.585.754-.918.31-.333.704-.812.874-1.063.17-.252.901-1.068 1.624-1.815.722-.747 1.467-1.57 1.654-1.827.441-.608 4.266-4.441 4.874-4.885.258-.188 1.082-.936 1.832-1.663s1.575-1.464 1.832-1.638c.257-.174.801-.638 1.208-1.03.407-.392.916-.832 1.13-.978.215-.145.713-.53 1.109-.854a78.011 78.011 0 013.484-2.66c.27-.193.611-.457.757-.588.147-.13.512-.401.811-.603.298-.201.841-.578 1.205-.837 1.425-1.012 5.919-3.94 6.496-4.232.178-.09.482-.276.675-.414a11.7 11.7 0 01.975-.588c.342-.185.818-.469 1.056-.63.562-.38 6.996-3.603 7.557-3.785a12.94 12.94 0 001.208-.513 20.75 20.75 0 011.91-.759c.622-.21 1.252-.446 1.401-.523.372-.192 1.479-.566 2.184-.737a23.15 23.15 0 001.247-.352c.796-.251 1.69-.495 2.222-.606.214-.045.663-.165.998-.267.335-.103.69-.186.789-.186.099 0 .4-.07.668-.157a3.78 3.78 0 01.982-.156c.316 0 .709-.07 1.091-.195.462-.151.76-.195 1.317-.195.486 0 .87-.048 1.179-.146.381-.12.837-.154 2.689-.199 1.533-.037 2.361-.09 2.65-.166.531-.142.856-.142 1.39 0 .295.08 1.105.13 2.65.167 1.848.045 2.303.078 2.684.199.596.188 1.803.202 2.058.023.095-.067.173-.196.173-.287 0-.193-.471-.952-1.088-1.754a26.54 26.54 0 01-.783-1.081 30.092 30.092 0 00-.681-.961 35.557 35.557 0 01-.756-1.069c-.233-.344-.517-.713-.632-.82-.114-.107-.359-.422-.546-.701-.323-.485-.47-.684-1.502-2.031-.247-.322-.51-.683-.585-.802a8.221 8.221 0 00-.61-.74 8.907 8.907 0 01-.739-.94 7.911 7.911 0 00-.724-.91 7.254 7.254 0 01-.657-.807 8.635 8.635 0 00-.676-.85 11.723 11.723 0 01-.721-.887c-.133-.193-.516-.647-.851-1.007-.335-.361-.739-.853-.899-1.094-.159-.24-.557-.718-.883-1.062a13.526 13.526 0 01-.934-1.094c-.187-.257-.704-.869-1.149-1.358-.445-.49-.894-1.024-.998-1.189-.103-.165-.719-.854-1.368-1.531-.648-.678-1.279-1.388-1.401-1.577-.122-.19-1.011-1.164-1.975-2.165-.964-1.001-1.848-1.971-1.963-2.155-.368-.584-15.201-15.453-16.05-16.088-.298-.223-1.249-1.102-2.113-1.952C152.625.062 152.55 0 152.253 0c-.267 0-.38.064-.846.478zm26.845 63.49c-.304.1-.807.163-1.598.2-.774.037-1.304.103-1.612.2-.301.096-.691.146-1.14.146-.515 0-.826.047-1.278.195-.328.108-.661.195-.74.195-.079 0-.363.07-.631.157-.269.086-.66.156-.871.156-.21 0-.512.056-.671.126-.294.127-.939.319-1.927.572-1.412.363-3.058.966-5.361 1.968-.591.256-1.206.513-1.367.57-.492.174-3.066 1.464-3.522 1.765-.236.156-.709.434-1.052.618-.343.185-.904.52-1.247.745-.343.226-.887.58-1.209.786-.717.461-.834.54-1.52 1.012-.3.207-.962.657-1.471 1-.51.343-1.106.768-1.326.946-.219.178-.521.408-.671.51-.15.104-.554.423-.897.71-.343.286-.728.587-.857.669-.128.081-.601.478-1.052.88-.45.403-.958.821-1.128.93-.17.108-.645.518-1.054.911-.41.393-1.007.91-1.328 1.151-.711.534-5.72 5.573-6.08 6.117-.142.215-.703.848-1.247 1.406-.543.559-1.081 1.163-1.193 1.344-.113.18-.425.581-.694.89-.268.31-.646.783-.839 1.053-.609.853-1.122 1.532-1.375 1.822-.291.334-.766 1.02-1.874 2.701-.452.688-1.09 1.647-1.417 2.131a30.165 30.165 0 00-1.026 1.64c-.236.418-.54.92-.676 1.117a8.34 8.34 0 00-.508.898c-.46.948-1.408 2.712-1.709 3.182-.16.25-.351.636-.423.859-.072.223-.403.967-.736 1.655-.713 1.472-1.057 2.254-1.135 2.577-.031.129-.169.463-.307.742a9.057 9.057 0 00-.391.937 9.937 9.937 0 01-.4.975c-.143.299-.26.589-.26.644 0 .141-.286.96-.607 1.74-.355.864-.624 1.643-.767 2.226-.122.494-.64 2.202-.888 2.929-.138.402-.287.999-.479 1.913-.045.215-.166.655-.268.978-.103.323-.187.661-.187.751 0 .091-.07.385-.156.654-.086.268-.156.625-.156.792 0 .167-.088.555-.195.863-.114.327-.196.739-.198.994-.002.24-.056.576-.12.748-.063.172-.147.599-.185.95-.039.351-.131.755-.205.898-.09.174-.153.548-.188 1.122-.03.473-.101.948-.158 1.054-.061.113-.125.599-.155 1.17-.038.746-.085 1.041-.2 1.25-.142.259-.151.505-.172 4.95-.019 4.171-.008 4.697.103 4.867.079.121.183.181.288.165.169-.025.144.043 1.043-2.836.107-.344.26-.871.34-1.171.267-1.005.39-1.398.826-2.656.239-.687.499-1.46.577-1.718.078-.258.236-.715.351-1.016.116-.3.273-.757.35-1.015.077-.258.236-.679.352-.937.117-.258.293-.697.391-.976.099-.28.336-.842.527-1.25.192-.408.392-.883.447-1.055.116-.368.809-1.822 2.18-4.569 1.296-2.598 1.742-3.439 2.061-3.888.144-.202.376-.597.515-.876s.382-.701.54-.937c.158-.237.434-.658.612-.938.401-.628 1.423-2.157 1.828-2.733l.745-1.065c.998-1.429 1.459-2.042 1.843-2.45.223-.236.538-.64.702-.898.163-.258.655-.838 1.093-1.289.439-.451.914-.996 1.058-1.21.348-.522 4.723-4.939 5.27-5.322.238-.166.823-.655 1.301-1.086.478-.432 1.009-.87 1.181-.973.171-.104.505-.37.74-.593.895-.842 2.951-2.121 5.341-3.323 1.242-.625 2.487-1.21 2.766-1.299.278-.09 1.12-.376 1.871-.636.75-.26 1.455-.474 1.568-.475.112 0 .424-.07.692-.157.268-.086.632-.156.809-.156.177 0 .625-.09.996-.199l.675-.199 3.573.027c3.184.025 3.611.043 3.919.165.19.075.681.168 1.091.207.41.039.886.123 1.058.187a2 2 0 00.546.12c.129.003.638.144 1.13.315.493.171 1.091.348 1.331.392.239.044.747.22 1.13.39.382.171.741.311.797.312.056 0 .459.156.896.344.437.19.883.369.99.4.366.104 2.922 1.386 3.364 1.687.242.165.856.516 1.364.781.508.265 1.046.575 1.196.69.15.115.588.413.974.663a18.78 18.78 0 011.667 1.177c1.222.949 1.577 1.214 1.888 1.41.188.119.676.538 1.083.931.407.393 1.004.91 1.325 1.148.716.532 4.468 4.25 4.833 4.79.146.215.653.814 1.128 1.331.474.518 1.002 1.139 1.173 1.381.17.242.591.756.934 1.143.602.679.953 1.131 1.657 2.133.183.26.476.636.651.835.175.2.409.521.52.714.11.193.3.48.422.638.346.448.754 1.029 2.05 2.916.438.637.493.72 1.067 1.601.238.365.52.822.626 1.015.106.194.389.668.628 1.055.944 1.527 1.126 1.827 1.606 2.655.843 1.456 1.304 2.328 2.622 4.96 1.911 3.816 2.816 5.685 3.026 6.248.216.579.578 1.466 1.197 2.929.464 1.097 1.226 3.171 1.314 3.577.03.137.169.48.309.76.141.281.297.667.347.859.05.192.226.736.39 1.209.164.472.355 1.034.424 1.249.449 1.394.582 1.841.652 2.187.044.215.206.753.36 1.197.154.443.282.918.284 1.054.002.137.058.389.124.561.067.172.185.576.263.898.185.764.426 1.6.575 1.992.066.172.121.457.122.634.002.177.074.542.16.811.086.269.156.567.156.664 0 .096.087.444.195.773.107.329.194.751.194.937 0 .186.071.559.156.828.086.269.156.566.156.66 0 .094.088.465.195.824.109.364.195.849.195 1.097 0 .244.07.665.156.934.086.268.156.654.156.855 0 .202.087.66.195 1.019.139.465.194.836.194 1.292 0 .425.053.805.156 1.129.112.351.156.704.156 1.252 0 .56.052.961.195 1.513.175.677.195.904.195 2.264 0 1.297.022 1.581.156 2.001.148.465.156.704.156 4.959 0 4.256-.008 4.494-.156 4.96-.132.413-.156.704-.156 1.871 0 1.248-.019 1.445-.195 2.034a4.206 4.206 0 00-.195 1.292c0 .425-.052.805-.156 1.129a3.736 3.736 0 00-.156 1.023c0 .359-.064.732-.194 1.133-.108.329-.195.747-.195.929 0 .182-.07.552-.156.821-.086.268-.156.589-.156.712s-.083.479-.185.79a11.35 11.35 0 00-.267.958c-.171.819-.577 2.212-.99 3.397-.112.322-.276.815-.365 1.094a7.751 7.751 0 01-.375.937 6.22 6.22 0 00-.343.879 4.992 4.992 0 01-.329.82c-.109.204-.339.722-.511 1.152-.305.764-1.103 2.363-1.38 2.765-.076.112-.324.554-.55.984-.375.713-1.583 2.65-2.235 3.582-.39.558-.337.988.121.986.109-.001.421-.071.693-.156a3.66 3.66 0 01.906-.156c.226 0 .618-.065.87-.146a6.117 6.117 0 011.043-.205c.321-.032.79-.124 1.043-.205.252-.081.655-.148.896-.15.241-.002.578-.055.75-.118.171-.063.574-.15.896-.193a6.312 6.312 0 001.033-.233c.247-.085.633-.157.858-.159.225-.002.549-.055.72-.118.172-.063.575-.15.896-.192a6.414 6.414 0 001.033-.234c.247-.085.555-.155.685-.155.129 0 .425-.067.657-.149.232-.081.573-.172.758-.201.185-.028.538-.12.785-.203.247-.082.632-.152.857-.154.225-.002.549-.058.721-.124.321-.125 1.26-.369 1.949-.507.214-.043.617-.148.896-.234.474-.145.976-.27 1.91-.474.214-.047.663-.169.998-.27.334-.101.67-.184.746-.184.137 0 .877-.208 1.568-.441.193-.065.623-.185.955-.268l1.208-.301c.333-.083.903-.245 1.267-.361.364-.116.926-.274 1.247-.351.703-.17 1.559-.435 2.611-.809.429-.152.867-.277.975-.277.189 0 1.81-.504 3.546-1.102 1.298-.447 1.589-.54 2.183-.697 1.189-.316 3.057-.911 3.78-1.205.15-.06.624-.223 1.052-.36.429-.137 1.06-.364 1.403-.503.582-.236 1.109-.421 3.508-1.227a31.405 31.405 0 001.481-.538c.824-.337 2.848-1.059 3.157-1.127.15-.032.48-.163.733-.291.424-.213.838-.37 1.995-.757.236-.078.715-.27 1.065-.426.35-.156.678-.284.729-.284.052 0 .449-.154.884-.342a17.34 17.34 0 011.336-.515c.97-.306 1.166-.388 1.609-.665.477-.299.756-.663.968-1.261.131-.368.131-.419.008-.909a4.435 4.435 0 01-.13-.834c0-.174-.069-.518-.154-.765a6.56 6.56 0 01-.233-.996 5.584 5.584 0 00-.193-.859 2.763 2.763 0 01-.118-.761 3.453 3.453 0 00-.154-.899 7.274 7.274 0 01-.236-1.024c-.047-.317-.123-.646-.169-.733-.046-.086-.111-.481-.145-.877-.035-.404-.119-.831-.193-.973-.071-.139-.161-.547-.198-.906-.036-.358-.107-.728-.157-.82-.049-.093-.119-.477-.154-.855-.035-.377-.121-.797-.192-.933-.07-.136-.159-.526-.198-.867-.039-.341-.108-.69-.154-.776-.045-.085-.116-.42-.157-.743-.041-.324-.13-.695-.197-.826-.068-.131-.156-.508-.195-.839-.04-.331-.125-.743-.188-.915a1.946 1.946 0 01-.117-.507c-.002-.108-.088-.477-.193-.82a13.76 13.76 0 01-.274-1.035c-.203-.997-.264-1.258-.4-1.699-.08-.258-.197-.697-.26-.976-.143-.626-.373-1.58-.556-2.304-.13-.514-.211-.828-.537-2.07a21.68 21.68 0 01-.215-.898 8.53 8.53 0 00-.196-.742 16.633 16.633 0 01-.258-.938 33.776 33.776 0 00-.312-1.171c-.094-.322-.22-.779-.281-1.015-.061-.237-.18-.667-.265-.957l-.31-1.055c-.086-.29-.204-.72-.263-.956a23.614 23.614 0 00-.317-1.094c-.115-.365-.275-.91-.355-1.211a33.694 33.694 0 00-.739-2.446c-.152-.443-.276-.863-.276-.934 0-.07-.105-.445-.234-.834-.129-.388-.55-1.673-.936-2.854a243.062 243.062 0 00-.906-2.734 38.085 38.085 0 01-.385-1.171 27.85 27.85 0 00-.545-1.523c-.664-1.704-.753-1.948-.893-2.46-.077-.28-.305-.93-.508-1.445-.202-.516-.522-1.359-.711-1.875a46.813 46.813 0 00-.569-1.484 12.31 12.31 0 01-.32-.859 6.451 6.451 0 00-.328-.781 9.944 9.944 0 01-.412-.976c-.247-.706-.66-1.716-1.248-3.05-.276-.625-.501-1.191-.501-1.258 0-.067-.209-.541-.464-1.055a17.978 17.978 0 01-.671-1.515 23.34 23.34 0 00-.735-1.675c-.29-.601-.57-1.234-.622-1.406-.146-.481-5.169-10.54-5.616-11.247a26.365 26.365 0 01-.949-1.718c-.304-.601-.686-1.29-.848-1.529-.162-.24-.479-.785-.704-1.211a17.149 17.149 0 00-.697-1.204 10.527 10.527 0 01-.542-.937 6.25 6.25 0 00-.459-.775c-.111-.146-.36-.542-.554-.879-.668-1.165-3.308-5.218-4.798-7.367a235.65 235.65 0 01-1.017-1.477 21.839 21.839 0 00-.644-.876c-1.166-1.517-1.949-2.59-2.27-3.112a7.476 7.476 0 00-.651-.819 8.676 8.676 0 01-.717-.91 8.797 8.797 0 00-.73-.927 9.985 9.985 0 01-.714-.88c-.132-.197-.522-.665-.866-1.041-.344-.376-.746-.863-.893-1.082-.147-.219-.597-.747-.999-1.173a18.148 18.148 0 01-1.178-1.385c-.613-.836-10.636-10.87-11.376-11.388-.3-.21-.773-.598-1.052-.862a14.122 14.122 0 00-1.13-.936c-.343-.251-.751-.57-.907-.708-.439-.39-4.826-3.28-5.422-3.572a410.85 410.85 0 01-2.323-1.161 74.183 74.183 0 00-2.261-1.104c-2.024-.87-4.231-1.644-5.729-2.007a9.22 9.22 0 01-.896-.263 2.116 2.116 0 00-.585-.128 2.218 2.218 0 01-.584-.121 5.452 5.452 0 00-.858-.194 6.632 6.632 0 01-.994-.234 3.274 3.274 0 00-1.062-.154c-.381 0-.786-.055-1.071-.145-.327-.104-.833-.16-1.765-.2-.963-.039-1.432-.093-1.784-.205-.44-.142-.708-.153-3.564-.148-2.802.004-3.13.018-3.533.151zm-14.95 39.914c0 .241.296.777.633 1.146.166.182.431.533.589.781.158.248.47.645.693.881.222.236.551.641.73.898.179.258.549.733.822 1.055.273.322.613.75.756.95a49.195 49.195 0 001.389 1.85c.193.242.774 1.072 1.29 1.846.517.774 1.048 1.565 1.18 1.758.132.194.419.633.637.977.218.343.5.768.625.943.126.176.475.721.775 1.211.301.49.721 1.173.935 1.516.213.344.598 1.03.854 1.524.576 1.109.771 1.46.973 1.746.183.258 2.474 4.808 2.474 4.913 0 .038.224.585.498 1.216.273.63.541 1.286.595 1.458.054.172.213.542.353.823.14.28.296.666.348.857.051.192.178.516.281.721.264.52 1.794 5.172 1.851 5.625.026.205.097.47.159.59.061.119.153.442.203.719.05.276.122.562.161.634.039.073.107.384.15.691.043.306.129.653.189.771.061.117.151.439.201.715.05.277.127.57.171.651.043.082.107.473.141.869.035.418.118.83.197.983.083.161.16.566.199 1.047.034.431.116.925.18 1.096.076.201.12.595.122 1.103.003.608.043.906.176 1.289.168.483.173.598.176 3.7.002 3.114-.003 3.218-.173 3.738-.128.391-.176.721-.176 1.22 0 .47-.049.838-.156 1.174a3.623 3.623 0 00-.159.849 2.353 2.353 0 01-.122.674c-.066.171-.184.541-.263.82-.079.279-.237.771-.351 1.093-.114.322-.272.797-.351 1.055-.359 1.172-.535 1.589-1.417 3.358-.385.773-.97 1.804-1.299 2.289a48.529 48.529 0 00-.821 1.25c-.122.202-.343.5-.491.664a6.224 6.224 0 00-.543.742c-.36.579-4.003 4.203-4.982 4.956-1.376 1.058-3.275 2.341-4.026 2.721-.27.136-.6.331-.733.433-.261.199-2.812 1.515-3.577 1.845-.258.111-.871.36-1.364.553l-1.988.781c-1.232.485-2.95 1.066-3.153 1.066-.074 0-.57.141-1.102.313-.532.172-1.182.348-1.445.39a4.143 4.143 0 00-.741.189c-.145.06-.527.148-.848.194a5.633 5.633 0 00-.895.199 2.604 2.604 0 01-.723.118 3.15 3.15 0 00-.858.162c-.245.088-.779.192-1.187.231-.407.04-.88.125-1.052.189-.202.076-.602.118-1.139.121-.613.002-.957.044-1.326.163-.398.128-.791.169-1.978.206-1.125.036-1.591.082-1.939.192-.431.136-.84.145-6.83.145s-6.398-.009-6.829-.145c-.359-.114-.815-.155-2.096-.191-1.348-.039-1.724-.075-2.134-.207-.39-.125-.71-.161-1.481-.163-.684-.003-1.078-.04-1.295-.123-.172-.065-.715-.149-1.208-.186-.554-.042-1.067-.13-1.343-.23-.31-.112-.643-.162-1.091-.164-.373-.002-.777-.053-.957-.12-.172-.065-.628-.15-1.013-.19-.386-.04-.903-.144-1.148-.231a3.13 3.13 0 00-.877-.159 3.26 3.26 0 01-.879-.155 6.532 6.532 0 00-.994-.233 5.424 5.424 0 01-.857-.194 2.156 2.156 0 00-.604-.117c-.16-.002-.494-.073-.74-.157a16.09 16.09 0 00-1.852-.482 11.166 11.166 0 01-.896-.233 14.347 14.347 0 00-.975-.258 16.324 16.324 0 01-1.13-.314 22.27 22.27 0 00-1.247-.353c-.663-.162-1.3-.36-2.26-.703a9.135 9.135 0 00-1.092-.316 5.575 5.575 0 01-.818-.23 18.914 18.914 0 00-1.052-.355 19.903 19.903 0 01-1.403-.505 39.73 39.73 0 00-1.949-.704 31.547 31.547 0 01-1.832-.667 39.13 39.13 0 00-1.169-.473 15.85 15.85 0 01-1.208-.54 8.418 8.418 0 00-1.124-.466c-.253-.073-.972-.389-1.597-.702-.626-.313-1.278-.613-1.45-.667-.475-.15-2.983-1.391-3.468-1.717-.236-.158-1.025-.596-1.754-.973-.728-.377-1.43-.764-1.559-.862a5.879 5.879 0 00-.702-.414c-.59-.299-2.426-1.412-2.908-1.764a6.731 6.731 0 00-.787-.479c-.231-.117-.785-.464-1.23-.771a41.439 41.439 0 00-1.256-.835 12.06 12.06 0 01-.886-.625 25.556 25.556 0 00-.999-.739 37.81 37.81 0 01-1.117-.82 19.71 19.71 0 00-.871-.636c-.172-.112-.655-.508-1.074-.878-.418-.37-.909-.767-1.09-.881-.18-.114-.697-.564-1.148-.999-1.277-1.234-1.641-1.563-2.148-1.944-.571-.428-1.659-1.55-1.948-2.009-.116-.183-.676-.814-1.244-1.401-.569-.587-1.121-1.205-1.227-1.373-.106-.168-.43-.584-.718-.924a11.51 11.51 0 01-.715-.92 5.248 5.248 0 00-.451-.593c-.144-.16-.529-.694-.855-1.188-.327-.494-.7-1.057-.83-1.25l-.573-.859a17.57 17.57 0 01-.712-1.211 26.683 26.683 0 00-.736-1.288c-.438-.708-1.267-2.375-1.475-2.968a18.803 18.803 0 00-.575-1.328c-.234-.494-.47-1.039-.525-1.211-.215-.67-.591-.93-.875-.605-.257.294-1.06 1.986-1.27 2.675-.033.107-.331.758-.663 1.445-.333.687-.648 1.39-.702 1.562-.053.172-.272.68-.486 1.129-.214.449-.451.994-.527 1.21a22.41 22.41 0 01-.524 1.254 17.807 17.807 0 00-.525 1.288 8.417 8.417 0 01-.394.938 6.97 6.97 0 00-.37.898 11.17 11.17 0 01-.393 1.015 8.087 8.087 0 00-.333.859 6.1 6.1 0 01-.286.742c-.125.28-.38.93-.567 1.445-.187.516-.502 1.359-.7 1.875a31.894 31.894 0 00-.508 1.406 40.723 40.723 0 01-.875 2.421 21.2 21.2 0 00-.446 1.25c-.092.3-.218.669-.28.82a59.646 59.646 0 00-.89 2.616 32.22 32.22 0 01-.35 1.055c-.113.322-.27.796-.35 1.054-.08.258-.237.732-.35 1.054-.112.323-.27.815-.35 1.094-.08.279-.24.771-.354 1.093a9.357 9.357 0 00-.29.977c-.045.214-.214.794-.375 1.288a59.284 59.284 0 00-.538 1.758 84.111 84.111 0 01-.896 3.007c-.197.623-.358 1.207-.357 1.299 0 .091-.087.4-.195.685-.107.285-.195.582-.195.66 0 .152-.214.923-.476 1.712-.157.473-.201.645-.516 2.01-.08.344-.17.667-.2.717-.053.085-.244.769-.486 1.742-.058.237-.176.658-.262.938-.085.279-.19.683-.233.898-.137.69-.38 1.631-.505 1.952a2.086 2.086 0 00-.124.603 2.47 2.47 0 01-.117.625c-.062.184-.163.563-.226.842a7.154 7.154 0 01-.234.82 1.991 1.991 0 00-.125.564 2.377 2.377 0 01-.116.586c-.062.184-.164.563-.226.842a7.136 7.136 0 01-.235.82 2.161 2.161 0 00-.124.631c-.002.175-.09.607-.196.961-.238.798-.327 1.685-.206 2.054.05.149.203.38.341.515.246.238 1.421.83 2.045 1.031.171.055.698.283 1.17.507.47.224.997.453 1.168.509.172.055.742.305 1.267.553.526.249 1.157.511 1.403.582.247.07.606.217.799.325.193.107.702.335 1.13.505.429.17 1.06.428 1.403.573.343.146 1.132.462 1.754.702.622.241 1.41.557 1.754.703.97.413 2.775 1.113 3.405 1.322.313.103.8.293 1.083.421.282.128.913.364 1.403.525.49.161 1.188.425 1.553.588.364.162.767.318.896.346.129.028.62.187 1.091.353.472.166 1.05.36 1.286.431.236.072.85.298 1.364.504.515.206 1.287.489 1.715.63.429.141 1.166.388 1.637.548 1.186.405 1.823.601 2.144.66.15.028.71.204 1.247.392.536.188 1.237.417 1.559.509.321.092.988.303 1.48.468.494.166 1.108.354 1.365.419.257.064.766.212 1.13.327.364.115.926.273 1.247.351.322.077.883.236 1.247.351.365.116.926.269 1.248.341.322.072.633.16.691.195.115.071.882.29 1.803.514.321.078.725.196.896.263.172.066.425.122.563.124.137.002.4.055.584.117.184.062.562.164.84.226.28.063.648.168.82.235.17.067.425.123.564.125.14.002.455.07.701.151.513.169 1.283.372 1.852.488.214.043.707.164 1.095.268.388.105.813.19.945.19.131 0 .459.07.727.156.269.086.589.156.711.156.123 0 .426.071.673.156.247.086.712.191 1.033.233.321.043.724.13.896.193.171.063.455.116.63.118.174.002.61.091.968.199.358.107.798.195.978.195.18 0 .546.07.814.156.269.086.653.156.854.156.202 0 .66.088 1.017.196.371.111.855.196 1.125.198.26.002.613.057.785.122.171.065.664.147 1.094.181.49.04.883.115 1.052.203.185.096.542.157 1.13.194.472.029.944.099 1.049.155.105.057.595.13 1.089.164.576.039 1.06.119 1.346.222.338.123.64.163 1.247.165.529.002.907.045 1.113.124.189.074.754.146 1.442.185.829.046 1.249.107 1.576.227.376.138.623.164 1.568.164.876 0 1.223.031 1.581.145.343.108.82.157 1.904.193 1.137.038 1.552.083 1.94.207.442.141.7.158 2.499.158 1.846 0 2.046.013 2.504.167l.497.168 9.743.001 9.743.001.498-.169c.456-.155.656-.168 2.425-.168 1.733 0 1.979-.017 2.426-.161.383-.123.821-.174 1.9-.22.957-.04 1.466-.093 1.598-.168.132-.073.598-.123 1.442-.155 1.007-.037 1.3-.074 1.52-.192.197-.105.533-.162 1.209-.205.514-.032 1.075-.113 1.247-.178.183-.071.571-.122.941-.124a3.293 3.293 0 001.187-.198c.37-.13.725-.196 1.056-.196.283 0 .708-.067.986-.156.268-.086.67-.156.893-.156.231 0 .644-.084.962-.195.307-.108.712-.196.9-.196.188 0 .562-.07.83-.156.269-.086.633-.157.809-.157.177-.001.595-.089.929-.195.334-.107.741-.195.905-.195.165 0 .519-.07.787-.156s.562-.155.653-.155c.091.001.446-.084.789-.19.343-.105.799-.226 1.013-.269.928-.186 1.836-.456 4.677-1.389 1.243-.408 2.453-.841 2.689-.96.236-.12.622-.279.858-.355.51-.163 4.354-2.042 4.776-2.334.162-.112.583-.369.936-.57a24.486 24.486 0 002.528-1.664c.763-.585 1.786-1.356 2.165-1.631.172-.125.61-.499.975-.833.364-.333.803-.692.974-.798.377-.232 2.347-2.233 2.788-2.832.175-.237.575-.703.89-1.036.315-.333.7-.805.856-1.049.156-.244.48-.657.721-.917.24-.261.642-.79.893-1.177s.641-.984.867-1.328c.227-.343.51-.8.63-1.015.12-.215.352-.591.515-.836.164-.244.82-1.492 1.458-2.772 1.21-2.429 1.595-3.262 1.69-3.656.03-.129.172-.468.314-.753.142-.285.3-.686.352-.89.051-.204.196-.639.321-.965.125-.327.294-.823.374-1.102l.35-1.21c.112-.387.24-.879.285-1.094.045-.215.166-.665.268-1.001.102-.335.186-.691.186-.79 0-.099.07-.4.156-.669.085-.269.155-.704.155-.967s.072-.724.159-1.025c.088-.301.191-.968.229-1.484.039-.515.127-1.092.196-1.282.112-.306.126-1.001.126-6.199-.001-5.587-.008-5.878-.154-6.372-.094-.32-.17-.876-.197-1.455-.028-.58-.105-1.146-.202-1.484a4.663 4.663 0 01-.16-1.211c-.002-.382-.052-.796-.118-.976-.063-.172-.151-.594-.196-.937a8.272 8.272 0 00-.232-1.121 4.265 4.265 0 01-.156-1.016c-.001-.285-.058-.659-.124-.831a5.251 5.251 0 01-.201-.703 14.132 14.132 0 00-.226-.892c-.081-.276-.147-.601-.147-.722 0-.122-.067-.423-.15-.67a6.9 6.9 0 01-.2-.723 6.808 6.808 0 00-.201-.723c-.083-.247-.152-.563-.154-.703a1.953 1.953 0 00-.124-.566 9.438 9.438 0 01-.262-.898 16.259 16.259 0 00-.631-2.109 19.43 19.43 0 01-.389-1.171c-.079-.28-.301-.965-.494-1.523-1.076-3.117-1.207-3.466-2.008-5.351a98.198 98.198 0 01-.506-1.21c-.677-1.671-4.06-8.48-4.502-9.06-.1-.132-.383-.608-.629-1.057-.497-.909-.486-.892-2.105-3.356-1.326-2.018-1.294-1.97-1.793-2.695-.207-.3-.509-.745-.672-.988a10.197 10.197 0 00-.612-.807 4.248 4.248 0 01-.467-.662c-.083-.162-.321-.484-.529-.715a6.056 6.056 0 01-.567-.733c-.104-.172-.413-.557-.687-.856-.274-.299-.584-.68-.689-.847-.105-.167-.538-.673-.962-1.123-.424-.45-.902-1.018-1.063-1.261-.575-.871-8.338-8.685-9.363-9.425a18.185 18.185 0 01-1.064-.867c-.348-.304-.789-.653-.981-.774a8.063 8.063 0 01-.738-.552 18.24 18.24 0 00-1.253-.912c-.475-.319-.966-.649-1.091-.735a67.81 67.81 0 00-.813-.531 87.848 87.848 0 01-1.091-.711c-.624-.412-1.46-.815-1.696-.815-.124 0-.175.046-.175.16z" fill="#2E56F6"/><path d="M0 338.092h1.45c9.386 0 13.31-4.251 13.652-15.136l1.024-35.969h8.19v51.02h9.557v-59.523H7.338l-1.536 44.982c-.17 5.528-1.536 6.123-5.802 6.123v8.503zm58.548-27.38l3.84-14.626v41.921h8.446v-59.523H60.51l-7.679 24.575-3.413 13.095v-37.67h-8.361v59.523h9.641l7.85-27.295zm28.306 1.785h10.665v25.51h9.556v-59.523h-9.556v25.51H86.854v-25.51h-9.386v59.523h9.386v-25.51zm36.412-25.51h16.211v-8.503H113.88v59.523h25.597v-8.503h-16.211v-17.432h12.883v-8.503h-12.883v-16.582zm31.668 51.02h-9.641v-59.523h8.361v37.67l3.413-13.095 7.679-24.575h10.324v59.523h-8.447v-41.921l-3.839 14.626-7.85 27.295zm9.642-72.788c-.256 3.146-1.707 3.911-4.267 3.911-2.474 0-3.754-.765-4.01-3.911h-5.802c.171 5.782 3.243 9.438 9.812 9.438 6.656 0 9.983-3.656 9.983-9.438h-5.716zm61.663 13.265h-9.386v51.02h-8.105v-51.02h-9.386v51.02h-8.105v-51.02h-9.386v59.523h39.419V346h9.13v-16.326h-4.181v-51.19zm26.783 32.228l3.839-14.626v41.921h8.447v-59.523h-10.324l-7.679 24.575-3.413 13.095v-37.67h-8.361v59.523h9.641l7.85-27.295zm40.337 27.295H303l-13.054-32.993L303 278.484h-9.385l-12.287 25.935v-25.935h-9.385v59.523h9.385v-18.282l2.901-5.442 9.13 23.724z" fill="#0A143D"/></svg>