<svg width="70" height="70" viewBox="0 0 70 70" fill="none" xmlns="http://www.w3.org/2000/svg"><path d="M35 0C15.67 0 0 15.67 0 35s15.67 35 35 35 35-15.67 35-35C69.978 15.68 54.32.022 35 0zm31.402 43.976l-2.192-.712-.722 2.216 2.201.715a32.658 32.658 0 01-3.6 7.04l-1.867-1.353-1.372 1.887 1.853 1.347a32.987 32.987 0 01-5.584 5.592l-1.346-1.853-1.888 1.372 1.354 1.867a32.652 32.652 0 01-7.039 3.595l-.715-2.201-2.217.722.713 2.192a32.49 32.49 0 01-7.814 1.236v-2.305h-2.334v2.305a32.484 32.484 0 01-7.81-1.236l.713-2.192-2.216-.722-.72 2.201a32.66 32.66 0 01-7.04-3.6l1.354-1.867-1.888-1.372-1.346 1.853a32.979 32.979 0 01-5.589-5.589l1.853-1.346-1.372-1.888-1.867 1.354A32.647 32.647 0 014.317 46.2l2.201-.715-.722-2.217-2.192.713a32.491 32.491 0 01-1.242-7.814h2.305v-2.334H2.363a32.485 32.485 0 011.235-7.81l2.192.713.722-2.216-2.195-.72a32.66 32.66 0 013.6-7.04l1.867 1.354 1.372-1.888-1.864-1.345a32.98 32.98 0 015.589-5.588l1.346 1.852 1.888-1.372-1.353-1.866a32.648 32.648 0 017.038-3.59l.715 2.201 2.217-.722-.713-2.192a32.491 32.491 0 017.814-1.242v2.305h2.334V2.363c2.643.092 5.266.507 7.81 1.235l-.713 2.192 2.216.722.72-2.195a32.66 32.66 0 017.04 3.6l-1.354 1.867 1.888 1.372 1.346-1.853a32.98 32.98 0 015.589 5.588l-1.853 1.347 1.372 1.887 1.867-1.353a32.652 32.652 0 013.594 7.028l-2.201.715.722 2.217 2.192-.713a32.49 32.49 0 011.236 7.814h-2.305v2.334h2.305a32.484 32.484 0 01-1.236 7.81z" fill="#fff"/><path d="M35 9.334C20.825 9.334 9.334 20.824 9.334 35c0 14.175 11.49 25.667 25.666 25.667 14.175 0 25.667-11.492 25.667-25.667C60.65 20.832 49.169 9.35 35 9.334zm0 49c-12.887 0-23.333-10.447-23.333-23.334S22.113 11.667 35 11.667c12.887 0 23.334 10.446 23.334 23.333C58.319 47.88 47.88 58.32 35 58.334z" fill="#fff"/><path d="M35 15.166c-10.954 0-19.834 8.88-19.834 19.834 0 10.953 8.88 19.833 19.834 19.833 10.953 0 19.833-8.88 19.833-19.833C54.821 24.05 45.948 15.179 35 15.166zm15.002 10.87a17.348 17.348 0 012.418 7.4l-7.306-.59a1.167 1.167 0 01-.664-2.046l5.552-4.764zm-11.107-8.084l-2.818 6.767a1.167 1.167 0 01-2.154 0l-2.819-6.767a16.987 16.987 0 017.791 0zm-18.897 8.084L25.55 30.8a1.167 1.167 0 01-.665 2.049l-7.307.59a17.348 17.348 0 012.42-7.403zm9.824 17.917l-1.694 7.137a17.581 17.581 0 01-6.29-4.594h-.003l6.244-3.809a1.167 1.167 0 011.743 1.266zm12.05 7.137h-.004l-1.698-7.137a1.167 1.167 0 011.743-1.266l6.245 3.81a17.58 17.58 0 01-6.287 4.593zm1.26-10.396a3.5 3.5 0 00-5.228 3.799l1.75 7.36a17.055 17.055 0 01-9.31 0h-.003l1.75-7.36a3.5 3.5 0 00-5.228-3.797l-6.456 3.94a17.383 17.383 0 01-2.867-8.856l7.534-.609a3.5 3.5 0 001.992-6.145l-5.74-4.923a17.558 17.558 0 017.531-5.47l2.908 6.98a3.5 3.5 0 006.462 0l2.908-6.98a17.566 17.566 0 017.531 5.47l-5.733 4.923a3.5 3.5 0 001.996 6.145l7.535.61a17.383 17.383 0 01-2.868 8.855l-6.464-3.942z" fill="#fff"/><path d="M35 30.334a4.667 4.667 0 100 9.333 4.667 4.667 0 000-9.334zm0 7a2.333 2.333 0 110-4.667 2.333 2.333 0 010 4.666z" fill="#fff"/></svg>