<svg width="70" height="70" viewBox="0 0 70 70" fill="none" xmlns="http://www.w3.org/2000/svg"><path d="M49.317 58.843a1.59 1.59 0 100-3.181 1.59 1.59 0 000 3.181zm-28.635 0a1.59 1.59 0 100-3.181 1.59 1.59 0 000 3.181zm41.046-40.727l-6.364-7.954c-.318-.478-.954-.637-1.59-.637l-7 1.432-4.137-5.568c-.477-.637-1.591-.796-2.227-.318L35 9.048 29.591 5.07c-.636-.477-1.59-.318-2.227.319l-5.727 7.159-7-1.432c-.637-.16-1.273.159-1.591.636l-4.773 6.364c-.477.636-.318 1.75.318 2.227.318.16.637.318.955.318.477 0 .954-.159 1.273-.636l4.136-5.568 7 1.432c.636.159 1.114-.16 1.59-.637l5.41-6.682 5.09 3.819c.637.477 1.273.477 1.91 0l5.09-3.819 3.819 5.091c.318.478.955.796 1.59.637l7-1.432 5.728 7.159c.477.636 1.591.795 2.227.318.637-.477.796-1.59.319-2.227z" fill="#fff"/><path d="M64.431 33.547c-.795-.159-1.75.478-1.75 1.273L59.5 54.39c-.159.795-.795 1.272-1.59 1.272h-.637c-.795-3.659-3.977-6.363-7.795-6.363-3.819 0-7 2.704-7.796 6.363h-8.273c-.954 0-1.59.637-1.59 1.591s.636 1.59 1.59 1.59h9.546c.954 0 1.59-.636 1.59-1.59 0-2.705 2.069-4.773 4.773-4.773 2.705 0 4.773 2.069 4.773 4.773 0 2.705-2.068 4.773-4.773 4.773h-17.5c-.954 0-1.59.636-1.59 1.59 0 .955.636 1.592 1.59 1.592h17.5c3.819 0 7-2.705 7.796-6.364h.636c2.387 0 4.296-1.75 4.773-3.977l3.182-19.569c.159-.795-.477-1.75-1.273-1.75zm3.977 28.478h-7.954c-.955 0-1.591.636-1.591 1.59 0 .955.636 1.592 1.59 1.592h7.955c.955 0 1.591-.637 1.591-1.591 0-.955-.636-1.591-1.59-1.591z" fill="#fff"/><path d="M66.023 22.252H3.977A3.939 3.939 0 000 26.23c0 2.068 1.432 3.659 3.34 3.977l4.137 24.66c.478 2.226 2.387 3.976 4.773 3.976h2.068c.955 0 1.591-.636 1.591-1.59 0-2.705 2.068-4.773 4.773-4.773 2.704 0 4.772 2.068 4.772 4.773 0 2.704-2.068 4.772-4.772 4.772H1.59c-.955 0-1.591.637-1.591 1.591 0 .955.636 1.591 1.59 1.591h19.092c4.454 0 7.954-3.5 7.954-7.955 0-4.454-3.5-7.954-7.954-7.954-3.818 0-7 2.704-7.796 6.363h-.636c-.795 0-1.432-.636-1.59-1.272L6.363 28.298c-.16-.637-.796-1.273-1.591-1.273h-.796c-.477 0-.795-.318-.795-.795 0-.478.318-.796.795-.796h62.046c.477 0 .795.318.795.796 0 .477-.318.795-.795.795H14.318c-.954 0-1.59.637-1.59 1.591 0 .955.636 1.59 1.59 1.59h51.705A3.939 3.939 0 0070 26.23a3.939 3.939 0 00-3.977-3.978z" fill="#fff"/></svg>