<svg width="17" height="17" viewBox="0 0 17 17" fill="none" xmlns="http://www.w3.org/2000/svg"><path d="M16.513 8.303a.485.485 0 00-.487.487v4.43a2.186 2.186 0 01-2.183 2.183H3.157a2.186 2.186 0 01-2.183-2.182V8.718a.485.485 0 00-.487-.487.485.485 0 00-.487.487v4.503a3.16 3.16 0 003.157 3.156h10.686A3.16 3.16 0 0017 13.221V8.79a.487.487 0 00-.487-.488z" fill="#2E56F6"/><path d="M8.157 12.51a.49.49 0 00.343.144.475.475 0 00.343-.144l3.095-3.096a.486.486 0 000-.689.486.486 0 00-.689 0l-2.262 2.266V1.109A.485.485 0 008.5.622a.485.485 0 00-.487.487v9.882L5.747 8.725a.486.486 0 00-.689 0 .486.486 0 000 .69l3.1 3.095z" fill="#2E56F6"/></svg>