<svg width="63" height="63" viewBox="0 0 63 63" fill="none" xmlns="http://www.w3.org/2000/svg"><path fill-rule="evenodd" clip-rule="evenodd" d="M31.58 13.665c-.011.012-.02 6.403-.02 14.203s-.012 14.188-.026 14.197c-.014.008-2.04-2-4.502-4.462-2.463-2.462-4.499-4.477-4.525-4.477-.052 0-.626.561-.626.612 0 .05 10.097 10.131 10.148 10.131.052 0 10.148-10.081 10.148-10.133 0-.05-.575-.61-.627-.61-.026 0-2.065 2.019-4.532 4.486-3.004 3.004-4.49 4.47-4.502 4.44-.01-.026-.021-6.424-.025-14.219l-.008-14.173-.44-.008c-.242-.005-.45 0-.462.013zm-17.922 35.82a4.065 4.065 0 00-.007.478l.008.437H50.4v-.94l-18.363-.008c-15.036-.006-18.366 0-18.378.033z" fill="#fff"/><circle cx="31.5" cy="31.5" r="31" stroke="#fff"/></svg>