<svg width="224" height="208" viewBox="0 0 224 208" fill="none" xmlns="http://www.w3.org/2000/svg"><path fill-rule="evenodd" clip-rule="evenodd" d="M1.558.023A1.794 1.794 0 00.047 1.378L0 1.562.006 112.07l.006 110.508.054.162c.193.575.598.984 1.174 1.186l.186.065 83.887.007c76.774.005 83.904.003 84.073-.031.72-.144 1.294-.762 1.402-1.508.015-.104.023-4.469.024-12.494V197.63h-3.592v22.804H3.569V3.59H133.01l.008 12.729c.008 13.91-.003 12.806.132 13.639a9.4 9.4 0 001.747 4.072 10.837 10.837 0 001.486 1.567 9.344 9.344 0 005.458 2.174c.257.016 4.505.024 12.881.024h12.498l.006 30.4.005 30.399h3.57l.007-31.123c.006-23.14.001-31.18-.019-31.344-.054-.45-.075-.562-.14-.755a2.117 2.117 0 00-.152-.34c-.122-.207-34.51-34.591-34.71-34.707-.289-.168-.596-.258-1.027-.301C134.453-.007 1.795-.008 1.558.023zm161.681 34.175c-.787.003-5.942.003-11.455 0l-10.024-.007-.279-.05a6.128 6.128 0 01-1.462-.444 5.836 5.836 0 01-3.3-4.119c-.122-.59-.116.07-.116-12.13V6.128l14.034 14.032 14.033 14.032-1.431.006zm-140.433-2v1.797h11.171v-3.592H22.806v1.796zm22.793-1.766a75.38 75.38 0 00-.005 1.79l.006 1.761h71.987v-3.569l-35.988-.005c-28.779-.005-35.99 0-36 .023zm-22.793 24.57V56.8l47.39-.006 47.391-.006v-3.569l-47.39-.006-47.391-.005v1.796zm0 22.804v1.796h3.569V76.01h-3.569v1.796zm15.204 0v1.796l53.092-.005 53.092-.006v-3.569l-53.092-.006-53.092-.006v1.796zm-6.084 32.433a1.832 1.832 0 00-.58.193c-.143.074-.235.145-.405.316a2.476 2.476 0 00-.298.354 2.038 2.038 0 00-.234.725c-.032.276-.032 22.697 0 23.373a9.372 9.372 0 00.716 3.24 9.429 9.429 0 005.656 5.264c.925.311 1.67.445 2.712.488.38.015 29.434.021 88.141.016 83.302-.007 87.589-.009 87.909-.048 1.694-.205 3.027-.688 4.334-1.572a9.388 9.388 0 004.102-6.984c.019-.239.024-3.446.019-12.144l-.007-11.819-.073-.203c-.105-.294-.201-.441-.448-.69-.189-.19-.252-.237-.441-.329a2.945 2.945 0 00-.359-.149c-.134-.041-3.803-.042-95.384-.045-52.384-.002-95.297.004-95.36.014zm25.071 5.464l.006 1.894h3.569l.006-1.894.006-1.895h19.213l.006 5.695.006 5.695h3.569l.006-5.695.006-5.695h19.213l.006 1.895.006 1.894h3.569l.006-1.894.006-1.895h19.213l.006 5.695.006 5.695h3.569l.006-5.695.006-5.695h19.213l.006 1.895.005 1.894h3.57l.006-1.894.006-1.895h19.213l.005 5.695.006 5.695h3.569l.006-5.695.006-5.695h19.213l.006 1.895.006 1.894h3.569l.006-1.894.006-1.895h23.014v10.646c0 7.111-.008 10.726-.023 10.886-.188 1.893-1.218 3.518-2.835 4.476a5.901 5.901 0 01-2.426.782c-.452.04-175.883.021-176.12-.019-.604-.102-1.009-.211-1.448-.39a5.85 5.85 0 01-2.796-2.422 5.935 5.935 0 01-.783-2.393c-.017-.175-.025-3.573-.025-10.91v-10.656h23.014l.006 1.895zm-9.883 40.144c-.19.032-.373.094-.563.191-.184.093-.276.183-7.98 7.883-8.478 8.472-7.931 7.908-8.077 8.329a1.323 1.323 0 00-.08.479c-.015.402.055.688.252 1.026.059.102 1.864 1.922 7.795 7.857 4.245 4.249 7.781 7.772 7.858 7.831.178.136.414.248.647.308l.183.046h78.389c53.33 0 78.503-.007 78.745-.023 2.369-.159 4.575-.759 6.623-1.802 4.789-2.437 8.165-7.008 9.062-12.265a17.058 17.058 0 00-1.055-9.426 21.892 21.892 0 00-.859-1.764 17.511 17.511 0 00-2.115-2.969 25.267 25.267 0 00-1.346-1.354c-2.932-2.635-6.54-4.128-10.499-4.347-.516-.028-156.81-.028-156.98 0zm135.31 9.362v5.817H49.181v-11.634h133.243v5.817zm11.403 7.601v13.418h-7.811v-26.836h7.811v13.418zm9.85-13.395c.312.012.724.039.915.059 2.705.282 5.164 1.324 7.278 3.084.39.325 1.252 1.186 1.588 1.585a13.518 13.518 0 013.046 6.767c.095.658.115.995.115 1.912-.001 1.127-.055 1.703-.256 2.688a13.393 13.393 0 01-5.704 8.468 13.458 13.458 0 01-5.858 2.156c-.756.086-1.111.094-4.282.094h-3.1v-26.836l2.845.001c1.565 0 3.1.01 3.413.022zM45.612 172.828v10.886l-5.447-5.446-5.446-5.446 5.44-5.44c2.993-2.992 5.444-5.44 5.447-5.44.003 0 .006 4.898.006 10.886zm136.812 7.584v5.816H49.181v-11.633h133.243v5.817z" fill="#fff"/></svg>