<svg width="21" height="31" viewBox="0 0 21 31" fill="none" xmlns="http://www.w3.org/2000/svg"><path d="M9.91 14.218c0-7.8.01-14.191.022-14.203.012-.012.22-.018.462-.013l.44.008.008 14.173c.004 7.795.016 14.193.025 14.218.012.03 1.498-1.435 4.503-4.44 2.466-2.466 4.506-4.485 4.531-4.485.052 0 .627.56.627.61 0 .052-10.096 10.134-10.148 10.134-.05 0-10.148-10.081-10.148-10.132 0-.05.575-.612.626-.612.026 0 2.063 2.015 4.525 4.477 2.462 2.463 4.488 4.47 4.502 4.462.014-.009.025-6.397.025-14.197z" fill="#fff"/></svg>