<svg width="45" height="43" viewBox="0 0 45 43" fill="none" xmlns="http://www.w3.org/2000/svg"><path d="M43.71 20.98c-.715 0-1.288.573-1.288 1.289v11.727a5.785 5.785 0 01-5.778 5.778H8.356a5.786 5.786 0 01-5.777-5.778V22.078c0-.716-.573-1.29-1.29-1.29-.716 0-1.289.574-1.289 1.29v11.918c0 4.613 3.753 8.357 8.356 8.357h28.288c4.612 0 8.356-3.754 8.356-8.357V22.27a1.29 1.29 0 00-1.29-1.29z" fill="#0A143D"/><path d="M21.591 32.115c.249.248.583.382.908.382.324 0 .659-.124.907-.382l8.194-8.194a1.285 1.285 0 000-1.824 1.285 1.285 0 00-1.824 0l-5.988 5.997V1.937c0-.717-.573-1.29-1.29-1.29-.716 0-1.289.573-1.289 1.29v26.157l-5.997-5.997a1.285 1.285 0 00-1.824 0 1.285 1.285 0 000 1.824l8.203 8.194z" fill="#0A143D"/></svg>