<svg width="70" height="70" viewBox="0 0 70 70" fill="none" xmlns="http://www.w3.org/2000/svg"><g clip-path="url(#clip0)" fill="#fff"><path d="M62.04 15.91h-3.182c-.954 0-1.59.636-1.59 1.59 0 .954.636 1.59 1.59 1.59h3.182c.955 0 1.591-.636 1.591-1.59 0-.954-.636-1.59-1.59-1.59zm0 6.363h-3.182c-.954 0-1.59.636-1.59 1.59 0 .955.636 1.592 1.59 1.592h3.182c.955 0 1.591-.637 1.591-1.591 0-.955-.636-1.591-1.59-1.591zM11.131 15.91H7.95c-.954 0-1.59.636-1.59 1.59 0 .954.636 1.59 1.59 1.59h3.182c.955 0 1.591-.636 1.591-1.59 0-.954-.636-1.59-1.59-1.59zm0 6.363H7.95c-.954 0-1.59.636-1.59 1.59 0 .955.636 1.592 1.59 1.592h3.182c.955 0 1.591-.637 1.591-1.591 0-.955-.636-1.591-1.59-1.591z"/><path d="M62.678 9.705L41.996.159C41.836 0 41.518 0 41.359 0H28.632c-.159 0-.477 0-.636.16L7.314 9.704c-.636.318-1.114 1.113-.955 1.75.16.795.796 1.272 1.591 1.272h17.182L17.496 55.84c-.16.795.477 1.75 1.272 1.909h.319c.795 0 1.431-.477 1.59-1.273l1.91-11.295 22.431 16.545c.319.16.637.318.955.318.477 0 .955-.159 1.273-.636.477-.636.318-1.75-.318-2.227L37.7 52.34l9.705-7.16 3.182 18.455H22.268l9.069-6.682c.636-.477.795-1.59.318-2.227-.478-.636-1.591-.795-2.228-.318l-12.409 9.227h-4.295c-.477 0-.795.16-1.114.478l-3.181 3.181c-.637.637-.637 1.591 0 2.228.636.636 1.59.636 2.227 0l2.704-2.705h43.273l2.705 2.705c.318.318.795.477 1.113.477.318 0 .796-.16 1.114-.477.636-.637.636-1.591 0-2.228l-3.182-3.181c-.318-.319-.636-.478-1.114-.478h-3.5L44.86 12.727h17.182c.796 0 1.432-.477 1.591-1.272.16-.796-.159-1.432-.954-1.75zm-15.91 31.818l-11.772 8.909-10.023-7.477 6.205-4.455c.636-.477.954-1.432.318-2.227-.478-.796-1.432-.955-2.228-.318l-5.727 4.136 1.91-11.136 16.545 11.772c.318.16.636.318.954.318.478 0 .955-.159 1.273-.636.477-.636.318-1.75-.318-2.227L37.7 33.727l6.841-4.932 2.227 12.728zm-5.25-18.932l-4.136-3.341 4.614-3.818 1.75 10.023-8.91 6.363-6.84-4.932 3.182-2.545c.636-.477.795-1.591.159-2.227-.637-.637-1.591-.796-2.228-.16l-3.022 2.387 1.59-8.91 11.773 9.705c.318.318.637.318.955.318.477 0 .954-.159 1.273-.636.477-.636.477-1.75-.16-2.227zm3.023-13.046l-.318-1.909a1.65 1.65 0 00-1.91-1.272 1.65 1.65 0 00-1.272 1.909l.16 1.272h-7.796c-.955 0-1.591.637-1.591 1.591 0 .955.636 1.591 1.59 1.591h7l-5.408 4.455-6.523-5.41.636-3.659c.16-.795-.477-1.59-1.272-1.75-.796-.159-1.75.478-1.91 1.273l-.318 1.91H15.268L29.11 3.181H41.2l13.841 6.363h-10.5z"/></g><defs><clipPath id="clip0"><path fill="#fff" d="M0 0h70v70H0z"/></clipPath></defs></svg>