<svg width="70" height="62" viewBox="0 0 70 62" fill="none" xmlns="http://www.w3.org/2000/svg"><path d="M68.833 59h-3.5A1.166 1.166 0 1063 59h-9.333a1.166 1.166 0 10-2.334 0H42a1.166 1.166 0 10-2.333 0h-9.334A1.167 1.167 0 0028 59h-9.333a1.167 1.167 0 00-2.334 0H7a1.167 1.167 0 00-2.333 0h-3.5a1.167 1.167 0 000 2.333h67.666a1.166 1.166 0 100-2.333zm0-25.667c-.645 0-1.166.523-1.166 1.167v1.166h-2.334V13.5c0-.644-.521-1.167-1.166-1.167H5.833c-.644 0-1.166.523-1.166 1.167v22.166H2.333V34.5A1.167 1.167 0 000 34.5v4.666a1.167 1.167 0 002.333 0V38h2.334v10.5A1.167 1.167 0 007 48.5V38h52.5a1.166 1.166 0 100-2.334H7v-9.333h52.5a1.166 1.166 0 100-2.333H7v-9.334h56v29.167c0 1.563-1.037 2.875-2.454 3.323-.644-3.864-4.002-6.823-8.046-6.823-4.502 0-8.167 3.663-8.167 8.167 0 4.503 3.665 8.166 8.167 8.166 4.144 0 7.57-3.105 8.09-7.11 2.696-.513 4.743-2.88 4.743-5.723V38h2.334v1.166a1.166 1.166 0 102.333 0V34.5c0-.644-.521-1.167-1.167-1.167zm-16.333 21a5.84 5.84 0 01-5.833-5.833 5.84 5.84 0 015.833-5.834 5.84 5.84 0 015.833 5.834 5.84 5.84 0 01-5.833 5.833zM9.978 9.875c.574.29 1.277.056 1.566-.518.386-.767 1.051-1.607 1.29-1.69.606 0 2.135.622 2.979 1.043.373.186.82.16 1.169-.073l3.433-2.289c.588-.276 1.727-.559 2.095-.19.25.25 1.168.991 2.537.098.521-.34 1.04-.86 1.591-1.41.78-.779 1.846-1.846 2.53-1.846 2.112 0 4.666 1.04 4.666 2.333 0 1.74.728 2.63 1.338 3.07 1.479 1.065 3.474.445 3.698.37.098-.032.19-.079.277-.135 1.22-.812 2.824-1.449 3.196-1.314 1.285 1.286 3.7 2.502 3.803 2.553a1.17 1.17 0 001.627-.675c.19-.57 1.154-2.702 2.394-2.702 1.284 0 3.044 2.009 3.698 2.982a1.166 1.166 0 001.794.176l1.508-1.509 1.51 1.509a1.165 1.165 0 101.649-1.65l-2.334-2.333a1.165 1.165 0 00-1.65 0l-1.391 1.392c-1.017-1.2-2.81-2.9-4.783-2.9-2.08 0-3.383 1.753-4.057 3.03-.728-.43-1.595-.998-2.119-1.522-1.63-1.632-4.82.167-5.985.92-.362.088-1.1.181-1.47-.085-.305-.22-.37-.762-.37-1.177 0-3.183-4.176-4.666-7-4.666-1.65 0-2.993 1.343-4.179 2.529-.341.34-.82.82-1.13 1.05-1.723-1.301-4.247-.105-4.545.044a1.151 1.151 0 00-.127.072l-2.95 1.967c-.87-.393-2.374-.996-3.402-.996-1.752 0-3.027 2.28-3.377 2.979a1.167 1.167 0 00.521 1.563z" fill="#fff"/><path d="M25.572 49.666h15.26a1.166 1.166 0 100-2.333h-15.26c-.568-3.951-3.968-7-8.073-7-4.504 0-8.167 3.663-8.167 8.167 0 4.503 3.663 8.166 8.167 8.166 4.105 0 7.505-3.048 8.073-7zM11.665 48.5a5.84 5.84 0 015.834-5.834 5.84 5.84 0 015.833 5.834 5.84 5.84 0 01-5.833 5.833 5.84 5.84 0 01-5.834-5.833zM52.5 45c-1.93 0-3.5 1.57-3.5 3.5s1.57 3.5 3.5 3.5 3.5-1.57 3.5-3.5-1.57-3.5-3.5-3.5zm0 4.666a1.168 1.168 0 010-2.333 1.168 1.168 0 010 2.333z" fill="#fff"/><path d="M21 48.5c0-1.93-1.57-3.5-3.5-3.5S14 46.57 14 48.5s1.57 3.5 3.5 3.5 3.5-1.57 3.5-3.5zm-4.667 0c0-.643.524-1.167 1.167-1.167s1.167.524 1.167 1.166c0 .643-.524 1.167-1.167 1.167a1.168 1.168 0 01-1.167-1.166z" fill="#fff"/></svg>