<svg width="70" height="66" viewBox="0 0 70 66" fill="none" xmlns="http://www.w3.org/2000/svg"><path d="M47.833 37.666H22.167a1.167 1.167 0 000 2.334h25.666a1.167 1.167 0 000-2.334zm0-4.666H22.167a1.167 1.167 0 000 2.333h25.666a1.167 1.167 0 000-2.333z" fill="#fff"/><path d="M56 9.666h-3.5c-.644 0-1.167.523-1.167 1.167v37.334a1.167 1.167 0 002.334 0V12H56c6.433 0 11.667 5.234 11.667 11.666V40c0 6.433-5.234 11.666-11.667 11.666H22.167a1.167 1.167 0 000 2.334H56c7.72 0 14-6.28 14-14V23.666c0-7.72-6.28-14-14-14zM24.5 7.333c.645 0 1.168-.522 1.168-1.166 0-1.93 1.57-3.5 3.5-3.5H38.5c1.93 0 3.5 1.57 3.5 3.5a1.167 1.167 0 002.333 0A5.84 5.84 0 0038.501.333h-9.334a5.84 5.84 0 00-5.833 5.834c0 .644.523 1.167 1.167 1.167z" fill="#fff"/><path d="M47.833 42.334H22.167a1.167 1.167 0 000 2.333h25.666a1.167 1.167 0 000-2.334zm0-14H22.167a1.167 1.167 0 000 2.333h25.666a1.167 1.167 0 000-2.334z" fill="#fff"/><path d="M17.5 14.334c-.644 0-1.167.522-1.167 1.166v36.167H14C7.567 51.667 2.333 46.433 2.333 40V23.667C2.333 17.234 7.567 12 14 12h33.833a1.167 1.167 0 000-2.333H14c-7.72 0-14 6.28-14 14V40c0 7.72 6.28 14 14 14h3.5c.644 0 1.167-.522 1.167-1.166V15.5c0-.644-.523-1.166-1.167-1.166z" fill="#fff"/><path d="M47.833 47H22.167a1.167 1.167 0 000 2.333h25.666a1.167 1.167 0 000-2.333zM28.034 57.5c0-.644-.521-1.166-1.166-1.166h-.012a1.16 1.16 0 00-1.16 1.166c0 .644.528 1.167 1.172 1.167.645 0 1.166-.523 1.166-1.167z" fill="#fff"/><path d="M47.833 56.334c-.644 0-1.166.522-1.166 1.166v2.334c0 1.93-1.57 3.5-3.5 3.5H26.833c-1.93 0-3.5-1.57-3.5-3.5V57.5a1.167 1.167 0 00-2.333 0v2.334a5.84 5.84 0 005.833 5.833h16.334A5.84 5.84 0 0049 59.833V57.5c0-.644-.523-1.166-1.167-1.166zm0-32.668H22.167a1.167 1.167 0 000 2.334h25.666a1.167 1.167 0 000-2.334z" fill="#fff"/><path d="M44.368 57.5c0-.644-.521-1.166-1.166-1.166h-.012a1.16 1.16 0 00-1.16 1.166c0 .644.528 1.167 1.172 1.167.645 0 1.166-.523 1.166-1.167zm3.465-43.166H22.167a1.167 1.167 0 000 2.333h25.666a1.167 1.167 0 000-2.334zm0 4.666H22.167a1.167 1.167 0 000 2.333h25.666a1.167 1.167 0 000-2.333z" fill="#fff"/></svg>