<svg width="70" height="70" viewBox="0 0 70 70" fill="none" xmlns="http://www.w3.org/2000/svg"><g clip-path="url(#clip0)"><path d="M63.217 34.718c-.936 0-1.695.759-1.695 1.695V66.61H43.334V47.654c0-.936-.76-1.695-1.695-1.695H28.361c-.935 0-1.695.76-1.695 1.695v15.031a1.695 1.695 0 003.39 0V49.35h9.888v17.26H8.478V25.122L35 3.868 62.157 25.63a1.695 1.695 0 102.12-2.645L36.06.372a1.694 1.694 0 00-2.12 0L5.723 22.986a1.695 1.695 0 00-.635 1.323v43.996c0 .936.759 1.695 1.695 1.695h56.434c.936 0 1.695-.759 1.695-1.695V36.413c0-.936-.759-1.695-1.695-1.695z" fill="#fff"/></g><defs><clipPath id="clip0"><path fill="#fff" d="M0 0h70v70H0z"/></clipPath></defs></svg>