<svg width="73" height="20" viewBox="0 0 73 20" fill="none" xmlns="http://www.w3.org/2000/svg"><path d="M0 17.481h.35c2.26 0 3.206-1.02 3.288-3.63l.247-8.63H5.86v12.24h2.3V3.182H1.768l-.37 10.79c-.041 1.327-.37 1.47-1.398 1.47v2.04zm14.105-6.568l.926-3.508V17.46h2.035V3.182h-2.488l-1.85 5.895-.822 3.142V3.181H9.892V17.46h2.322l1.891-6.548zm6.82.428h2.57v6.12h2.302V3.182h-2.302v6.12h-2.57v-6.12h-2.261v14.279h2.261v-6.12zm8.773-6.119h3.905v-2.04h-6.167v14.279h6.167v-2.04h-3.905v-4.182h3.104V9.2h-3.104V5.223zm7.629 12.238h-2.322V3.183h2.014v9.037l.822-3.142 1.85-5.895h2.488v14.279h-2.035V7.405l-.925 3.508-1.892 6.548zM39.65 0c-.061.755-.41.938-1.028.938-.596 0-.904-.183-.966-.938h-1.398c.042 1.387.782 2.264 2.364 2.264 1.604 0 2.406-.877 2.406-2.264H39.65zm14.856 3.182h-2.26v12.239h-1.954V3.182h-2.26v12.239h-1.954V3.182h-2.26v14.279h9.496v1.917h2.2v-3.916h-1.008V3.182zm6.454 7.731l.924-3.508V17.46h2.035V3.182h-2.487l-1.85 5.895-.822 3.142V3.181h-2.015V17.46h2.323l1.891-6.548zm9.717 6.547H73l-3.145-7.914L73 3.182h-2.261l-2.96 6.222V3.182h-2.261v14.279h2.26v-4.386l.7-1.305 2.2 5.69z" fill="#0A143D"/></svg>