<svg width="73" height="83" viewBox="0 0 73 83" fill="none" xmlns="http://www.w3.org/2000/svg"><path fill-rule="evenodd" clip-rule="evenodd" d="M36.478.115c-.072.063-.23.18-.352.262a5.035 5.035 0 00-.32.228 2.998 2.998 0 01-.2.15 3.735 3.735 0 00-.192.14c-.084.066-.144.111-.446.332-.07.052-.17.128-.221.169-.107.085-.292.223-.464.346a4.063 4.063 0 00-.228.18c-.06.052-.14.115-.176.14a3.248 3.248 0 00-.177.136 2.11 2.11 0 01-.183.136c-.04.025-.128.097-.198.16s-.172.143-.227.178a1.902 1.902 0 00-.216.172 1.57 1.57 0 01-.192.153c-.041.025-.129.094-.195.154s-.166.14-.223.177c-.057.038-.159.12-.227.184a2.277 2.277 0 01-.219.18 3.399 3.399 0 00-.273.226 2.71 2.71 0 01-.24.199c-.032.02-.158.127-.28.239a3.53 3.53 0 01-.302.255 3.187 3.187 0 00-.289.245 4.804 4.804 0 01-.285.249c-.043.03-.216.186-.387.344-.17.159-.348.315-.394.346-.047.032-.308.272-.582.534a13.77 13.77 0 01-.629.58c-.196.154-2.247 2.2-2.38 2.375-.064.082-.308.348-.545.591a8.226 8.226 0 00-.471.51 3.293 3.293 0 01-.258.299c-.12.126-.272.297-.338.38-.066.082-.195.23-.287.328a2.72 2.72 0 00-.23.275 2.097 2.097 0 01-.192.234 3.155 3.155 0 00-.207.244 4.08 4.08 0 01-.184.225 2.497 2.497 0 00-.163.202 4.082 4.082 0 01-.181.234c-.127.153-.276.346-.442.571-.052.07-.128.17-.17.223-.04.052-.127.165-.19.25l-.212.277a8.435 8.435 0 00-.258.365 6.71 6.71 0 01-.231.328c-.113.14-.388.544-.771 1.133a15.44 15.44 0 01-.265.396c-.036.051-.102.16-.146.242a2.804 2.804 0 01-.14.234c-.034.046-.085.13-.115.187a2.07 2.07 0 01-.114.188 2.719 2.719 0 00-.13.215c-.04.072-.098.17-.13.216a3.659 3.659 0 00-.17.299 8.29 8.29 0 01-.204.375c-.122.208-.442.808-.588 1.105l-.423.854c-.169.34-.332.686-.362.768a4.93 4.93 0 01-.165.367c-.06.12-.108.224-.108.23 0 .017-.194.508-.282.714-.04.092-.077.19-.084.215a2.464 2.464 0 01-.076.197c-.08.19-.141.353-.202.544a8.282 8.282 0 01-.134.374l-.122.318c-.056.15-.228.691-.227.717 0 .013-.02.084-.046.16a3.282 3.282 0 00-.131.479.513.513 0 01-.04.135.771.771 0 00-.046.18 1.27 1.27 0 01-.046.203.556.556 0 00-.028.154.977.977 0 01-.048.223.9.9 0 00-.048.276.733.733 0 01-.03.209 1.703 1.703 0 00-.044.375c-.012.227-.025.325-.055.407-.037.102-.04.142-.04.967 0 .823.003.865.04.98.028.082.045.2.055.381.01.156.027.293.044.337a.72.72 0 01.03.209.9.9 0 00.048.277c.026.078.047.159.047.177 0 .02.017.088.037.152a.83.83 0 01.039.176c0 .032.014.092.03.133.016.042.04.128.055.192.06.265.3.927.438 1.214.04.082.093.204.117.27.059.16.325.701.381.776.024.032.085.135.134.228.077.146.244.423.346.571l.195.289c.09.133.196.28.235.328.039.047.098.125.13.174.033.048.128.16.21.248.082.089.179.206.215.26.08.12 1.155 1.189 1.263 1.256.044.027.15.115.236.196.086.08.205.178.264.216.06.038.143.101.187.141.044.04.163.128.264.196.102.067.242.166.31.218.137.105.292.207.513.337.176.103.4.241.594.364.169.107 1.977 1.014 2.06 1.034.031.007.158.06.282.116.124.057.272.119.329.137.158.051.49.176.554.21.031.015.103.041.16.057.056.015.238.075.404.132.166.057.356.116.423.13.066.015.192.05.28.077.157.05.342.098.582.153.067.015.167.044.222.065.054.02.123.036.152.036.03 0 .106.017.17.038.066.02.151.037.192.037a.83.83 0 01.207.047.862.862 0 00.239.048.6.6 0 01.18.029c.041.015.155.035.253.045.098.01.227.034.286.055a.747.747 0 00.256.039c.092 0 .19.013.259.034.067.022.198.04.335.046.15.008.267.024.346.05.105.033.168.038.509.038.338 0 .405.005.507.038.113.036.17.037 1.577.037 1.409 0 1.464-.001 1.578-.037.1-.032.17-.038.46-.038.288 0 .36-.006.457-.036.063-.02.202-.043.308-.05.106-.007.242-.029.303-.048a.923.923 0 01.259-.034.75.75 0 00.256-.038 1.5 1.5 0 01.276-.056 1.4 1.4 0 00.244-.045.517.517 0 01.145-.03.634.634 0 00.169-.037 3.23 3.23 0 01.456-.115c.052-.01.149-.036.216-.056.067-.02.173-.049.235-.062.062-.014.184-.048.272-.075a6.08 6.08 0 01.27-.079c.147-.037.352-.105.5-.167.067-.028.236-.092.376-.14.399-.142.602-.22.713-.279.057-.03.159-.072.227-.094.267-.087 1.182-.582 1.21-.655.02-.052-.022-.066-.123-.043a1.18 1.18 0 01-.212.023.687.687 0 00-.19.029 1.354 1.354 0 01-.256.045c-.099.009-.217.03-.263.047a1.71 1.71 0 01-.327.046 1.79 1.79 0 00-.32.044 1.647 1.647 0 01-.315.039c-.146.007-.27.024-.319.042-.058.022-.186.034-.492.044-.337.011-.429.02-.498.049-.08.033-.166.035-1.624.035h-1.54l-.12-.042c-.104-.036-.158-.042-.413-.042-.235 0-.319-.007-.422-.037a1.9 1.9 0 00-.32-.049 1.628 1.628 0 01-.3-.047.92.92 0 00-.246-.035.898.898 0 01-.248-.036 1.51 1.51 0 00-.26-.05 1.506 1.506 0 01-.26-.048.75.75 0 00-.161-.035.858.858 0 01-.185-.047.839.839 0 00-.208-.047.804.804 0 01-.19-.037.814.814 0 00-.16-.038.925.925 0 01-.172-.04 13.331 13.331 0 01-1.49-.485 3.251 3.251 0 00-.253-.1 10.662 10.662 0 01-.648-.307 7.256 7.256 0 01-.958-.546 7.222 7.222 0 01-.483-.341 1.61 1.61 0 00-.188-.141c-.114-.072-.954-.89-1.05-1.021a9.368 9.368 0 00-.158-.21 9.442 9.442 0 01-.407-.587 9.152 9.152 0 01-.551-1.14 6.062 6.062 0 01-.199-.646 1.97 1.97 0 00-.063-.221.66.66 0 01-.037-.19.81.81 0 00-.035-.2 1.62 1.62 0 01-.048-.3 1.892 1.892 0 00-.05-.319c-.034-.12-.036-.19-.036-1 0-.814.002-.88.037-1.002a1.87 1.87 0 00.05-.365c.008-.145.026-.277.047-.345a.832.832 0 00.035-.207.84.84 0 01.047-.232.834.834 0 00.047-.207c0-.04.017-.125.037-.19a.79.79 0 00.038-.171.82.82 0 01.047-.188.968.968 0 00.047-.164c0-.033.158-.534.254-.799a6.17 6.17 0 00.092-.277 1.27 1.27 0 01.085-.208 1.01 1.01 0 00.076-.182 3.03 3.03 0 01.12-.297c.055-.118.11-.249.124-.29.028-.09.235-.519.643-1.33.375-.748.47-.929.559-1.059.038-.057.097-.158.13-.225.034-.067.089-.16.122-.206.032-.046.092-.143.132-.215.04-.072.104-.178.142-.235a2.05 2.05 0 00.112-.187c.023-.046.106-.18.185-.296.08-.117.172-.256.205-.31a5.18 5.18 0 01.164-.237c.1-.136.226-.316.413-.59a1.9 1.9 0 01.137-.182c.026-.028.086-.105.134-.171a6 6 0 01.416-.535 2.5 2.5 0 00.187-.236c.025-.041.107-.14.182-.22.075-.08.17-.195.21-.256.041-.06.217-.256.392-.435.174-.18.353-.376.398-.438.106-.146 1.028-1.066 1.175-1.172a6.89 6.89 0 00.44-.399c.182-.174.38-.351.442-.393a2.93 2.93 0 00.291-.247c.098-.094.22-.2.273-.234.051-.035.171-.128.267-.205.215-.176.568-.444.84-.638a2.88 2.88 0 00.181-.142c.036-.03.124-.096.196-.144l.29-.201c.343-.243 1.426-.945 1.565-1.015a1.55 1.55 0 00.163-.1c.046-.033.152-.096.235-.14a3.67 3.67 0 00.254-.152c.135-.091 1.686-.864 1.82-.908a3.12 3.12 0 00.292-.123c.103-.05.31-.131.46-.182.15-.05.302-.107.338-.125.09-.046.356-.136.526-.177a5.63 5.63 0 00.3-.084 6.43 6.43 0 01.535-.146c.052-.01.16-.04.24-.064.082-.025.167-.045.19-.045a.81.81 0 00.162-.037.911.911 0 01.236-.038.917.917 0 00.263-.046.882.882 0 01.318-.047c.117 0 .21-.012.284-.035.091-.029.201-.037.647-.048.37-.009.57-.021.639-.04a.561.561 0 01.335 0c.07.02.266.031.638.04.446.011.555.02.647.048.143.045.434.049.496.006.023-.017.041-.047.041-.07 0-.046-.113-.228-.262-.42a6.391 6.391 0 01-.188-.26 7.29 7.29 0 00-.164-.23 8.133 8.133 0 01-.182-.256 1.643 1.643 0 00-.153-.197 1.255 1.255 0 01-.131-.168 8.027 8.027 0 00-.362-.487 3.882 3.882 0 01-.141-.193 1.97 1.97 0 00-.147-.177 2.122 2.122 0 01-.178-.226 1.923 1.923 0 00-.175-.218 1.745 1.745 0 01-.158-.194 2.077 2.077 0 00-.163-.203 2.795 2.795 0 01-.173-.213 2.958 2.958 0 00-.205-.242 2.675 2.675 0 01-.217-.262 2.412 2.412 0 00-.213-.255c-.079-.083-.18-.2-.225-.262a5.216 5.216 0 00-.277-.326 3.485 3.485 0 01-.24-.286 4.826 4.826 0 00-.33-.367 4.81 4.81 0 01-.337-.378 8.341 8.341 0 00-.476-.52 8.068 8.068 0 01-.473-.516c-.089-.14-3.662-3.707-3.867-3.86a8.164 8.164 0 01-.509-.468C36.771.015 36.753 0 36.681 0c-.064 0-.091.015-.203.115zm6.467 15.23a1.623 1.623 0 01-.385.048 1.744 1.744 0 00-.388.048.934.934 0 01-.275.035.862.862 0 00-.308.047 1.073 1.073 0 01-.178.047.85.85 0 00-.152.037.845.845 0 01-.21.038.49.49 0 00-.162.03c-.07.03-.226.076-.464.137-.34.087-.736.232-1.291.472-.143.062-.29.123-.33.137a9.62 9.62 0 00-.848.423 3.63 3.63 0 01-.254.148 4.836 4.836 0 00-.3.18l-.291.188c-.173.11-.202.129-.367.242-.072.05-.231.158-.354.24a6.075 6.075 0 00-.32.227 3.146 3.146 0 01-.161.123 4.208 4.208 0 00-.216.17 3.109 3.109 0 01-.207.16c-.03.02-.145.115-.253.212a3.35 3.35 0 01-.272.223 2.565 2.565 0 00-.254.218 4.338 4.338 0 01-.32.276c-.171.128-1.378 1.337-1.465 1.468-.034.051-.17.203-.3.337-.131.134-.26.279-.288.322-.027.044-.102.14-.167.214a4.146 4.146 0 00-.202.252 7.31 7.31 0 01-.331.438c-.07.08-.185.244-.452.648a66.52 66.52 0 01-.341.51c-.079.117-.19.294-.247.394-.057.1-.13.22-.163.268a2.021 2.021 0 00-.122.215c-.111.228-.34.651-.412.764a1.09 1.09 0 00-.102.206 5.068 5.068 0 01-.177.397c-.172.353-.255.54-.274.618-.007.03-.04.111-.074.178a2.085 2.085 0 00-.094.225 2.389 2.389 0 01-.096.233.853.853 0 00-.063.155c0 .034-.069.23-.146.418-.086.207-.15.394-.185.533-.03.119-.154.529-.214.703a4.18 4.18 0 00-.115.46 3.02 3.02 0 01-.065.234 1.034 1.034 0 00-.045.18.821.821 0 01-.038.156.798.798 0 00-.037.19c0 .04-.021.134-.047.208a.855.855 0 00-.048.238.637.637 0 01-.029.18 1.243 1.243 0 00-.044.227.82.82 0 01-.05.216.813.813 0 00-.045.269 1.042 1.042 0 01-.038.253c-.015.027-.03.144-.037.28-.01.18-.021.25-.049.3-.034.063-.036.122-.041 1.188-.005 1-.002 1.127.025 1.167.019.03.044.044.07.04.04-.006.034.01.25-.68a8.51 8.51 0 00.082-.281c.065-.241.094-.336.2-.637.057-.165.12-.35.138-.413.02-.062.057-.171.085-.243.028-.072.066-.182.084-.244.019-.062.057-.163.085-.225.028-.061.07-.167.094-.234.024-.067.081-.202.127-.3a3.08 3.08 0 00.108-.252c.028-.089.195-.438.525-1.097.312-.623.42-.825.497-.932.034-.049.09-.143.124-.21a2.29 2.29 0 01.13-.225l.147-.225a27.542 27.542 0 01.62-.911c.24-.343.352-.49.444-.588a1.79 1.79 0 00.17-.216 2.7 2.7 0 01.263-.309 3.01 3.01 0 00.255-.29c.083-.125 1.137-1.185 1.27-1.277.057-.04.198-.157.313-.26.115-.104.243-.209.284-.234a1.37 1.37 0 00.179-.142c.215-.202.71-.509 1.286-.797.3-.15.6-.29.667-.312.067-.021.27-.09.45-.152.181-.063.351-.114.378-.114a.807.807 0 00.167-.038.813.813 0 01.195-.037c.042 0 .15-.022.24-.048l.162-.048.861.007c.767.006.87.01.944.04.046.017.164.04.263.05.1.008.214.029.255.044a.49.49 0 00.132.029c.03 0 .153.034.272.075.119.041.263.084.32.094.058.01.18.053.273.094a1.3 1.3 0 00.192.075c.013 0 .11.037.216.082a3.1 3.1 0 00.238.096c.088.025.704.333.81.405.06.04.207.124.33.187.122.064.251.138.287.166.037.027.142.099.235.159.181.117.25.165.402.282.294.228.38.291.454.338.046.029.163.13.262.224.098.094.241.218.319.275.172.128 1.076 1.02 1.164 1.15.035.05.157.194.272.319.114.124.241.273.282.33.042.059.143.182.225.275.146.163.23.271.4.512.044.062.114.152.157.2.042.048.098.125.125.171.026.047.072.115.102.153.083.108.181.247.493.7a13.583 13.583 0 01.408.627c.026.047.094.16.152.253a18.783 18.783 0 011.019 1.827c.46.916.678 1.364.728 1.499.052.139.14.352.289.703.112.262.295.76.316.857.007.033.041.116.075.183a1.3 1.3 0 01.083.206c.013.046.055.177.094.29.04.113.086.248.102.3.109.334.14.441.158.524.01.052.05.18.086.287.037.107.068.22.069.253 0 .033.014.093.03.135.016.04.044.138.063.215.044.183.103.384.139.478.015.041.029.11.029.152 0 .043.018.13.038.195a.785.785 0 01.038.159c0 .023.021.106.047.185a.95.95 0 01.047.225.85.85 0 00.037.199.81.81 0 01.038.158c0 .023.021.112.047.198.026.087.047.203.047.263 0 .059.017.16.037.224a.816.816 0 01.038.205c0 .048.021.158.047.245.033.111.047.2.047.31a.89.89 0 00.037.27.933.933 0 01.038.3c0 .135.012.231.047.364.042.162.047.216.047.543 0 .31.005.379.037.48.036.111.038.168.038 1.19 0 1.02-.002 1.077-.038 1.189-.031.099-.037.169-.037.449 0 .3-.005.347-.047.488a.985.985 0 00-.047.31.894.894 0 01-.038.27.89.89 0 00-.037.246.872.872 0 01-.047.272.944.944 0 00-.047.223.814.814 0 01-.038.196.784.784 0 00-.037.171.88.88 0 01-.045.19 2.722 2.722 0 00-.064.23c-.041.196-.14.53-.239.815a9.981 9.981 0 00-.087.262 1.87 1.87 0 01-.09.225 1.498 1.498 0 00-.084.21 1.2 1.2 0 01-.079.197 3.617 3.617 0 00-.123.277 5.593 5.593 0 01-.332.663 11.977 11.977 0 01-.67 1.095c-.095.134-.083.237.028.237a.832.832 0 00.167-.038.89.89 0 01.218-.037.84.84 0 00.21-.035c.06-.02.173-.042.25-.05.078-.007.191-.03.252-.048a.876.876 0 01.216-.036c.058 0 .14-.014.18-.029.042-.015.14-.036.217-.046.077-.01.189-.035.248-.056a.781.781 0 01.207-.038.624.624 0 00.174-.028 1.29 1.29 0 01.216-.047c.077-.01.189-.035.248-.056a.681.681 0 01.165-.037.631.631 0 00.159-.035c.056-.02.138-.042.182-.049.045-.006.13-.028.19-.048a.81.81 0 01.206-.037.595.595 0 00.174-.03c.077-.03.303-.089.47-.122.05-.01.148-.035.215-.056.114-.035.235-.065.46-.114.052-.01.16-.04.24-.064.081-.025.162-.044.18-.044.033 0 .212-.05.378-.106.047-.016.15-.045.23-.065l.291-.072c.08-.02.218-.059.306-.086a5.43 5.43 0 01.3-.085c.17-.04.376-.104.63-.194.102-.036.208-.066.234-.066.046 0 .436-.12.854-.264.313-.108.383-.13.526-.168.287-.075.737-.218.911-.289a5.28 5.28 0 01.253-.086c.104-.033.256-.087.338-.12.14-.057.268-.102.846-.295.123-.041.284-.1.356-.13.199-.08.686-.253.76-.27a.991.991 0 00.178-.07c.102-.05.202-.088.48-.18.057-.02.172-.066.257-.103.084-.038.163-.068.175-.068.013 0 .109-.037.213-.082.105-.045.25-.101.322-.124.234-.073.281-.093.388-.16a.533.533 0 00.233-.302c.032-.088.032-.1.002-.218a1.055 1.055 0 01-.031-.2.707.707 0 00-.037-.183 1.586 1.586 0 01-.056-.24 1.302 1.302 0 00-.047-.205.66.66 0 01-.028-.183.834.834 0 00-.037-.215c-.02-.06-.046-.17-.057-.246a.834.834 0 00-.041-.176.94.94 0 01-.035-.21.852.852 0 00-.046-.234.826.826 0 01-.048-.217.844.844 0 00-.038-.197.881.881 0 01-.037-.205.846.846 0 00-.046-.224.807.807 0 01-.048-.208.833.833 0 00-.037-.186.81.81 0 01-.038-.178.801.801 0 00-.048-.198.802.802 0 01-.047-.202 1.29 1.29 0 00-.045-.219.465.465 0 01-.028-.122 1.16 1.16 0 00-.046-.197 3.389 3.389 0 01-.067-.248 3.674 3.674 0 00-.096-.407 3.853 3.853 0 01-.063-.234 27.108 27.108 0 00-.263-1.05 5.447 5.447 0 01-.052-.215 2.033 2.033 0 00-.047-.178 3.862 3.862 0 01-.062-.225 8.118 8.118 0 00-.075-.281 10.571 10.571 0 01-.068-.243 8.79 8.79 0 00-.064-.23l-.075-.253a7.327 7.327 0 01-.063-.23 5.711 5.711 0 00-.076-.262 8.286 8.286 0 01-.086-.29 8.011 8.011 0 00-.178-.587 1.72 1.72 0 01-.066-.224c0-.017-.026-.107-.057-.2l-.225-.685a53.438 53.438 0 00-.218-.656 8.778 8.778 0 01-.093-.28 6.67 6.67 0 00-.131-.366c-.16-.409-.182-.467-.216-.59a4.51 4.51 0 00-.122-.347 24.286 24.286 0 01-.171-.45 11.496 11.496 0 00-.137-.355 2.813 2.813 0 01-.077-.207 1.508 1.508 0 00-.08-.187 2.44 2.44 0 01-.099-.234 10.82 10.82 0 00-.3-.732 2.616 2.616 0 01-.121-.301c0-.016-.05-.13-.112-.254a4.258 4.258 0 01-.162-.363 5.447 5.447 0 00-.177-.402 4.108 4.108 0 01-.15-.337c-.035-.115-1.245-2.529-1.352-2.698a6.33 6.33 0 01-.23-.412 4.738 4.738 0 00-.203-.367 3.995 3.995 0 01-.17-.29 4.155 4.155 0 00-.168-.29 2.562 2.562 0 01-.13-.224 1.512 1.512 0 00-.111-.186 2.574 2.574 0 01-.134-.21 40.336 40.336 0 00-1.4-2.122 5.398 5.398 0 00-.156-.21 11.46 11.46 0 01-.547-.747 1.795 1.795 0 00-.156-.196 2.075 2.075 0 01-.173-.219 2.123 2.123 0 00-.176-.222 2.43 2.43 0 01-.172-.211 3.006 3.006 0 00-.209-.25 2.984 2.984 0 01-.215-.26 3.1 3.1 0 00-.24-.28 4.397 4.397 0 01-.284-.333c-.148-.2-2.563-2.608-2.741-2.732a2.688 2.688 0 01-.254-.207 3.39 3.39 0 00-.272-.224 3.93 3.93 0 01-.218-.17 20.148 20.148 0 00-1.307-.857l-.56-.279a17.774 17.774 0 00-.544-.264 9.687 9.687 0 00-1.38-.482 2.24 2.24 0 01-.216-.063.509.509 0 00-.141-.03.537.537 0 01-.14-.03 1.313 1.313 0 00-.207-.046 1.607 1.607 0 01-.24-.056.79.79 0 00-.256-.037.924.924 0 01-.258-.035c-.079-.025-.2-.038-.425-.048-.232-.01-.345-.022-.43-.05-.106-.033-.17-.036-.859-.035-.675.002-.754.005-.85.037zm-3.602 9.575c0 .057.072.186.153.275.04.043.104.127.142.187.038.06.113.155.167.211.053.057.133.154.176.216.043.062.132.175.198.253.066.077.147.18.182.228.097.136.242.328.335.443.046.058.186.258.31.443l.285.422.153.234c.053.083.12.185.15.227.03.042.115.172.187.29l.226.364c.051.082.144.247.205.365.14.266.186.35.235.42.044.061.596 1.152.596 1.178 0 .009.054.14.12.291.066.152.13.309.143.35.013.041.051.13.085.198.034.067.072.16.084.205.012.046.043.124.068.173.063.125.432 1.24.446 1.35a.493.493 0 00.038.14.811.811 0 01.049.173c.012.067.03.135.039.153a.83.83 0 01.036.165c.01.074.03.157.045.185a.808.808 0 01.049.172c.012.066.03.136.04.156.011.02.027.114.035.208.008.1.028.2.047.236.02.039.039.136.048.251.009.104.028.222.044.263a.886.886 0 01.03.265c0 .146.01.217.042.31.04.115.041.143.042.887 0 .747 0 .771-.042.896a.855.855 0 00-.042.293.901.901 0 01-.038.282.856.856 0 00-.038.203.56.56 0 01-.03.162 3.44 3.44 0 00-.063.197 5.24 5.24 0 01-.084.262 7.449 7.449 0 00-.085.253c-.086.281-.129.381-.341.806a5.965 5.965 0 01-.313.549c-.08.116-.169.251-.198.3a1.29 1.29 0 01-.118.159 1.54 1.54 0 00-.131.178c-.087.139-.965 1.008-1.2 1.189-.332.253-.79.561-.97.652-.066.033-.145.08-.177.104-.063.048-.678.364-.862.443-.062.026-.21.086-.329.132l-.478.188c-.297.116-.711.255-.76.255-.018 0-.137.034-.266.076a3.241 3.241 0 01-.348.093.951.951 0 00-.178.045 1.118 1.118 0 01-.204.047 1.378 1.378 0 00-.216.048.626.626 0 01-.174.028.767.767 0 00-.207.039c-.06.021-.188.046-.286.055a1.35 1.35 0 00-.253.046.94.94 0 01-.275.029.96.96 0 00-.32.039c-.095.03-.19.04-.476.05-.27.008-.383.019-.467.045-.104.033-.202.035-1.645.035-1.444 0-1.542-.002-1.646-.035-.086-.027-.196-.037-.505-.046-.325-.009-.415-.018-.514-.05-.094-.03-.17-.038-.357-.038-.165-.001-.26-.01-.312-.03a1.524 1.524 0 00-.29-.045 1.414 1.414 0 01-.324-.054.76.76 0 00-.263-.04.827.827 0 01-.23-.029 1.337 1.337 0 00-.245-.045 1.487 1.487 0 01-.276-.056.764.764 0 00-.212-.038.79.79 0 01-.211-.037 1.608 1.608 0 00-.24-.056 1.3 1.3 0 01-.206-.047.535.535 0 00-.146-.028.732.732 0 01-.178-.037 3.919 3.919 0 00-.446-.116 2.673 2.673 0 01-.216-.056 3.61 3.61 0 00-.235-.062 3.894 3.894 0 01-.272-.075 5.561 5.561 0 00-.3-.085 5.287 5.287 0 01-.545-.168 2.19 2.19 0 00-.263-.076 1.327 1.327 0 01-.198-.055 4.791 4.791 0 00-.253-.085 4.924 4.924 0 01-.338-.122 9.49 9.49 0 00-.47-.168 7.467 7.467 0 01-.44-.16 9.713 9.713 0 00-.282-.114 3.892 3.892 0 01-.292-.13 2.021 2.021 0 00-.27-.111 3.408 3.408 0 01-.385-.169 4.265 4.265 0 00-.35-.16 7.85 7.85 0 01-.835-.411 6.427 6.427 0 00-.423-.234 5.08 5.08 0 01-.375-.207 1.435 1.435 0 00-.17-.099 9.123 9.123 0 01-.7-.423 1.635 1.635 0 00-.19-.115 3.489 3.489 0 01-.296-.185 10.106 10.106 0 00-.302-.2 2.802 2.802 0 01-.214-.15 6.275 6.275 0 00-.24-.178 8.96 8.96 0 01-.27-.196 4.721 4.721 0 00-.21-.153 3.51 3.51 0 01-.258-.21 3.07 3.07 0 00-.263-.212 2.745 2.745 0 01-.276-.24c-.308-.296-.396-.374-.518-.466a2.81 2.81 0 01-.47-.481 3.75 3.75 0 00-.3-.337 3.859 3.859 0 01-.295-.33 2.756 2.756 0 00-.173-.22 2.734 2.734 0 01-.172-.221 1.28 1.28 0 00-.109-.143 3.55 3.55 0 01-.206-.285 79.41 79.41 0 00-.2-.3l-.138-.206a4.152 4.152 0 01-.171-.29 6.473 6.473 0 00-.177-.31 5.66 5.66 0 01-.356-.711c-.02-.057-.082-.2-.138-.319a3.686 3.686 0 01-.127-.29c-.051-.16-.142-.223-.21-.145-.063.07-.256.476-.306.641a6.14 6.14 0 01-.16.347c-.08.165-.156.334-.17.375a3.07 3.07 0 01-.117.27 4.097 4.097 0 00-.127.291 5.285 5.285 0 01-.126.3 4.287 4.287 0 00-.126.31 2.018 2.018 0 01-.095.225 1.688 1.688 0 00-.09.215 2.685 2.685 0 01-.094.244 1.907 1.907 0 00-.08.206c-.008.03-.039.11-.069.178a6.83 6.83 0 00-.137.346c-.045.124-.12.326-.168.45a7.942 7.942 0 00-.123.337 9.723 9.723 0 01-.21.581 5.092 5.092 0 00-.108.3c-.022.072-.053.16-.067.197-.033.08-.168.474-.215.627a7.715 7.715 0 01-.084.253 8.467 8.467 0 00-.085.253 9.01 9.01 0 01-.084.253 5.99 5.99 0 00-.084.262c-.02.067-.058.185-.086.263a2.419 2.419 0 00-.07.234c-.01.051-.05.19-.09.309-.038.118-.097.308-.13.421a20 20 0 01-.215.722 2.65 2.65 0 00-.086.311.762.762 0 01-.047.165.807.807 0 00-.047.158c0 .037-.052.221-.115.41a4.468 4.468 0 00-.124.483c-.02.083-.041.16-.048.172-.013.02-.059.184-.117.418a5.376 5.376 0 01-.063.225 2.953 2.953 0 00-.057.215 4.013 4.013 0 01-.121.469.5.5 0 00-.03.144.59.59 0 01-.028.15c-.015.044-.04.135-.055.202a1.71 1.71 0 01-.056.197.474.474 0 00-.03.135.567.567 0 01-.028.14c-.015.045-.04.136-.055.203s-.04.155-.056.196a.517.517 0 00-.03.152c0 .042-.022.145-.047.23-.058.192-.08.404-.05.493a.372.372 0 00.082.123c.06.058.342.2.493.248.041.013.168.068.281.122.114.053.24.108.282.122.041.013.179.073.305.132.127.06.279.123.338.14a1.1 1.1 0 01.193.078c.046.026.169.08.272.121.103.04.255.103.338.137.083.035.273.111.423.169.15.058.34.133.422.169.234.099.669.267.82.317.076.024.194.07.261.1.068.031.22.088.338.127.118.038.287.102.375.14.087.04.185.077.216.084.03.006.149.045.263.084.113.04.253.087.31.104.056.017.204.071.328.12.124.05.31.118.413.152l.395.131c.285.097.439.144.516.159.036.006.171.049.3.094.13.045.299.1.376.122.077.022.238.072.357.112.119.04.266.085.328.1.062.016.185.051.273.079.088.027.223.065.3.084.078.019.213.056.3.084.088.028.224.065.301.082a.964.964 0 01.167.047c.027.017.212.07.434.123.078.019.175.047.216.063a.48.48 0 00.136.03.54.54 0 01.14.028c.045.015.136.04.203.054.067.015.156.04.197.057.041.016.103.03.136.03.034 0 .11.016.17.036.123.04.308.09.445.117.052.01.17.04.264.064.094.025.196.046.228.046a.79.79 0 01.175.037c.064.02.142.038.171.038.03 0 .103.017.162.037.06.02.172.046.25.056a1.3 1.3 0 01.215.046c.041.015.11.028.152.029a1.1 1.1 0 01.233.047 1.1 1.1 0 00.235.047c.044 0 .132.017.197.038a.84.84 0 00.206.037c.048 0 .158.021.245.047.089.026.206.047.27.047.063 0 .148.014.19.03.04.015.16.035.263.043.119.01.213.028.254.049.044.023.13.037.272.046.114.007.227.024.253.038.025.013.143.03.262.039.139.01.255.028.324.053a.79.79 0 00.3.04c.128 0 .22.01.269.03.046.017.182.035.347.044.2.01.301.025.38.054.09.033.15.04.378.04.21 0 .294.007.38.034.083.026.198.038.46.047.273.009.373.02.467.05.106.033.169.037.602.037.445 0 .493.003.603.04l.12.04h2.347l2.348.001.12-.04c.11-.038.157-.04.584-.04.417 0 .477-.005.584-.04.092-.029.198-.041.458-.052.23-.01.353-.023.385-.04.032-.018.144-.03.347-.038.243-.009.314-.017.367-.046.047-.025.128-.039.29-.049.125-.008.26-.027.301-.043a.778.778 0 01.227-.03.793.793 0 00.286-.047.78.78 0 01.254-.047.922.922 0 00.238-.037.865.865 0 01.215-.038c.056 0 .155-.02.232-.047a.851.851 0 01.217-.046.824.824 0 00.2-.038.82.82 0 01.195-.038.996.996 0 00.223-.046.98.98 0 01.218-.047.79.79 0 00.19-.038.81.81 0 01.157-.037c.022 0 .108-.02.19-.045a3.8 3.8 0 01.245-.065c.223-.044.442-.11 1.126-.333.3-.098.591-.202.648-.23.057-.029.15-.067.207-.085.123-.04 1.049-.49 1.15-.56.04-.027.141-.089.226-.137.205-.117.443-.272.61-.4.183-.14.43-.325.52-.39.042-.03.148-.12.235-.2.088-.08.194-.166.235-.192.091-.055.566-.535.672-.68.042-.056.138-.168.214-.248.076-.08.169-.193.207-.251.037-.059.115-.158.173-.22a2.54 2.54 0 00.215-.283l.21-.318c.054-.083.122-.192.151-.244.029-.051.085-.141.124-.2.04-.059.198-.358.351-.665.292-.583.385-.783.407-.877.008-.031.042-.112.076-.18a1.29 1.29 0 00.085-.214 2.59 2.59 0 01.077-.232c.03-.078.071-.197.09-.264l.085-.29a4.63 4.63 0 00.069-.263c.01-.051.04-.16.064-.24.025-.08.045-.166.045-.19 0-.023.017-.096.037-.16a.915.915 0 00.038-.232c0-.063.017-.174.038-.246.021-.072.046-.232.055-.356.01-.123.03-.262.047-.307.027-.074.03-.24.03-1.488 0-1.34-.001-1.41-.036-1.528a1.668 1.668 0 01-.048-.349 1.738 1.738 0 00-.048-.356 1.114 1.114 0 01-.039-.29.863.863 0 00-.028-.235 1.348 1.348 0 01-.047-.224 1.974 1.974 0 00-.056-.27 1.015 1.015 0 01-.038-.243.694.694 0 00-.03-.2 1.247 1.247 0 01-.048-.168 3.221 3.221 0 00-.055-.214.873.873 0 01-.035-.173.694.694 0 00-.036-.16 1.628 1.628 0 01-.049-.174 1.65 1.65 0 00-.048-.174.732.732 0 01-.037-.168.476.476 0 00-.03-.136 2.22 2.22 0 01-.063-.216 3.905 3.905 0 00-.152-.505 4.635 4.635 0 01-.094-.282 9.048 9.048 0 00-.119-.365c-.26-.748-.29-.831-.484-1.283a24.351 24.351 0 01-.121-.29c-.163-.401-.979-2.035-1.085-2.174a3.064 3.064 0 01-.152-.254c-.12-.218-.117-.213-.507-.805-.32-.484-.311-.472-.432-.646a27.55 27.55 0 01-.162-.237 2.426 2.426 0 00-.147-.194 1.002 1.002 0 01-.113-.158 1.045 1.045 0 00-.127-.172 1.477 1.477 0 01-.137-.176 1.792 1.792 0 00-.165-.205 1.978 1.978 0 01-.166-.203 2.9 2.9 0 00-.232-.27 3.146 3.146 0 01-.256-.302c-.139-.21-2.009-2.084-2.256-2.261a4.42 4.42 0 01-.256-.208 2.568 2.568 0 00-.236-.186 1.897 1.897 0 01-.178-.132 4.428 4.428 0 00-.302-.219 14.277 14.277 0 00-.459-.303l-.263-.171c-.15-.1-.352-.196-.408-.196-.03 0-.043.011-.043.039z" fill="#2E56F6"/><path d="M0 81.103h.35c2.26 0 3.206-1.02 3.288-3.631l.247-8.628H5.86v12.238h2.3V66.804H1.768l-.37 10.79c-.041 1.326-.37 1.469-1.398 1.469v2.04zm14.105-6.568l.926-3.509v10.056h2.035V66.804h-2.488l-1.85 5.895-.822 3.141v-9.036H9.892v14.278h2.322l1.891-6.547zm6.82.428h2.57v6.12h2.302v-14.28h-2.302v6.12h-2.57v-6.12h-2.261v14.28h2.261v-6.12zm8.773-6.119h3.905v-2.04h-6.167v14.278h6.167v-2.04h-3.905v-4.181h3.104v-2.04h-3.104v-3.977zm7.629 12.238h-2.322V66.804h2.014v9.036l.822-3.141 1.85-5.895h2.488v14.278h-2.035V71.026l-.925 3.509-1.892 6.547zm2.323-17.46c-.061.754-.41.938-1.028.938-.596 0-.904-.184-.966-.938h-1.398c.042 1.387.782 2.264 2.364 2.264 1.604 0 2.406-.877 2.406-2.264H39.65zm14.856 3.182h-2.26v12.239h-1.954v-12.24h-2.26v12.24h-1.954v-12.24h-2.26v14.28h9.496V83h2.2v-3.917h-1.008v-12.28zm6.454 7.731l.924-3.509v10.056h2.035V66.804h-2.487l-1.85 5.895-.822 3.141v-9.036h-2.015v14.278h2.323l1.891-6.547zm9.717 6.547H73l-3.145-7.914L73 66.804h-2.261l-2.96 6.221v-6.221h-2.261v14.278h2.26v-4.385l.7-1.306 2.2 5.691z" fill="#0A143D"/></svg>