<svg width="40" height="38" viewBox="0 0 40 38" fill="none" xmlns="http://www.w3.org/2000/svg"><path fill-rule="evenodd" clip-rule="evenodd" d="M19.985.079a2.742 2.742 0 01-.241.18 3.457 3.457 0 00-.22.157c-.036.03-.097.076-.136.102-.039.027-.098.07-.132.096a8.993 8.993 0 01-.305.229 5.652 5.652 0 00-.152.116c-.073.058-.2.153-.317.238a2.784 2.784 0 00-.157.123 1.831 1.831 0 01-.12.096c-.025.017-.08.059-.121.093a1.583 1.583 0 01-.126.094 1.367 1.367 0 00-.136.11 1.467 1.467 0 01-.155.122 1.315 1.315 0 00-.148.118 1.07 1.07 0 01-.131.105 1.154 1.154 0 00-.134.106 1.58 1.58 0 01-.153.122 1.496 1.496 0 00-.155.126 1.56 1.56 0 01-.15.123c-.035.024-.12.094-.187.156a1.847 1.847 0 01-.164.136 2.383 2.383 0 00-.192.164 2.416 2.416 0 01-.207.175c-.03.02-.12.096-.198.169-.079.073-.167.15-.195.17a5.436 5.436 0 00-.265.237 4.347 4.347 0 01-.27.238 7.96 7.96 0 00-.399.367c-.187.18-.38.359-.43.398-.135.105-1.54 1.51-1.631 1.63-.043.057-.211.24-.373.407a5.653 5.653 0 00-.323.35 2.268 2.268 0 01-.177.205 5.601 5.601 0 00-.23.26 4.744 4.744 0 01-.197.226 1.865 1.865 0 00-.158.19 1.534 1.534 0 01-.131.16 2.188 2.188 0 00-.143.168c-.03.04-.086.11-.126.154-.04.044-.09.107-.11.139a2.817 2.817 0 01-.125.16 9 9 0 00-.303.393 7.612 7.612 0 01-.116.153 17.621 17.621 0 01-.275.362 5.847 5.847 0 00-.177.25 4.699 4.699 0 01-.158.226 13.56 13.56 0 00-.529.777c-.074.115-.156.238-.18.273a1.85 1.85 0 00-.101.166c-.03.056-.074.129-.096.16-.023.032-.058.09-.079.13a1.43 1.43 0 01-.078.128 1.862 1.862 0 00-.09.148c-.026.05-.066.116-.088.148a2.517 2.517 0 00-.116.205 6.287 6.287 0 01-.14.257 17.74 17.74 0 00-.403.76l-.29.586a10.63 10.63 0 00-.248.528c-.02.056-.071.17-.112.252a2.29 2.29 0 00-.075.158c0 .011-.132.348-.192.49-.027.063-.053.13-.058.148a1.694 1.694 0 01-.052.135 3.66 3.66 0 00-.138.373c-.018.057-.06.173-.092.258l-.083.218a7.842 7.842 0 00-.188.601c-.046.14-.081.267-.09.33a.352.352 0 01-.027.093.528.528 0 00-.031.124.885.885 0 01-.032.139.382.382 0 00-.02.105c0 .03-.014.1-.032.153a.62.62 0 00-.033.19c0 .051-.01.115-.02.144a1.173 1.173 0 00-.03.257.972.972 0 01-.038.28c-.026.07-.027.097-.027.664 0 .565.001.594.027.672.019.057.03.138.037.262.007.108.019.202.03.232.012.028.02.093.021.143a.62.62 0 00.033.19c.018.055.032.11.032.123 0 .013.012.06.026.104a.567.567 0 01.026.12c0 .022.01.064.02.092a.974.974 0 01.039.132c.04.182.204.636.3.833.027.057.063.14.08.186.04.11.222.482.26.533.017.022.058.092.092.156a5.778 5.778 0 00.371.591c.062.091.134.193.16.225.027.033.068.086.09.12.023.032.087.11.144.17.056.061.122.141.147.178.055.083.79.817.865.863.03.018.103.08.162.135.059.055.14.122.18.148.041.026.099.07.129.097.03.028.111.088.18.134.07.047.166.114.213.15.094.072.2.142.351.232.12.07.274.165.407.25a30.27 30.27 0 001.411.71c.021.004.108.04.193.08.085.039.186.08.225.093.109.035.336.122.38.144a.7.7 0 00.11.04c.038.01.163.051.276.09.114.04.244.08.29.09.045.01.132.034.192.053.107.034.234.067.399.105.046.01.114.03.151.044a.401.401 0 00.105.025c.02 0 .072.012.117.026a.548.548 0 00.13.026c.028 0 .091.014.142.032a.588.588 0 00.164.033c.04 0 .095.009.123.02a.93.93 0 00.174.03c.067.007.155.024.196.039a.51.51 0 00.175.026c.063 0 .13.009.177.024.046.014.136.027.23.031a.987.987 0 01.236.034c.072.023.115.027.35.027.23 0 .277.003.346.025.078.025.116.026 1.08.026.965 0 1.004 0 1.081-.026.069-.021.116-.025.315-.025.198 0 .248-.004.314-.026a1.12 1.12 0 01.21-.033 1.12 1.12 0 00.208-.033.63.63 0 01.177-.024c.07 0 .125-.008.175-.026a.92.92 0 01.19-.038.91.91 0 00.167-.032.353.353 0 01.1-.02.431.431 0 00.115-.025c.064-.024.167-.05.312-.08.036-.006.102-.024.148-.038.046-.014.119-.033.161-.043.043-.009.126-.032.187-.051.06-.02.143-.043.184-.054.101-.025.241-.072.343-.115a6.82 6.82 0 01.257-.097c.273-.096.412-.15.489-.19.039-.02.109-.05.155-.065.183-.06.81-.4.829-.45.014-.035-.015-.046-.084-.03a.809.809 0 01-.145.016.466.466 0 00-.131.02.923.923 0 01-.175.03.964.964 0 00-.18.033c-.032.012-.13.026-.224.032a1.23 1.23 0 00-.219.03c-.028.01-.125.022-.216.027a.948.948 0 00-.218.029c-.04.015-.128.023-.338.03-.23.008-.293.014-.34.034-.055.022-.115.023-1.113.024h-1.055l-.082-.029c-.071-.025-.108-.029-.283-.029a.954.954 0 01-.289-.025 1.295 1.295 0 00-.219-.034 1.114 1.114 0 01-.206-.033.626.626 0 00-.168-.024.618.618 0 01-.17-.024 1.018 1.018 0 00-.178-.034 1.032 1.032 0 01-.178-.033.51.51 0 00-.11-.024.584.584 0 01-.127-.033.574.574 0 00-.142-.032.552.552 0 01-.13-.025.55.55 0 00-.11-.026.634.634 0 01-.118-.028 9.128 9.128 0 01-1.194-.403 7.26 7.26 0 01-.444-.21 4.962 4.962 0 01-.656-.374 4.99 4.99 0 01-.33-.235 1.075 1.075 0 00-.13-.097 8.754 8.754 0 01-.718-.7 6.477 6.477 0 01-.388-.547 6.289 6.289 0 01-.377-.784 4.197 4.197 0 01-.136-.444 1.342 1.342 0 00-.044-.151.455.455 0 01-.025-.13.556.556 0 00-.024-.138 1.116 1.116 0 01-.032-.206 1.298 1.298 0 00-.034-.22c-.024-.081-.026-.13-.026-.686 0-.56.002-.604.026-.688a1.29 1.29 0 00.034-.25c.005-.1.018-.191.032-.238a.576.576 0 00.024-.142c0-.038.014-.106.032-.159a.572.572 0 00.032-.142.55.55 0 01.026-.13.544.544 0 00.026-.118c0-.02.014-.079.032-.13a7.496 7.496 0 01.206-.661c.023-.064.051-.15.063-.19a.89.89 0 01.059-.143.689.689 0 00.052-.125c.008-.03.045-.122.082-.203.038-.082.076-.172.085-.2.02-.062.161-.356.44-.913.257-.514.322-.638.383-.727a1.91 1.91 0 00.09-.155c.023-.046.06-.11.083-.141a1.92 1.92 0 00.09-.148 2.44 2.44 0 01.097-.161 1.41 1.41 0 00.077-.129c.016-.032.073-.123.127-.203.054-.08.117-.176.14-.213.023-.036.074-.11.113-.163.068-.093.154-.217.282-.405.034-.05.076-.106.094-.125.018-.019.06-.072.092-.118.125-.175.191-.26.285-.367.053-.06.11-.134.128-.162a1.27 1.27 0 01.124-.151 1.83 1.83 0 00.145-.176 3.82 3.82 0 01.268-.299 4.94 4.94 0 00.273-.3c.073-.1.704-.732.804-.805a4.72 4.72 0 00.302-.274c.124-.12.26-.241.303-.27.042-.029.132-.105.199-.17.067-.064.151-.137.187-.16.035-.025.117-.088.182-.142.148-.12.39-.304.575-.438.045-.031.101-.075.125-.097a1.98 1.98 0 01.134-.099 23.169 23.169 0 011.382-.903c.032-.023.105-.066.161-.097a2.05 2.05 0 00.174-.104 22.155 22.155 0 011.247-.623c.04-.013.129-.051.2-.085.07-.034.212-.09.315-.125.103-.035.207-.073.231-.086a2.28 2.28 0 01.36-.122c.054-.012.146-.038.206-.057a4.22 4.22 0 01.367-.1 3.74 3.74 0 00.165-.044.756.756 0 01.13-.031.553.553 0 00.11-.026.624.624 0 01.162-.025.61.61 0 00.18-.033.602.602 0 01.218-.032.65.65 0 00.194-.024c.063-.02.138-.025.444-.033.253-.006.39-.014.437-.027a.384.384 0 01.23 0c.048.013.182.022.437.028.305.007.38.012.443.032.098.031.297.034.34.004.015-.01.028-.032.028-.047 0-.032-.078-.157-.18-.29a4.435 4.435 0 01-.129-.177 4.94 4.94 0 00-.112-.159 5.9 5.9 0 01-.125-.176A1.122 1.122 0 0026.597 7a.864.864 0 01-.09-.115 5.474 5.474 0 00-.248-.335 2.66 2.66 0 01-.097-.132 1.371 1.371 0 00-.1-.122 1.476 1.476 0 01-.122-.154 1.316 1.316 0 00-.12-.15 1.198 1.198 0 01-.108-.134 1.422 1.422 0 00-.112-.14 1.918 1.918 0 01-.119-.146 2.047 2.047 0 00-.14-.166 1.833 1.833 0 01-.149-.18 1.666 1.666 0 00-.145-.175 2.247 2.247 0 01-.154-.18 3.62 3.62 0 00-.19-.224 2.374 2.374 0 01-.165-.196 3.33 3.33 0 00-.225-.252 3.283 3.283 0 01-.232-.26 5.752 5.752 0 00-.326-.356 5.539 5.539 0 01-.324-.355c-.06-.096-2.508-2.546-2.648-2.65a5.576 5.576 0 01-.349-.322C20.186.01 20.174 0 20.124 0c-.044 0-.063.01-.14.079zm4.43 10.459c-.05.017-.134.027-.264.033a1.184 1.184 0 00-.266.033.641.641 0 01-.188.024.595.595 0 00-.211.032.747.747 0 01-.122.032.577.577 0 00-.105.026.582.582 0 01-.143.026.335.335 0 00-.111.02 2.681 2.681 0 01-.318.095c-.233.06-.505.159-.885.324a6.59 6.59 0 00-.807.385 2.747 2.747 0 01-.173.102c-.057.03-.15.085-.206.122a33.86 33.86 0 01-.2.13 6.534 6.534 0 00-.25.166l-.243.165a4.094 4.094 0 00-.218.156 2.25 2.25 0 01-.111.084c-.025.017-.092.07-.148.117-.057.047-.12.097-.142.11-.02.014-.099.079-.173.145a2.292 2.292 0 01-.186.153 1.76 1.76 0 00-.174.15c-.068.065-.167.15-.22.19-.117.088-.943.918-1.003 1.008a2.4 2.4 0 01-.206.231c-.09.092-.178.192-.197.222-.018.03-.07.096-.114.146-.044.051-.107.13-.138.174-.101.14-.186.252-.227.3a5.303 5.303 0 00-.31.445c-.074.113-.18.271-.234.351a6.14 6.14 0 00-.169.27c-.039.07-.089.152-.111.184-.023.033-.06.1-.084.148a8.153 8.153 0 01-.282.524.745.745 0 00-.07.142c-.012.037-.067.16-.121.273a3.235 3.235 0 00-.188.424.83.83 0 01-.05.122 1.457 1.457 0 00-.065.155 1.647 1.647 0 01-.066.16.587.587 0 00-.043.106c0 .024-.047.159-.1.287-.059.142-.103.27-.127.367-.02.081-.105.363-.146.482a2.858 2.858 0 00-.079.316 2.042 2.042 0 01-.044.16.715.715 0 00-.031.124.568.568 0 01-.026.108.547.547 0 00-.026.13.575.575 0 01-.032.143.588.588 0 00-.033.163.44.44 0 01-.02.124.86.86 0 00-.03.156.567.567 0 01-.034.148.56.56 0 00-.03.185.722.722 0 01-.027.174.767.767 0 00-.025.192c-.007.123-.014.172-.033.206-.024.043-.025.084-.029.816-.003.687-.001.773.017.801.013.02.03.03.048.028.028-.004.024.007.172-.468.018-.056.043-.143.056-.193a4.87 4.87 0 01.136-.437c.04-.113.083-.24.095-.283.013-.043.04-.118.059-.167.019-.05.045-.125.057-.168a1.5 1.5 0 01.058-.154c.02-.042.049-.115.065-.16.016-.047.055-.14.087-.207.031-.067.065-.145.073-.173.02-.061.134-.3.36-.753.214-.428.288-.567.34-.64a1.32 1.32 0 00.085-.145c.023-.046.063-.116.09-.154l.1-.155a18.528 18.528 0 01.425-.626c.165-.235.24-.336.304-.403.037-.039.089-.106.116-.148.027-.043.108-.138.18-.212.073-.075.151-.165.175-.2.057-.086.78-.814.87-.877.039-.027.135-.107.214-.178.08-.072.167-.144.195-.16a.945.945 0 00.122-.098c.148-.14.487-.35.882-.548.205-.103.41-.2.456-.214l.309-.105c.124-.043.24-.078.259-.078a.5.5 0 00.114-.026.552.552 0 01.133-.025c.03 0 .103-.015.165-.033l.111-.033.59.005c.525.003.596.006.646.027a.868.868 0 00.18.034c.068.006.147.02.175.03.028.011.069.02.09.02.021 0 .105.024.187.052.08.028.18.057.22.065.038.007.122.036.186.064a.919.919 0 00.131.051c.01 0 .076.026.148.057a5.528 5.528 0 01.718.344c.04.027.142.085.226.129.083.043.172.094.197.113.025.02.097.068.16.11.125.08.172.113.276.193.201.157.26.2.311.233.031.02.112.088.179.153.067.065.166.15.219.19.118.087.737.7.797.788.024.036.108.134.186.22.079.085.166.187.194.227.028.04.097.125.154.188.1.112.157.187.273.352.03.043.079.104.108.137a.88.88 0 01.086.118c.018.032.05.079.07.105.056.074.124.17.338.48a9.483 9.483 0 01.279.431c.017.032.064.11.104.174a12.886 12.886 0 01.698 1.255c.315.628.464.936.499 1.029.035.095.095.241.197.482.077.181.202.523.217.59a.742.742 0 00.051.125.89.89 0 01.057.142c.008.031.037.12.064.199.028.077.06.17.07.205.075.23.096.304.108.36.007.036.034.125.06.198a.927.927 0 01.046.174c0 .022.01.064.02.092.012.028.031.095.044.148.03.126.07.264.095.328.011.028.02.075.02.104 0 .03.012.09.027.134a.554.554 0 01.025.11c0 .015.015.073.032.127a.653.653 0 01.033.154c0 .03.011.092.025.136a.562.562 0 01.026.11.94.94 0 00.032.135.78.78 0 01.032.18c0 .041.012.11.026.154a.576.576 0 01.026.142c0 .033.014.108.032.167a.69.69 0 01.032.213c0 .07.009.133.026.186a.64.64 0 01.026.206c0 .093.008.159.032.25.029.111.032.149.032.373 0 .213.004.26.026.33.024.076.025.115.025.816s0 .74-.025.817c-.022.068-.026.116-.026.308 0 .206-.003.239-.032.336a.692.692 0 00-.032.213c0 .07-.009.132-.026.186a.617.617 0 00-.026.168c0 .06-.01.12-.032.187a.656.656 0 00-.032.153c0 .03-.012.09-.026.135a.54.54 0 00-.026.117c0 .02-.013.08-.03.13a1.857 1.857 0 00-.044.158 5.274 5.274 0 01-.163.56 7.783 7.783 0 00-.06.18 1.267 1.267 0 01-.063.154 1.08 1.08 0 00-.056.145.824.824 0 01-.055.135 2.481 2.481 0 00-.084.19c-.05.126-.182.39-.228.456a8.246 8.246 0 01-.46.752c-.063.092-.055.163.02.162.019 0 .07-.011.115-.026a.608.608 0 01.15-.025.57.57 0 00.143-.024 1.02 1.02 0 01.172-.034.935.935 0 00.172-.034.601.601 0 01.148-.024.45.45 0 00.124-.02.885.885 0 01.148-.032 1.06 1.06 0 00.17-.038.536.536 0 01.142-.026.43.43 0 00.119-.02.885.885 0 01.148-.031 1.06 1.06 0 00.17-.039.465.465 0 01.113-.026c.021 0 .07-.01.109-.024a.851.851 0 01.125-.033.978.978 0 00.13-.034.555.555 0 01.14-.025c.038 0 .091-.01.12-.02.052-.02.208-.061.321-.084.035-.007.102-.024.148-.038.078-.024.161-.045.315-.079.036-.007.11-.027.165-.044a.825.825 0 01.123-.03c.023 0 .145-.035.259-.073.032-.01.103-.03.157-.044l.2-.05c.055-.013.149-.04.209-.06.06-.018.152-.044.206-.057a4.48 4.48 0 00.43-.133.902.902 0 01.161-.046c.032 0 .299-.083.586-.181a4.43 4.43 0 01.36-.115c.196-.052.504-.15.623-.199.025-.01.103-.036.174-.06.07-.022.175-.059.232-.082.096-.039.183-.07.578-.202.085-.029.195-.068.245-.089.136-.055.47-.174.52-.185a.665.665 0 00.122-.048 2.38 2.38 0 01.329-.125c.039-.013.118-.044.176-.07a.81.81 0 01.12-.047c.008 0 .074-.025.146-.056a2.86 2.86 0 01.22-.085.916.916 0 00.266-.11.366.366 0 00.16-.207c.021-.061.021-.07.001-.15a.726.726 0 01-.022-.138.485.485 0 00-.025-.126 1.098 1.098 0 01-.038-.164.904.904 0 00-.032-.141.457.457 0 01-.02-.126.576.576 0 00-.025-.148 1.19 1.19 0 01-.039-.168.583.583 0 00-.028-.121.646.646 0 01-.024-.145.585.585 0 00-.032-.16.572.572 0 01-.032-.149.582.582 0 00-.026-.135.61.61 0 01-.026-.141.584.584 0 00-.031-.154.555.555 0 01-.033-.143.571.571 0 00-.026-.127.563.563 0 01-.026-.123.542.542 0 00-.032-.136.55.55 0 01-.032-.138.864.864 0 00-.031-.15.319.319 0 01-.02-.084.79.79 0 00-.031-.136 2.299 2.299 0 01-.046-.17 2.552 2.552 0 00-.066-.28 2.61 2.61 0 01-.043-.16 18.878 18.878 0 00-.18-.721 3.654 3.654 0 01-.035-.148 1.406 1.406 0 00-.033-.123 2.691 2.691 0 01-.042-.154 5.352 5.352 0 00-.052-.193 7.429 7.429 0 01-.046-.167c-.01-.04-.03-.11-.044-.158l-.051-.174a5.172 5.172 0 01-.043-.157 3.978 3.978 0 00-.053-.18 5.641 5.641 0 01-.058-.2 5.55 5.55 0 00-.122-.403 1.18 1.18 0 01-.046-.153.98.98 0 00-.038-.138l-.155-.47a36.58 36.58 0 00-.213-.643 4.523 4.523 0 00-.09-.251 3.773 3.773 0 01-.147-.406 3.16 3.16 0 00-.084-.238 16.917 16.917 0 01-.117-.308 8.192 8.192 0 00-.094-.245A1.957 1.957 0 0137.24 23a1.057 1.057 0 00-.054-.13 1.642 1.642 0 01-.068-.16 7.418 7.418 0 00-.206-.503 1.798 1.798 0 01-.083-.207c0-.01-.034-.089-.076-.174a2.958 2.958 0 01-.111-.249 3.769 3.769 0 00-.121-.276 2.817 2.817 0 01-.103-.231 51.684 51.684 0 00-.927-1.853 4.327 4.327 0 01-.156-.283 2.83 2.83 0 00-.14-.252 2.774 2.774 0 01-.116-.2 2.845 2.845 0 00-.115-.198 1.775 1.775 0 01-.09-.155 1.03 1.03 0 00-.075-.127 1.804 1.804 0 01-.092-.145 27.67 27.67 0 00-1.066-1.601 7.877 7.877 0 01-.374-.513 1.227 1.227 0 00-.108-.135 1.412 1.412 0 01-.118-.15 1.455 1.455 0 00-.12-.152 1.662 1.662 0 01-.118-.146 2.064 2.064 0 00-.143-.171 2.039 2.039 0 01-.148-.178 2.131 2.131 0 00-.164-.193 2.973 2.973 0 01-.195-.229c-.101-.137-1.755-1.79-1.877-1.876a1.843 1.843 0 01-.174-.142 2.332 2.332 0 00-.186-.154 2.72 2.72 0 01-.15-.117c-.072-.064-.796-.54-.894-.588l-.384-.191c-.163-.082-.33-.164-.373-.182a6.62 6.62 0 00-.945-.33 1.556 1.556 0 01-.148-.044.347.347 0 00-.097-.021.37.37 0 01-.096-.02.893.893 0 00-.142-.032 1.097 1.097 0 01-.164-.039.54.54 0 00-.175-.025.629.629 0 01-.177-.024 1.242 1.242 0 00-.291-.033 1.166 1.166 0 01-.294-.034c-.073-.023-.117-.025-.589-.024-.462 0-.516.003-.582.025zm-2.467 6.575c0 .04.048.129.104.19.027.03.071.087.097.128.026.04.078.106.114.145.037.039.091.106.121.148.03.043.09.12.136.174.045.053.1.123.124.156.067.094.166.226.23.305.031.04.127.177.213.304l.194.29c.022.032.07.104.105.16a6.323 6.323 0 01.231.356l.155.25c.035.056.098.169.14.25.096.183.128.241.161.288.03.043.408.792.408.81 0 .006.037.096.082.2.046.104.09.212.099.24.009.028.035.09.058.135a.93.93 0 01.057.142c.009.031.03.085.047.118.043.086.296.853.305.927a.362.362 0 00.026.097c.01.02.026.073.034.119a.6.6 0 00.026.104.561.561 0 01.025.114c.007.05.022.108.031.127a.55.55 0 01.034.118c.008.046.02.094.028.107a.655.655 0 01.023.143c.006.07.02.137.033.162a.58.58 0 01.032.173c.006.07.02.152.03.18.013.033.02.098.02.182 0 .1.007.15.03.212.027.08.028.099.028.61 0 .513 0 .53-.028.616a.589.589 0 00-.03.2.623.623 0 01-.025.194.586.586 0 00-.026.14c0 .033-.01.083-.02.11-.011.03-.03.09-.044.136a3.342 3.342 0 01-.058.18 5.262 5.262 0 00-.058.174c-.059.193-.088.262-.233.553-.064.128-.16.297-.215.377a7.29 7.29 0 00-.135.206.887.887 0 01-.081.11 1.06 1.06 0 00-.09.122c-.06.095-.66.692-.822.816a6.032 6.032 0 01-.785.52c-.043.033-.464.25-.59.304a150.882 150.882 0 00-.553.22 4.39 4.39 0 01-.521.175 1.53 1.53 0 00-.182.052 2.222 2.222 0 01-.238.064.686.686 0 00-.123.031.762.762 0 01-.14.032.958.958 0 00-.147.033.432.432 0 01-.12.02.52.52 0 00-.141.026c-.04.014-.129.032-.196.038a.93.93 0 00-.174.031.641.641 0 01-.188.02.67.67 0 00-.218.027c-.066.021-.13.028-.327.034-.185.006-.262.013-.32.031-.07.023-.138.024-1.127.024-.988 0-1.056-.001-1.127-.024-.059-.018-.134-.025-.345-.031-.223-.006-.285-.012-.353-.034a.725.725 0 00-.244-.027.705.705 0 01-.214-.02 1.03 1.03 0 00-.2-.03.974.974 0 01-.22-.039.52.52 0 00-.18-.027.57.57 0 01-.159-.02.906.906 0 00-.167-.03 1.022 1.022 0 01-.19-.039.52.52 0 00-.144-.026.537.537 0 01-.145-.026 1.084 1.084 0 00-.164-.038.893.893 0 01-.141-.032.364.364 0 00-.1-.02.498.498 0 01-.122-.025 2.698 2.698 0 00-.306-.08 1.809 1.809 0 01-.148-.038 2.464 2.464 0 00-.16-.043 2.642 2.642 0 01-.187-.051 3.752 3.752 0 00-.206-.058 3.64 3.64 0 01-.373-.116 1.476 1.476 0 00-.18-.052.911.911 0 01-.135-.038 3.213 3.213 0 00-.174-.058 3.322 3.322 0 01-.231-.084 6.515 6.515 0 00-.322-.116 5.085 5.085 0 01-.302-.11 6.664 6.664 0 00-.193-.078 2.667 2.667 0 01-.2-.088 1.383 1.383 0 00-.185-.077 2.316 2.316 0 01-.263-.116 2.888 2.888 0 00-.24-.11 5.362 5.362 0 01-.572-.283 4.42 4.42 0 00-.29-.16 3.459 3.459 0 01-.256-.142.98.98 0 00-.116-.068 6.24 6.24 0 01-.48-.29 1.116 1.116 0 00-.13-.08 2.364 2.364 0 01-.203-.127 6.927 6.927 0 00-.207-.137 1.944 1.944 0 01-.146-.103 4.23 4.23 0 00-.165-.122 6.236 6.236 0 01-.185-.135 3.183 3.183 0 00-.143-.105 2.397 2.397 0 01-.178-.144 2.105 2.105 0 00-.18-.146 1.875 1.875 0 01-.189-.164 3.628 3.628 0 00-.354-.32 1.927 1.927 0 01-.322-.331 2.575 2.575 0 00-.205-.231 2.656 2.656 0 01-.203-.226 1.906 1.906 0 00-.118-.152 1.884 1.884 0 01-.118-.152.874.874 0 00-.075-.098 2.438 2.438 0 01-.14-.196 65.532 65.532 0 00-.232-.347 2.86 2.86 0 01-.118-.2 4.517 4.517 0 00-.121-.212 3.88 3.88 0 01-.243-.489 3.11 3.11 0 00-.095-.218 2.551 2.551 0 01-.087-.2c-.035-.11-.098-.153-.144-.1a2.26 2.26 0 00-.21.441 4.19 4.19 0 01-.11.238 3.452 3.452 0 00-.115.258 2.104 2.104 0 01-.08.186 2.774 2.774 0 00-.087.199 3.666 3.666 0 01-.087.206 2.939 2.939 0 00-.087.213 1.399 1.399 0 01-.064.154 1.45 1.45 0 00-.062.148c-.01.035-.04.11-.064.167-.025.057-.05.12-.055.142a1.012 1.012 0 01-.047.122 4.285 4.285 0 00-.094.238c-.031.085-.083.224-.116.309-.032.085-.07.19-.083.232a6.71 6.71 0 01-.145.398 3.52 3.52 0 00-.073.206 2.15 2.15 0 01-.047.135 9.673 9.673 0 00-.147.431 4.308 4.308 0 01-.057.174 5.953 5.953 0 00-.058.174l-.058.174a4.133 4.133 0 00-.057.18c-.014.046-.04.127-.06.18-.018.053-.04.125-.047.16a2.41 2.41 0 01-.062.213 9.695 9.695 0 00-.088.29c-.075.26-.089.307-.148.495a1.83 1.83 0 00-.06.214.524.524 0 01-.031.113.555.555 0 00-.033.108c0 .025-.035.152-.078.282a3.076 3.076 0 00-.085.332.854.854 0 01-.033.118c-.01.014-.04.126-.08.287a4.44 4.44 0 01-.044.154 1.887 1.887 0 00-.038.148 2.759 2.759 0 01-.084.322.344.344 0 00-.02.1.406.406 0 01-.02.102c-.01.03-.026.093-.037.139-.01.046-.027.107-.038.135a.327.327 0 00-.02.093.39.39 0 01-.02.096c-.01.03-.027.093-.037.139-.01.046-.028.107-.039.135a.355.355 0 00-.02.104c0 .029-.015.1-.033.158-.04.132-.054.278-.034.339a.254.254 0 00.056.085c.041.039.235.136.338.17.028.008.115.046.193.083.078.037.164.075.193.084.028.009.122.05.209.091.087.041.19.084.231.096.041.011.1.035.132.053a2 2 0 00.187.084c.07.028.175.07.231.094.057.024.187.076.29.116.102.04.232.091.289.115.16.068.458.184.562.218.052.017.132.048.179.07.046.02.15.06.231.086.08.027.196.07.256.097.06.027.127.052.148.057.021.005.103.03.18.058a5.436 5.436 0 01.438.154c.085.034.212.08.283.104l.27.09c.195.067.3.1.353.109.025.004.118.033.206.064.089.031.204.07.258.084.053.016.163.05.244.078.081.027.183.058.225.068.042.011.126.035.186.054.06.02.153.045.206.058.053.013.146.039.206.058.06.019.153.044.206.056a.702.702 0 01.114.032c.019.012.146.048.297.085.054.013.12.032.148.043.029.011.07.02.093.02.023.001.066.01.097.02.03.01.092.027.138.037.046.01.107.028.135.039.029.01.07.02.094.02.023 0 .075.012.115.025.085.028.212.062.306.08.035.008.117.028.18.045a.953.953 0 00.157.031.57.57 0 01.12.026.54.54 0 00.117.026c.02 0 .07.011.11.025.042.014.118.032.171.039.053.007.12.021.148.031.029.01.075.02.104.02.029 0 .1.015.16.033a.813.813 0 00.161.032c.03 0 .09.011.135.026a.57.57 0 00.14.025.79.79 0 01.168.032.793.793 0 00.186.033.48.48 0 01.13.02c.028.01.11.024.18.03a.564.564 0 01.174.034c.03.015.09.025.186.031a.725.725 0 01.173.026.78.78 0 00.18.027c.095.006.175.02.222.037.056.02.106.026.206.027.087 0 .15.007.183.02.032.012.125.024.238.03a.923.923 0 01.26.038c.063.023.103.027.26.027.144 0 .201.005.26.024.057.018.136.026.314.032.188.006.256.013.32.034.073.023.116.026.413.026.305 0 .338.002.413.027l.082.028h3.216l.082-.027c.075-.026.108-.028.4-.028.286 0 .327-.003.4-.027.064-.02.136-.028.314-.036.158-.007.242-.015.264-.027.021-.013.098-.02.238-.026.166-.006.214-.012.25-.032a.54.54 0 01.2-.033c.085-.006.177-.019.205-.03a.53.53 0 01.156-.02.54.54 0 00.196-.033.532.532 0 01.174-.032.62.62 0 00.163-.026.592.592 0 01.147-.026.576.576 0 00.159-.032.583.583 0 01.148-.032.561.561 0 00.137-.026.565.565 0 01.134-.026.652.652 0 00.153-.032.672.672 0 01.15-.032.547.547 0 00.13-.026.553.553 0 01.107-.025.76.76 0 00.13-.031c.057-.018.132-.038.167-.045.153-.03.303-.075.772-.229.205-.067.405-.138.444-.158.039-.02.103-.046.141-.058.085-.027.719-.336.789-.385.026-.018.096-.06.154-.093.14-.08.303-.187.417-.275.126-.096.295-.223.358-.268.028-.02.1-.083.16-.138a1.64 1.64 0 01.161-.131 4.09 4.09 0 00.46-.467 2.66 2.66 0 01.147-.17c.052-.055.116-.133.141-.173.026-.04.08-.108.12-.151.039-.043.105-.13.147-.194l.143-.219c.037-.056.084-.132.104-.167a2.49 2.49 0 01.085-.138c.027-.04.135-.245.24-.456.2-.4.263-.538.279-.603a.842.842 0 01.052-.124.915.915 0 00.058-.146c.008-.034.032-.105.053-.16.02-.053.049-.135.062-.18l.057-.2a3.18 3.18 0 00.047-.18c.008-.036.028-.11.045-.165a.76.76 0 00.03-.13.55.55 0 01.026-.11.633.633 0 00.026-.16c0-.043.012-.12.026-.169.014-.05.031-.16.038-.244.006-.085.02-.18.032-.212.019-.05.02-.164.02-1.02 0-.921 0-.97-.024-1.05a1.155 1.155 0 01-.033-.24 1.205 1.205 0 00-.033-.245.77.77 0 01-.027-.199.592.592 0 00-.02-.16.927.927 0 01-.032-.155 1.36 1.36 0 00-.038-.185.702.702 0 01-.026-.167.477.477 0 00-.02-.137.886.886 0 01-.033-.116 2.23 2.23 0 00-.038-.147.598.598 0 01-.024-.119c0-.02-.01-.07-.025-.11a1.155 1.155 0 01-.033-.12 1.141 1.141 0 00-.033-.119.503.503 0 01-.025-.115.33.33 0 00-.02-.093 1.494 1.494 0 01-.044-.148 2.69 2.69 0 00-.104-.348 3.142 3.142 0 01-.064-.193 6.396 6.396 0 00-.082-.25 9.89 9.89 0 00-.331-.882 18.04 18.04 0 01-.083-.2c-.112-.275-.67-1.397-.743-1.492a2.11 2.11 0 01-.104-.174c-.082-.15-.08-.147-.348-.553-.218-.333-.213-.325-.295-.444a16.88 16.88 0 01-.111-.163 1.68 1.68 0 00-.101-.133.689.689 0 01-.077-.109.711.711 0 00-.088-.118 1.018 1.018 0 01-.093-.12 1.237 1.237 0 00-.114-.141 1.347 1.347 0 01-.113-.14 1.99 1.99 0 00-.159-.185 2.121 2.121 0 01-.175-.208c-.095-.143-1.376-1.43-1.546-1.552a3 3 0 01-.175-.143 1.776 1.776 0 00-.162-.128 1.31 1.31 0 01-.122-.09 3.007 3.007 0 00-.207-.15 89.777 89.777 0 01-.314-.21 20.007 20.007 0 01-.18-.117c-.103-.067-.24-.134-.28-.134-.02 0-.028.008-.028.026z" fill="#2E56F6"/></svg>