<svg width="58" height="70" viewBox="0 0 58 70" fill="none" xmlns="http://www.w3.org/2000/svg"><path d="M56.677 9.705L35.995.159C35.836 0 35.518 0 35.36 0H22.632c-.16 0-.478 0-.637.16L1.314 9.704c-.637.318-1.114 1.113-.955 1.75.16.795.795 1.272 1.59 1.272h17.183L11.495 55.84c-.159.795.478 1.75 1.273 1.909h.318c.796 0 1.432-.477 1.59-1.273l1.91-11.295 22.432 16.545c.318.16.636.318.954.318.478 0 .955-.159 1.273-.636.477-.636.318-1.75-.318-2.227L31.7 52.34l9.704-7.16 3.182 18.455H16.268l9.068-6.682c.637-.477.796-1.59.318-2.227-.477-.636-1.59-.795-2.227-.318l-12.41 9.227H6.724c-.478 0-.796.16-1.114.478l-3.182 3.181c-.636.637-.636 1.591 0 2.228.637.636 1.59.636 2.227 0l2.705-2.705h43.273l2.704 2.705a1.72 1.72 0 001.114.477c.318 0 .795-.16 1.113-.477.637-.637.637-1.591 0-2.228l-3.181-3.181c-.319-.319-.637-.478-1.114-.478h-3.5l-8.91-50.909h17.183c.795 0 1.432-.477 1.59-1.272.16-.796-.159-1.432-.954-1.75zm-15.91 31.818l-11.772 8.909-10.023-7.477 6.205-4.455c.637-.477.955-1.432.318-2.227-.477-.796-1.432-.955-2.227-.318L17.54 40.09l1.909-11.136 16.545 11.772c.318.16.637.318.955.318.477 0 .954-.159 1.272-.636.478-.636.319-1.75-.318-2.227L31.7 33.727l6.84-4.932 2.228 12.728zm-5.25-18.932l-4.135-3.341 4.613-3.818 1.75 10.023-8.909 6.363-6.84-4.932 3.181-2.545c.637-.477.796-1.591.16-2.227-.637-.637-1.592-.796-2.228-.16l-3.023 2.387 1.591-8.91 11.773 9.705c.318.318.636.318.954.318.478 0 .955-.159 1.273-.636.477-.636.477-1.75-.16-2.227zm3.024-13.046l-.319-1.909a1.649 1.649 0 00-1.909-1.272 1.65 1.65 0 00-1.272 1.909l.159 1.272h-7.796c-.954 0-1.59.637-1.59 1.591 0 .955.636 1.591 1.59 1.591h7l-5.409 4.455-6.523-5.41.637-3.659c.16-.795-.477-1.59-1.273-1.75-.795-.159-1.75.478-1.909 1.273l-.318 1.91H9.268l13.84-6.364H35.2l13.84 6.363h-10.5z" fill="#fff"/></svg>