<svg width="70" height="70" viewBox="0 0 70 70" fill="none" xmlns="http://www.w3.org/2000/svg"><g clip-path="url(#clip0)" fill="#fff"><path d="M15.314 54.878a5.755 5.755 0 00-4.096-1.697c-.914 0-1.795.212-2.589.61C.825 42.734.798 27.58 8.695 16.498a1.367 1.367 0 00-2.227-1.587C2.112 21.025-.123 28.245.005 35.791c.122 7.18 2.377 13.99 6.53 19.773a5.802 5.802 0 00.587 7.506 5.775 5.775 0 004.096 1.694 5.775 5.775 0 004.096-1.694 5.8 5.8 0 000-8.192zm-1.933 6.258a3.062 3.062 0 01-4.325 0 3.062 3.062 0 010-4.325 3.038 3.038 0 012.162-.895c.817 0 1.585.318 2.162.895a3.062 3.062 0 010 4.325zm42.395.544a1.367 1.367 0 00-1.909-.307 31.864 31.864 0 01-13.059 5.56 3.751 3.751 0 01-3.084-.81 3.719 3.719 0 01-1.34-2.863V53.239h.12a2.874 2.874 0 002.871-2.871v-2.309c4.631-1.767 7.93-6.255 7.93-11.5v-6.473a5.204 5.204 0 003.828-5.011 5.202 5.202 0 00-4.512-5.15v-8.522A4.106 4.106 0 0042.52 7.3a4.106 4.106 0 00-4.102 4.102v8.476h-6.836v-8.476A4.106 4.106 0 0027.48 7.3a4.106 4.106 0 00-4.101 4.102v8.523a5.202 5.202 0 00-4.512 5.149 5.204 5.204 0 003.828 5.011v6.473c0 5.245 3.299 9.733 7.93 11.5v2.309a2.874 2.874 0 002.871 2.87h.154V63.26a6.45 6.45 0 002.322 4.963 6.473 6.473 0 005.326 1.4 34.574 34.574 0 0014.17-6.034c.613-.442.75-1.297.308-1.909zM41.153 11.403a1.368 1.368 0 012.734 0v8.476h-2.734v-8.476zm-15.04 0a1.369 1.369 0 012.734 0v8.476h-2.734v-8.476zm-4.511 13.672a2.464 2.464 0 012.46-2.461h21.876a2.464 2.464 0 012.46 2.46 2.464 2.464 0 01-2.46 2.462H24.063a2.464 2.464 0 01-2.461-2.461zm3.828 11.484V30.27h19.14v6.29c0 5.276-4.293 9.57-9.57 9.57s-9.57-4.294-9.57-9.57zm9.622 13.946l-.034-.002-.035.002h-1.486a.137.137 0 01-.138-.137v-1.614a12.355 12.355 0 003.282 0v1.614a.137.137 0 01-.137.136h-1.452zm24.663 7.47a1.367 1.367 0 00-1.935.07 1.367 1.367 0 102.002 1.862 1.367 1.367 0 00-.067-1.932z"/><path d="M69.906 32.636A34.99 34.99 0 0059.75 10.444C53.91 4.604 46.11 1.029 37.785.378c-8.223-.643-16.407 1.589-23.048 6.283a1.367 1.367 0 001.579 2.233c12.697-8.976 30.538-7.48 41.5 3.483 11.328 11.329 12.698 28.921 3.257 41.83a1.367 1.367 0 102.207 1.615c4.877-6.669 7.23-14.903 6.627-23.186zM12.018 10.602a1.367 1.367 0 00-1.934.008l-.022.023a1.367 1.367 0 001.942 1.925l.023-.023a1.367 1.367 0 00-.009-1.933z"/><path d="M38.082 36.053a1.367 1.367 0 00-1.181-.679h-.977l1.8-2.273a1.367 1.367 0 10-2.145-1.697l-3.553 4.489a1.367 1.367 0 001.072 2.215h1.457l-1.674 2.957a1.367 1.367 0 102.38 1.347l2.83-4.997c.24-.423.236-.942-.009-1.362z"/></g><defs><clipPath id="clip0"><path fill="#fff" d="M0 0h70v70H0z"/></clipPath></defs></svg>