<svg width="70" height="70" viewBox="0 0 70 70" fill="none" xmlns="http://www.w3.org/2000/svg"><path d="M45.5 67.666h-2.333a1.166 1.166 0 100 2.334H45.5a1.166 1.166 0 100-2.334zm23.333 0H50.167a1.166 1.166 0 100 2.334h18.666a1.166 1.166 0 100-2.334zm-32.668 0H24.5a1.166 1.166 0 100 2.334h11.666a1.166 1.166 0 100-2.334zm-18.665 0H1.167a1.166 1.166 0 100 2.334H17.5a1.166 1.166 0 100-2.334zM1.167 32.667a1.166 1.166 0 100 2.333h7a1.166 1.166 0 100-2.333H5.833v-2.334h2.334a1.166 1.166 0 100-2.333H5.833v-2.333h5.834V59.5a1.17 1.17 0 001.612 1.077 1.17 1.17 0 00.38-.253l9.675-9.674v8.85a1.166 1.166 0 102.333 0V25.667H59.5c.148 0 .29-.033.426-.087.049-.018.089-.05.135-.077.062-.035.13-.06.187-.107l5.085-4.239V35c0 .656-.253.937-.824 1.509-.637.635-1.509 1.508-1.509 3.158 0 1.93 1.57 3.5 3.5 3.5s3.5-1.57 3.5-3.5a1.166 1.166 0 10-2.333 0 1.168 1.168 0 01-2.334 0c0-.656.254-.937.825-1.509.637-.636 1.509-1.508 1.509-3.158V18.667c0-.17-.04-.33-.106-.475-.018-.042-.053-.074-.075-.112-.06-.1-.124-.193-.209-.27-.011-.011-.017-.029-.029-.04l-7-5.833c-.056-.046-.125-.072-.186-.107-.041-.022-.073-.056-.116-.074-.01-.003-.019-.004-.028-.008a1.158 1.158 0 00-.418-.082H25.667v-10.5A1.174 1.174 0 0024.5 0H12.833c-.645 0-1.166.523-1.166 1.167v10.5h-10.5C.52 11.667 0 12.189 0 12.833V24.5a1.17 1.17 0 001.167 1.167H3.5V28H1.167a1.166 1.166 0 100 2.333H3.5v2.334H1.167zm59.5-17.343l4.01 3.343-4.01 3.342v-6.685zm-2.334 8.01H50.65l7.683-7.684v7.683zM49 14h7.684L49 21.684V14zm-2.333 9.333h-7.684l7.684-7.683v7.683zM37.333 14h7.684l-7.684 7.684V14zM35 23.333h-7.684L35 15.65v7.683zM25.667 14h7.683l-7.683 7.684V14zm-2.334 32.667H15.65l7.683-7.684v7.684zm0-11.667H15.65l7.683-7.684V35zm0-11.667H15.65l7.683-7.683v7.683zm0-11.666H15.65l7.683-7.684v7.684zM14 2.333h7.684L14 10.017V2.333zM14 14h7.684L14 21.684V14zm0 11.667h7.684L14 33.35v-7.683zm0 11.666h7.684L14 45.017v-7.684zM14 49h7.684L14 56.684V49zm-2.333-25.667H3.983l7.684-7.683v7.683zm-9.334-1.65V14h7.684l-7.684 7.684zM8.167 63a1.166 1.166 0 100 2.333h21a1.166 1.166 0 100-2.333h-21z" fill="#fff"/></svg>