<svg width="52" height="70" viewBox="0 0 52 70" fill="none" xmlns="http://www.w3.org/2000/svg"><path d="M20.166 42c.075 0 .153-.006.23-.023l11.666-2.333a1.167 1.167 0 00-.457-2.288l-4.438.888v-4.41a1.166 1.166 0 10-2.333 0v4.877l-4.895.98a1.167 1.167 0 00.227 2.31zm0 9.334c.075 0 .153-.007.23-.024l11.666-2.333a1.167 1.167 0 00-.457-2.288l-11.666 2.334a1.168 1.168 0 00.227 2.311zm5.834-21c3.86 0 7-3.14 7-7s-3.14-7-7-7-7 3.14-7 7 3.14 7 7 7zm0-11.666a4.671 4.671 0 014.666 4.666A4.671 4.671 0 0126 28.001a4.671 4.671 0 01-4.667-4.667A4.671 4.671 0 0126 18.668zm-1.899-9.416l3.498-1.4-1.537 4.614a1.167 1.167 0 102.213.737l2.333-7c.145-.43.026-.905-.306-1.218a1.171 1.171 0 00-1.233-.234l-3.498 1.4 1.537-4.614a1.166 1.166 0 10-2.212-.738l-2.333 7a1.168 1.168 0 001.539 1.452zm-3.935 37.415c.075 0 .153-.007.23-.023l11.666-2.334a1.167 1.167 0 00-.457-2.288l-11.666 2.334a1.168 1.168 0 00.227 2.311zm31.22-43.925a1.167 1.167 0 00-1.644-.126l-8.166 7a1.165 1.165 0 00.758 2.052h2.507l-9.07 7.255a1.166 1.166 0 101.459 1.822l11.666-9.333a1.167 1.167 0 00-.729-2.078h-2.68l5.772-4.947c.49-.42.547-1.155.127-1.645zM38.834 63H27.167a1.166 1.166 0 10-2.333 0H13.168a3.462 3.462 0 00-3.5 3.5v2.333a1.166 1.166 0 102.333 0V66.5c0-.566.41-1.167 1.167-1.167h25.666c.698 0 1.166.47 1.166 1.167v2.333a1.166 1.166 0 102.334 0V66.5c0-1.995-1.505-3.5-3.5-3.5zm-18.668-7c.075 0 .153-.007.23-.023l11.666-2.334a1.167 1.167 0 00-.457-2.287l-11.666 2.333A1.168 1.168 0 0020.166 56zm0 4.667c.075 0 .153-.007.23-.024l11.666-2.333a1.167 1.167 0 00-.457-2.288l-11.666 2.333a1.168 1.168 0 00.227 2.311zM9.667 8.903l7.295 8.207a1.17 1.17 0 001.647.097c.481-.43.525-1.167.096-1.649l-9.333-10.5a1.171 1.171 0 00-1.287-.314 1.169 1.169 0 00-.75 1.09v8.85l-5.01-5.008a1.165 1.165 0 10-1.649 1.65l7 7a1.167 1.167 0 001.991-.825V8.903z" fill="#fff"/></svg>