<svg width="70" height="70" viewBox="0 0 70 70" fill="none" xmlns="http://www.w3.org/2000/svg"><path d="M54.732 54.6c-1.867 1.75-1.867 4.667 0 6.533.933.934 2.1 1.4 3.267 1.4 1.166 0 2.333-.466 3.266-1.4 1.867-1.75 1.867-4.666 0-6.533-1.75-1.867-4.666-1.867-6.533 0zm4.9 5.017c-.933.933-2.333.933-3.267 0-.933-.934-.933-2.334 0-3.267.467-.467 1.05-.7 1.634-.7.583 0 1.166.233 1.633.7.933.933.933 2.334 0 3.267z" fill="#fff"/><path d="M69.199 56l-21-21 8.283-8.283 4.9-4.9L68.5 14.7c1.983-1.983 1.983-5.25 0-7.233l-5.95-5.95A5.119 5.119 0 0058.932 0c-1.4 0-2.683.583-3.616 1.517l-7.117 7.116-4.9 4.9-8.283 8.284L14.249 1.05c-1.284-1.283-3.617-1.283-4.9 0L1.066 9.333c-1.4 1.284-1.4 3.5 0 4.9l2.45 2.45 6.65 6.65 6.533 6.534L21.832 35 3.104 53.729c-.35.154-.538.468-.638.871l-2.45 14c0 .467.116.817.35 1.05.233.233.466.35.816.35h.234l13.459-2.488c.093.024.194.038.307.038.35 0 .7-.117.817-.35l19.017-19.017 1.516 1.517 3.267 3.267 16.217 16.216a2.732 2.732 0 001.983.817c.7 0 1.4-.233 1.867-.817l9.333-9.333c1.05-1.05 1.05-2.8 0-3.85zm-54.017 8.633L11.1 60.551l38.79-38.677 4.026 4.026-38.734 38.733zM56.95 3.15c1.05-1.05 2.916-1.05 3.967 0l5.95 5.95c1.05 1.05 1.05 2.917 0 3.967l-6.3 6.3L50.65 9.45l6.3-6.3zm-7.933 7.933l4.958 4.959L58.932 21l-3.266 3.267-9.917-9.917 3.267-3.267zM22.474 32.375l2.508-2.508a1.128 1.128 0 000-1.634 1.128 1.128 0 00-1.633 0l-2.509 2.509-1.691-1.692 4.083-4.083a1.128 1.128 0 000-1.634 1.128 1.128 0 00-1.633 0l-4.084 4.084-1.633-1.634 2.45-2.45a1.128 1.128 0 000-1.633 1.128 1.128 0 00-1.633 0l-2.45 2.45-1.634-1.633 4.084-4.084a1.128 1.128 0 000-1.633 1.128 1.128 0 00-1.634 0l-4.083 4.083-1.75-1.75 2.45-2.45a1.128 1.128 0 000-1.633 1.128 1.128 0 00-1.633 0l-2.45 2.45-1.634-1.633 4.084-4.084a1.128 1.128 0 000-1.633 1.128 1.128 0 00-1.634 0l-4.083 4.083L2.7 12.6a1.128 1.128 0 010-1.633l8.283-8.284c.234-.233.467-.35.817-.35.233 0 .583.117.817.35L33.382 23.45l-9.916 9.917-.992-.992zM44.116 16.1l4.082 4.082L9.408 58.86l-4.026-4.027L44.116 16.1zM4.449 57.167l3.827 3.827c.059.133.144.26.256.373l4.217 4.217L2.7 67.317l1.75-10.15zm63.117 1.05l-9.334 9.333c-.116.117-.466.117-.583 0L45.574 55.475l4.142-4.142a1.128 1.128 0 000-1.633 1.128 1.128 0 00-1.634 0l-4.142 4.142-1.691-1.692 2.45-2.45a1.128 1.128 0 000-1.633 1.128 1.128 0 00-1.633 0l-2.45 2.45-1.634-1.634 4.084-4.083a1.128 1.128 0 000-1.633 1.128 1.128 0 00-1.634 0L37.35 47.25l-.7-.7 9.916-9.917 21 21c.117.117.117.467 0 .584z" fill="#fff"/></svg>