<svg width="70" height="70" viewBox="0 0 70 70" fill="none" xmlns="http://www.w3.org/2000/svg"><g clip-path="url(#clip0)" fill="#fff"><path d="M60.207 61.339h-1.166V27.252h.07c1.17 0 2.122-.95 2.122-2.12v-2.19a2.123 2.123 0 00-2.122-2.119H51.37v-2.331h1.167a1.026 1.026 0 00.917-1.483l-1.45-2.897h.533a1.026 1.026 0 00.917-1.483l-1.45-2.897h.533a1.026 1.026 0 00.917-1.483L51.26 3.87a1.026 1.026 0 00-.917-.566h-1.167v-2.26a1.025 1.025 0 00-2.05 0v2.26H45.96c-.388 0-.743.219-.917.566l-2.192 4.38a1.023 1.023 0 00.917 1.483h.533l-1.45 2.897a1.023 1.023 0 00.917 1.483h.533l-1.45 2.897a1.023 1.023 0 00.917 1.483h1.167v2.33h-6.717v-2.33h1.166a1.026 1.026 0 00.917-1.483l-1.45-2.897h.533a1.026 1.026 0 00.917-1.483l-1.45-2.897h.533a1.026 1.026 0 00.917-1.483l-2.192-4.38a1.025 1.025 0 00-.917-.566h-1.166v-2.26a1.025 1.025 0 00-2.051 0v2.26h-1.167c-.388 0-.743.219-.917.566L29.7 8.249a1.023 1.023 0 00.917 1.483h.533l-1.45 2.897a1.023 1.023 0 00.917 1.483h.533l-1.45 2.897a1.023 1.023 0 00.917 1.483h1.167v2.33h-6.717v-2.33h1.167a1.026 1.026 0 00.917-1.483l-1.45-2.897h.533a1.026 1.026 0 00.917-1.483L25.7 9.732h.533a1.026 1.026 0 00.917-1.483l-2.192-4.38a1.025 1.025 0 00-.917-.566h-1.167v-2.26a1.025 1.025 0 00-2.05 0v2.26h-1.167c-.389 0-.744.219-.917.566l-2.192 4.38a1.023 1.023 0 00.917 1.483h.533l-1.45 2.897a1.023 1.023 0 00.917 1.483h.533l-1.45 2.897a1.023 1.023 0 00.917 1.483h1.167v2.33h-7.743c-1.17 0-2.121.952-2.121 2.12v2.19c0 1.17.951 2.12 2.121 2.12h.07v34.087H9.794c-1.17 0-2.121.95-2.121 2.12v4.38c0 1.168.951 2.119 2.121 2.119h50.414c1.17 0 2.122-.951 2.122-2.12v-4.38c0-1.168-.952-2.12-2.122-2.12zM46.593 5.352h3.117l1.166 2.33h-5.449l1.166-2.33zm0 4.38h3.117l1.166 2.33h-5.449l1.166-2.33zm0 4.38h3.117l1.166 2.33h-5.449l1.166-2.33zm2.725 4.38v2.331h-2.333v-2.331h2.333zM33.442 5.352h3.117l1.166 2.33h-5.45l1.167-2.33zm0 4.38h3.117l1.166 2.33h-5.45l1.167-2.33zm0 4.38h3.117l1.166 2.33h-5.45l1.167-2.33zm2.725 4.38v2.331h-2.333v-2.331h2.333zM20.29 5.352h3.116l1.166 2.33h-5.449l1.167-2.33zm0 4.38h3.116l1.166 2.33h-5.449l1.167-2.33zm0 4.38h3.116l1.166 2.33h-5.449l1.167-2.33zm2.724 4.38v2.331h-2.333v-2.331h2.333zm37.192 49.417H9.793a.07.07 0 01-.07-.07v-4.38a.07.07 0 01.07-.071h4.385a1.025 1.025 0 100-2.05H13.01V27.253h7.813v1.166a1.025 1.025 0 002.051 0v-1.166h11.1v1.166a1.025 1.025 0 002.052 0v-1.166h11.1v1.166a1.025 1.025 0 002.051 0v-1.166h2.262a1.025 1.025 0 100-2.049h-40.55a.07.07 0 01-.07-.07v-2.19a.07.07 0 01.07-.07h48.222a.07.07 0 01.071.07v2.19a.07.07 0 01-.07.07h-3.29a1.025 1.025 0 100 2.05h1.168V61.34H18.561a1.025 1.025 0 100 2.049h41.646a.07.07 0 01.07.07v4.38a.07.07 0 01-.07.071z"/><path d="M47.09 52.778L36.7 34.798a1.945 1.945 0 00-1.7-.982c-.711 0-1.347.367-1.702.982l-10.39 17.98a1.942 1.942 0 000 1.963c.355.615.991.982 1.702.982h20.779c.71 0 1.346-.367 1.701-.982a1.942 1.942 0 000-1.963zm-22.332.896L35 35.95l10.24 17.724H24.758z"/><path d="M37.191 45.956a1.026 1.026 0 00-.825-.418h-1.339l.952-3.05a1.024 1.024 0 10-1.958-.61l-1.366 4.38a1.024 1.024 0 00.979 1.33h1.338l-.951 3.05a1.024 1.024 0 101.958.61l1.365-4.38c.098-.311.04-.65-.153-.912z"/></g><defs><clipPath id="clip0"><path fill="#fff" transform="translate(0 .018)" d="M0 0h70v69.94H0z"/></clipPath></defs></svg>