<svg width="70" height="70" viewBox="0 0 70 70" fill="none" xmlns="http://www.w3.org/2000/svg"><g clip-path="url(#clip0)" fill="#fff"><path d="M38.041 34.414a1.025 1.025 0 00-.849-.45h-2.869l1.63-4.07a1.024 1.024 0 10-1.905-.762l-2.191 5.475a1.024 1.024 0 00.952 1.405h2.869l-1.63 4.07a1.024 1.024 0 101.904.762l2.192-5.476a1.024 1.024 0 00-.102-.954z"/><path d="M64.346 5.887A19.547 19.547 0 0050.676.02c-5.161-.088-10.089 1.914-13.873 5.633-3.887 3.819-6.117 9.103-6.117 14.497v3.957h-3.358a3.22 3.22 0 00-3.217 3.215v15.33a3.22 3.22 0 003.217 3.215h3.358v4.45c0 3.09-1.316 6.061-3.612 8.15-2.326 2.115-5.34 3.116-8.484 2.82-5.587-.525-9.964-5.499-9.964-11.323a1.025 1.025 0 00-2.05 0c0 3.304 1.192 6.492 3.356 8.975 2.2 2.524 5.206 4.082 8.466 4.389.428.04.854.06 1.277.06 3.26 0 6.338-1.186 8.78-3.406a13.095 13.095 0 004.282-9.665v-4.45h4.525v3.957c0 4.848-2.006 9.6-5.503 13.036-3.39 3.33-7.792 5.122-12.402 5.045a17.504 17.504 0 01-12.241-5.254A17.475 17.475 0 012.05 50.318V36.083a.07.07 0 01.07-.07h4.384a.07.07 0 01.07.07v9.445a1.025 1.025 0 002.052 0v-9.445c0-1.169-.952-2.12-2.122-2.12H5.34v-5.545a1.025 1.025 0 00-2.051 0v5.546H2.12c-1.17 0-2.121.95-2.121 2.119v14.235c0 5.18 2.008 10.07 5.654 13.771 3.642 3.696 8.496 5.78 13.669 5.866l.32.003c5.045 0 9.848-1.994 13.554-5.636 3.887-3.819 6.116-9.103 6.116-14.497v-3.958h3.358a3.22 3.22 0 003.218-3.214v-15.33a3.22 3.22 0 00-3.218-3.215h-3.358v-4.45c0-3.09 1.317-6.061 3.613-8.15 2.325-2.115 5.338-3.116 8.483-2.82 5.587.525 9.964 5.499 9.964 11.323a1.025 1.025 0 002.051 0c0-3.305-1.192-6.492-3.356-8.975-2.2-2.524-5.206-4.082-8.467-4.389-3.727-.35-7.298.838-10.056 3.346a13.096 13.096 0 00-4.283 9.665v4.45h-4.525v-3.957c0-4.848 2.006-9.6 5.503-13.036 3.39-3.33 7.793-5.121 12.402-5.045a17.504 17.504 0 0112.242 5.254 17.475 17.475 0 015.064 12.334v14.235a.07.07 0 01-.07.07h-4.384a.07.07 0 01-.07-.07v-9.445a1.025 1.025 0 00-2.051 0v9.445c0 1.169.951 2.12 2.121 2.12h1.167v5.545a1.025 1.025 0 002.05 0v-5.545h1.167c1.17 0 2.121-.951 2.121-2.12V19.658c0-5.18-2.007-10.07-5.653-13.771zM42.67 26.157c.644 0 1.167.523 1.167 1.166v15.33c0 .643-.523 1.166-1.167 1.166H27.328a1.167 1.167 0 01-1.166-1.166v-15.33c0-.643.523-1.166 1.166-1.166h15.343zM3.039 24.675l-1.096-2.19a1.025 1.025 0 00-1.834.916l1.095 2.19a1.025 1.025 0 001.835-.916z"/><path d="M8.06 22.026a1.026 1.026 0 00-1.376.459l-1.096 2.19a1.024 1.024 0 101.834.916l1.096-2.19a1.024 1.024 0 00-.458-1.375zm61.831 24.549l-1.096-2.19a1.026 1.026 0 00-1.834.916l1.096 2.19a1.025 1.025 0 001.834-.916zm-5.938-2.649a1.026 1.026 0 00-1.376.459l-1.095 2.19a1.024 1.024 0 101.834.916l1.096-2.19a1.024 1.024 0 00-.459-1.375z"/></g><defs><clipPath id="clip0"><path fill="#fff" transform="translate(0 .018)" d="M0 0h70v69.94H0z"/></clipPath></defs></svg>