<svg width="70" height="71" viewBox="0 0 70 71" fill="none" xmlns="http://www.w3.org/2000/svg"><g clip-path="url(#clip0)" fill="#fff"><path d="M63.71 68.202v-4.213c0-.755-.612-1.366-1.367-1.366h-2.735V32.57c.755 0 1.367-.612 1.367-1.366V25.74c0-.755-.612-1.366-1.367-1.366h-19.14v-2.733h1.367c.755 0 1.367-.611 1.367-1.366V9.348c0-.754-.612-1.366-1.367-1.366h-5.469v-3.87c4.924 1.462 10.4 2.231 15.962 2.231 6.273 0 12.084-.977 16.803-2.826a1.366 1.366 0 10-.998-2.543C59.184 4.479 45.74 4.47 35.44.953a1.368 1.368 0 00-.932.018L34.5.974C25.552 4.479 12.109 4.47 1.809.953a1.366 1.366 0 10-.885 2.585c5.373 1.835 11.519 2.805 17.771 2.805 5.47 0 10.588-.743 14.937-2.16v3.8h-5.469c-.755 0-1.367.611-1.367 1.365v10.929c0 .754.612 1.366 1.367 1.366h1.367v2.732H10.39c-.755 0-1.367.611-1.367 1.366v5.464c0 .754.612 1.366 1.367 1.366v30.052H7.656c-.755 0-1.368.611-1.368 1.366v4.098H1.367c-.754 0-1.368.613-1.368 1.366a1.37 1.37 0 001.368 1.366h61.796a1.37 1.37 0 001.367-1.366c0-.559-.338-1.04-.82-1.251zM29.53 10.715h10.938v2.732H29.53v-2.732zm0 5.464h10.938v2.732H29.53v-2.732zm8.203 5.464v2.732h-5.468v-2.732h5.468zm-25.976 5.464h46.484v2.732H11.757v-2.732zm39.648 24.588h-9.57c-.755 0-1.367.611-1.367 1.366v9.562H29.53V53.06c0-.755-.612-1.366-1.367-1.366h-9.57c-.755 0-1.367.611-1.367 1.366v9.562h-4.102V32.57h43.75v30.052h-4.102V53.06c0-.755-.612-1.366-1.367-1.366zm-1.367 2.732v8.196h-6.836v-8.196h6.836zm-23.242 0v8.196H19.96v-8.196h6.836zm34.18 13.66H9.022v-2.732h51.952v2.732zm7.654 0c-.752 0-1.366.613-1.366 1.366 0 .753.614 1.367 1.367 1.367s1.367-.614 1.367-1.367-.614-1.366-1.367-1.366z"/><path d="M21.6 46.231h-3.007a1.367 1.367 0 100 2.733H21.6a1.367 1.367 0 100-2.733zm2.735-5.464h-5.742a1.367 1.367 0 100 2.732h5.742a1.367 1.367 0 100-2.732zm-5.742-2.732h2.734c.753 0 1.367-.613 1.367-1.366 0-.753-.613-1.366-1.367-1.366h-2.734a1.37 1.37 0 00-1.367 1.366 1.37 1.37 0 001.367 1.367zm8.203-2.732a1.37 1.37 0 00-1.367 1.366 1.37 1.37 0 001.367 1.367 1.37 1.37 0 001.367-1.367 1.37 1.37 0 00-1.367-1.366zm24.609 10.928h-3.008a1.367 1.367 0 100 2.733h3.008a1.367 1.367 0 100-2.733zm1.368-4.098c0-.755-.613-1.366-1.368-1.366h-5.742a1.367 1.367 0 100 2.732h5.742c.755 0 1.367-.611 1.367-1.366zm-4.103-4.098h2.735a1.37 1.37 0 001.367-1.366 1.37 1.37 0 00-1.367-1.366h-2.734a1.37 1.37 0 00-1.367 1.366 1.37 1.37 0 001.367 1.367zm-5.468-2.732c-.753 0-1.367.613-1.367 1.366a1.37 1.37 0 001.367 1.367c.754 0 1.367-.614 1.367-1.367a1.37 1.37 0 00-1.367-1.366zm-5.395 12.739l-1.135.794 2.485-6.925a1.365 1.365 0 00-1.288-1.828h-3.393l1.745-3.487a1.368 1.368 0 00-2.446-1.222l-2.734 5.465a1.365 1.365 0 001.223 1.977h3.663l-2.356 6.566-1.669-2.38a1.368 1.368 0 00-2.24 1.566l3.217 4.59a1.366 1.366 0 001.904.335l4.593-3.214a1.365 1.365 0 10-1.569-2.237z"/></g><defs><clipPath id="clip0"><path fill="#fff" transform="translate(0 .879)" d="M0 0h70v69.94H0z"/></clipPath></defs></svg>