<svg width="62" height="70" viewBox="0 0 62 70" fill="none" xmlns="http://www.w3.org/2000/svg"><path d="M60.166 37.32h-2.333v-2.332h2.333a1.166 1.166 0 00.335-2.283L38 25.961V14.407l14.218 4.261H40.333a1.166 1.166 0 100 2.332H55.5v2.331h-2.334a1.166 1.166 0 100 2.331h7a1.166 1.166 0 100-2.331h-2.333V21h2.334a1.166 1.166 0 00.334-2.283L37.657 11.87 32.144.669a1.166 1.166 0 00-1.04-.651h-.007c-.44 0-.842.246-1.041.637l-5.93 11.657c-.006.013-.004.026-.01.038-.033.07-.043.147-.063.223-.018.076-.043.15-.045.227 0 .014-.008.026-.008.04v5.828H9.934l12.061-3.544a1.165 1.165 0 10-.658-2.237L1.504 18.715A1.167 1.167 0 001.833 21h2.333v2.331H1.833a1.166 1.166 0 100 2.331h7a1.166 1.166 0 100-2.331H6.5V21H24v11.656H9.934l12.061-3.544a1.166 1.166 0 00-.658-2.237L1.504 32.703a1.167 1.167 0 00.329 2.285h2.333v2.331H1.833a1.166 1.166 0 100 2.331h7a1.166 1.166 0 100-2.33H6.5v-2.332h17.12l-8.668 30.307h-3.786c-.645 0-1.166.522-1.166 1.166v2.331a1.166 1.166 0 002.333 0v-1.166h37.334v1.166a1.166 1.166 0 002.333 0v-2.331c0-.644-.522-1.166-1.167-1.166h-3.786L38 33.66v-5.264l14.218 4.261H40.333a1.166 1.166 0 100 2.331H55.5v2.332h-2.334a1.166 1.166 0 100 2.331h7a1.166 1.166 0 100-2.33zM17.38 65.294l3.813-13.33 7.634 4.852-8.137 5.175a1.166 1.166 0 101.253 1.966L31 58.2l11.159 7.095H17.38zM44.2 63.83L21.861 49.625l2.657-9.291 4.365 2.88-4.36 2.876a1.165 1.165 0 00.645 2.137c.22 0 .444-.061.641-.192L31 44.61l8.356 5.513-5.506 3.501a1.166 1.166 0 101.254 1.967l5.704-3.627L44.2 63.83zm-4.688-16.397l-7.864-5.187-.004-.003-6.453-4.258.856-2.996h7.286a1.166 1.166 0 100-2.332h-7v-4.662h7a1.166 1.166 0 100-2.332h-7V21h7a1.166 1.166 0 100-2.332h-7v-4.662h5.833a1.166 1.166 0 100-2.332h-5.098l4.011-7.884 4.587 9.322v20.71c0 .109.016.216.045.32l1.099 3.842-2.912 1.92a1.164 1.164 0 00.644 2.138c.221 0 .444-.061.641-.192l2.299-1.516 2.03 7.098z" fill="#fff"/></svg>