<svg width="70" height="71" viewBox="0 0 70 71" fill="none" xmlns="http://www.w3.org/2000/svg"><g clip-path="url(#clip0)" fill="#fff"><path d="M27.189 46.6c.546-.148.869-.71.72-1.257a12.602 12.602 0 00-3.31-5.646c-2.925-2.893-4.452-6.754-4.3-10.872.287-7.782 6.622-13.92 14.422-13.975h.105c4.976 0 9.546 2.494 12.241 6.686a1.026 1.026 0 001.726-1.107A16.523 16.523 0 0034.707 12.8a16.515 16.515 0 00-11.42 4.688c-3.091 2.994-4.88 6.993-5.037 11.26a16.625 16.625 0 004.907 12.404 10.552 10.552 0 012.774 4.727 1.025 1.025 0 001.258.72z"/><path d="M50.684 24.502a1.025 1.025 0 00-1.96.601c.424 1.378.639 2.815.639 4.271a14.41 14.41 0 01-4.367 10.378 12.342 12.342 0 00-3.68 8.775v.849a6.513 6.513 0 01-2.992 5.46H35.77V41.072l4.004-4a4.45 4.45 0 001.313-3.169v-3.816a1.025 1.025 0 00-2.05 0v1.069c-.74.179-1.171.696-1.45 1.029-.285.341-.325.356-.422.356-.097 0-.138-.015-.422-.356-.342-.409-.913-1.093-1.998-1.093-1.084 0-1.655.684-1.997 1.093-.284.341-.325.356-.422.356-.097 0-.137-.015-.422-.356-.279-.334-.711-.851-1.451-1.03v-1.068a1.025 1.025 0 00-2.05 0v3.816a4.45 4.45 0 001.312 3.168l4.004 4v13.765h-2.393a6.481 6.481 0 01-2.974-4.971 1.024 1.024 0 10-2.044.152 8.516 8.516 0 002.278 5.187 1.024 1.024 0 00.51 1.643v2.075a1.024 1.024 0 000 1.971v1.267c0 .36.035.712.1 1.054a1.024 1.024 0 00.65 1.744 5.638 5.638 0 003.97 2.749V69.8a1.025 1.025 0 002.051 0v-2.1a5.638 5.638 0 003.937-2.74h.042a1.025 1.025 0 00.625-1.835 5.69 5.69 0 00.084-.966V60.92a1.024 1.024 0 000-2.022v-2.025a1.024 1.024 0 00.567-1.734 8.564 8.564 0 002.245-5.762v-.85c0-2.74 1.117-5.405 3.064-7.31a16.44 16.44 0 004.983-11.841c0-1.661-.246-3.3-.73-4.873zm-20.231 9.401v-.26c.351.407.909.947 1.873.947 1.085 0 1.656-.684 1.997-1.093.285-.34.325-.356.422-.356.097 0 .138.015.423.356.34.41.912 1.093 1.997 1.093.962 0 1.52-.537 1.871-.944v.257c0 .65-.253 1.26-.712 1.72l-3.58 3.575-3.579-3.576a2.414 2.414 0 01-.712-1.719zm7.97 29.01h-7.196a3.565 3.565 0 01-.081-.753v-1.228h7.358v1.228c0 .259-.028.51-.08.753zm-7.277-4.03v-1.998h7.358v1.998h-7.358zm3.784 6.848h-.21a3.558 3.558 0 01-2.212-.77h4.634a3.552 3.552 0 01-2.212.77zm30.986-41.635a1.026 1.026 0 00-1.231-.765l-4.363 1.015a1.025 1.025 0 10.465 1.996l4.363-1.015c.551-.129.894-.68.766-1.23zM50.703 53.967a1.026 1.026 0 00-1.754 1.061l2.321 3.828a1.025 1.025 0 001.754-1.061l-2.32-3.828zM53.477 7.91a1.026 1.026 0 00-1.431.231l-2.62 3.63a1.024 1.024 0 101.663 1.199l2.62-3.63c.331-.46.227-1.1-.232-1.43zm10.118 34.133l-4.17-1.633a1.024 1.024 0 10-.748 1.908l4.17 1.633a1.023 1.023 0 001.328-.58 1.024 1.024 0 00-.58-1.328zM34.997 7.575c.566 0 1.025-.458 1.025-1.024V1.909a1.025 1.025 0 00-2.05 0v4.642c0 .566.459 1.024 1.025 1.024zM9.446 26.37a1.026 1.026 0 00.231-2.023L5.315 23.33a1.026 1.026 0 00-.465 1.996l4.362 1.016c.079.018.157.027.234.027zm11.26 27.251a1.026 1.026 0 00-1.409.346l-2.32 3.828a1.024 1.024 0 101.753 1.061l2.322-3.828a1.024 1.024 0 00-.346-1.407zm-.965-40.226a1.024 1.024 0 00.831-1.624l-2.62-3.63A1.026 1.026 0 0016.29 9.34l2.62 3.63c.2.278.514.426.832.426zM10.576 40.41l-4.17 1.633a1.024 1.024 0 10.748 1.908l4.17-1.633a1.024 1.024 0 10-.748-1.908z"/></g><defs><clipPath id="clip0"><path fill="#fff" transform="translate(0 .885)" d="M0 0h70v69.94H0z"/></clipPath></defs></svg>