<svg width="70" height="71" viewBox="0 0 70 71" fill="none" xmlns="http://www.w3.org/2000/svg"><g clip-path="url(#clip0)" fill="#fff"><path d="M35.928 44.21a1.106 1.106 0 00-1.473-.524c-.897.425-1.837.777-2.795 1.044-.401.112-.705.44-.786.847l-1.17 5.841a1.242 1.242 0 01-1.215.996H25.3a1.242 1.242 0 01-1.214-.996l-1.17-5.84a1.105 1.105 0 00-.785-.848 17.567 17.567 0 01-3.882-1.606 1.106 1.106 0 00-1.155.043l-4.961 3.304a1.244 1.244 0 01-1.564-.155l-2.255-2.253a1.241 1.241 0 01-.155-1.563l3.307-4.956c.23-.346.248-.792.043-1.155A17.531 17.531 0 019.9 32.511c-.112-.4-.44-.704-.848-.785l-5.846-1.168a1.242 1.242 0 01-.996-1.215v-3.186c0-.589.419-1.1.996-1.215l5.846-1.168c.408-.081.736-.385.848-.785a17.52 17.52 0 011.608-3.878 1.104 1.104 0 00-.043-1.155L8.158 13a1.24 1.24 0 01.155-1.562l2.255-2.254a1.244 1.244 0 011.564-.154l4.96 3.304c.347.23.794.247 1.156.043a17.57 17.57 0 013.882-1.607c.4-.112.704-.439.786-.847l1.17-5.84a1.242 1.242 0 011.214-.996h3.19c.588 0 1.1.419 1.215.995l1.17 5.841a1.1 1.1 0 00.785.847c1.353.379 2.66.92 3.881 1.607.363.204.81.188 1.156-.043l4.961-3.304a1.244 1.244 0 011.564.154l2.255 2.254A1.24 1.24 0 0145.632 13l-3.307 4.957a1.103 1.103 0 00-.044 1.154 17.536 17.536 0 011.609 3.879c.112.4.44.703.847.785l5.846 1.168c.578.115.997.626.997 1.214v3.187c0 .588-.42 1.099-.997 1.214l-5.846 1.168a1.105 1.105 0 00-.847.786c-.275.98-.637 1.943-1.078 2.86a1.104 1.104 0 101.993.955c.398-.828.739-1.688 1.018-2.565l5.194-1.038a3.457 3.457 0 002.772-3.38v-3.187a3.457 3.457 0 00-2.773-3.38l-5.194-1.038a19.748 19.748 0 00-1.29-3.11l2.939-4.404a3.454 3.454 0 00-.431-4.35l-2.256-2.253a3.462 3.462 0 00-4.353-.43l-4.407 2.935A19.806 19.806 0 0032.91 8.84l-1.039-5.19A3.458 3.458 0 0028.489.88H25.3a3.458 3.458 0 00-3.382 2.77l-1.039 5.19a19.76 19.76 0 00-3.113 1.289l-4.407-2.936a3.461 3.461 0 00-4.353.43L6.75 9.877a3.454 3.454 0 00-.431 4.35l2.938 4.403c-.517.997-.95 2.039-1.29 3.11l-5.194 1.038A3.457 3.457 0 000 26.157v3.187a3.457 3.457 0 002.773 3.38l5.194 1.038c.34 1.071.773 2.113 1.29 3.11l-2.938 4.404a3.454 3.454 0 00.43 4.35l2.256 2.253a3.462 3.462 0 004.353.43l4.408-2.935c.998.516 2.04.948 3.113 1.288l1.038 5.19a3.458 3.458 0 003.383 2.77h3.19a3.458 3.458 0 003.382-2.77l1.04-5.19c.85-.27 1.687-.599 2.491-.98.552-.262.787-.921.525-1.472z"/><path d="M36.468 33.887a1.105 1.105 0 001.488-.479 12.442 12.442 0 001.363-5.657c0-6.845-5.574-12.414-12.425-12.414a12.363 12.363 0 00-8.672 3.525 1.103 1.103 0 101.543 1.581 10.163 10.163 0 017.13-2.897c5.63 0 10.213 4.578 10.213 10.205 0 1.638-.377 3.203-1.12 4.65a1.104 1.104 0 00.48 1.486zM16.549 23.025a1.105 1.105 0 00-1.405.685 12.383 12.383 0 00-.673 4.04c0 6.845 5.573 12.414 12.424 12.414 2.634 0 5.152-.814 7.28-2.353a1.104 1.104 0 10-1.297-1.79 10.145 10.145 0 01-5.983 1.934c-5.632 0-10.214-4.578-10.214-10.205 0-1.138.186-2.256.553-3.322a1.104 1.104 0 00-.685-1.403zm51.325 26.117l-3.196-.638a13.34 13.34 0 00-.701-1.69l1.808-2.71a2.649 2.649 0 00-.33-3.336l-1.483-1.481a2.655 2.655 0 00-3.338-.33l-2.712 1.806a13.363 13.363 0 00-1.692-.7l-.64-3.193a2.652 2.652 0 00-2.594-2.125H50.9a2.653 2.653 0 00-2.594 2.125l-.64 3.193c-.579.195-1.144.429-1.691.7l-2.712-1.806a2.655 2.655 0 00-3.339.33l-1.482 1.48a2.649 2.649 0 00-.33 3.337l1.808 2.71a13.338 13.338 0 00-.903 2.346 1.104 1.104 0 102.128.595c.241-.86.585-1.689 1.022-2.465a1.104 1.104 0 00-.043-1.154l-2.173-3.257a.436.436 0 01.054-.55l1.482-1.48a.438.438 0 01.55-.055l3.26 2.172c.346.23.793.247 1.155.043.777-.437 1.607-.78 2.467-1.02.4-.113.705-.44.786-.848l.768-3.838c.04-.203.22-.35.427-.35h2.096c.207 0 .387.147.427.35l.768 3.838c.082.408.386.735.786.847.86.24 1.69.584 2.467 1.022.363.204.81.187 1.156-.044l3.26-2.171a.437.437 0 01.55.054l1.481 1.48a.436.436 0 01.055.55l-2.174 3.257c-.23.346-.247.792-.043 1.155.437.776.781 1.605 1.022 2.464.112.4.44.704.848.785l3.841.768c.203.04.35.22.35.427v2.094a.436.436 0 01-.35.426l-3.842.768a1.105 1.105 0 00-.847.785c-.24.86-.585 1.689-1.022 2.465a1.1 1.1 0 00.043 1.154l2.173 3.258a.436.436 0 01-.054.549l-1.482 1.48a.437.437 0 01-.55.055l-3.26-2.172a1.106 1.106 0 00-1.155-.043c-.777.437-1.607.78-2.467 1.021-.4.112-.704.44-.786.847l-.768 3.838a.436.436 0 01-.427.35H50.9a.437.437 0 01-.427-.35l-.768-3.838a1.105 1.105 0 00-.786-.847 11.16 11.16 0 01-2.467-1.021 1.106 1.106 0 00-1.155.043l-3.26 2.172a.437.437 0 01-.55-.055l-1.482-1.48a.436.436 0 01-.055-.55l2.174-3.257c.23-.346.248-.792.043-1.154a11.138 11.138 0 01-1.022-2.465c-.112-.4-.44-.704-.848-.785l-3.84-.768a.436.436 0 01-.35-.426v-2.095c0-.206.146-.386.35-.426l.234-.047a1.104 1.104 0 10-.434-2.166l-.235.047a2.652 2.652 0 00-2.127 2.593v2.094c0 1.255.895 2.346 2.128 2.592l3.196.639c.194.578.429 1.144.7 1.69l-1.808 2.71a2.649 2.649 0 00.33 3.336l1.483 1.48a2.655 2.655 0 003.339.33l2.712-1.806c.547.272 1.112.506 1.691.7l.64 3.194a2.653 2.653 0 002.594 2.125h2.096a2.653 2.653 0 002.595-2.126l.639-3.193c.58-.194 1.145-.429 1.692-.7l2.712 1.806a2.655 2.655 0 003.338-.33l1.483-1.48a2.65 2.65 0 00.33-3.336l-1.808-2.71c.272-.547.506-1.112.7-1.69l3.197-.639A2.651 2.651 0 0070 53.829v-2.095a2.651 2.651 0 00-2.127-2.592z"/><path d="M51.947 48.806a3.982 3.982 0 013.98 3.976 1.105 1.105 0 002.21 0c0-3.41-2.777-6.184-6.19-6.184-3.413 0-6.19 2.774-6.19 6.184s2.777 6.184 6.19 6.184c1.383 0 2.69-.445 3.782-1.288a1.104 1.104 0 10-1.352-1.748 3.982 3.982 0 01-6.409-3.148 3.982 3.982 0 013.98-3.976zM33.629 27.75c0-3.71-3.021-6.727-6.734-6.727S20.16 24.04 20.16 27.75c0 3.71 3.02 6.728 6.734 6.728 3.713 0 6.734-3.018 6.734-6.728zm-11.257 0a4.527 4.527 0 014.523-4.519 4.527 4.527 0 014.523 4.52 4.527 4.527 0 01-4.523 4.519 4.526 4.526 0 01-4.523-4.52z"/></g><defs><clipPath id="clip0"><path fill="#fff" transform="translate(0 .879)" d="M0 0h70v69.94H0z"/></clipPath></defs></svg>