<svg width="70" height="70" viewBox="0 0 70 70" fill="none" xmlns="http://www.w3.org/2000/svg"><path d="M35 38.34a3.5 3.5 0 100-7 3.5 3.5 0 000 7z" fill="#fff"/><path d="M35 0C15.75 0 0 15.75 0 35s15.75 35 35 35 35-15.75 35-35S54.25 0 35 0zm0 66.818C17.5 66.818 3.182 52.5 3.182 35S17.5 3.182 35 3.182 66.818 17.5 66.818 35 52.5 66.818 35 66.818z" fill="#fff"/><path d="M49.955 57.59l-8.75-15.113c-.16-.318-.637-.636-.955-.795-.477-.16-.795 0-1.273.159-1.272.795-2.545 1.113-3.977 1.113-.955 0-1.59.637-1.59 1.591 0 .955.636 1.591 1.59 1.591 1.432 0 2.864-.318 4.136-.795l7.16 12.409c-7 3.5-15.591 3.5-22.591 0l7.954-13.682c.477-.795.16-1.75-.636-2.227-.796-.478-1.75-.16-2.227.636l-8.75 15.114c-.478.795-.16 1.75.636 2.227 4.295 2.545 9.227 3.818 14.318 3.818 5.091 0 10.023-1.273 14.318-3.818.796-.477.955-1.432.637-2.227zm9.864-36.908a30.163 30.163 0 00-10.5-10.5c-.796-.478-1.75-.16-2.228.636l-8.75 15.114c-.159.318-.159.795-.159 1.273.16.477.318.795.796.954a6.243 6.243 0 012.863 2.864c.477.795 1.432.954 2.227.636.796-.477.955-1.432.637-2.227A8.766 8.766 0 0042 26.25l7.16-12.41c3.181 2.228 6.045 5.092 7.954 8.433 1.91 3.34 3.182 7.159 3.34 11.136H44.547c-.955 0-1.591.636-1.591 1.59 0 .955.636 1.592 1.59 1.592h17.5c.955 0 1.592-.637 1.592-1.591 0-4.932-1.273-10.023-3.818-14.318zm-28.159 5.25l-8.75-15.114c-.478-.795-1.433-.954-2.228-.636a30.163 30.163 0 00-10.5 10.5C7.637 24.977 6.364 30.068 6.364 35c0 .955.636 1.59 1.59 1.59h17.5c.478 0 .796-.158 1.114-.476.318-.319.477-.637.477-1.114 0-1.432.319-2.705 1.114-3.977.477-.796.16-1.75-.636-2.227-.796-.478-1.75-.16-2.228.636a16.926 16.926 0 00-1.432 3.977H9.546c.318-3.977 1.431-7.795 3.34-11.136 1.91-3.341 4.773-6.364 7.955-8.432l7.955 13.682c.477.795 1.431.954 2.227.636.795-.477.954-1.432.636-2.227z" fill="#fff"/></svg>