<svg width="64" height="64" viewBox="0 0 64 64" fill="none" xmlns="http://www.w3.org/2000/svg"><path d="M63.5 32c0 17.397-14.103 31.5-31.5 31.5S.5 49.397.5 32 14.603.5 32 .5 63.5 14.603 63.5 32z" stroke="#fff"/><path d="M29.986 31.997c-7.923 0-14.416-.01-14.428-.022-.012-.012-.018-.223-.013-.47l.008-.447 14.398-.008c7.919-.004 14.419-.015 14.444-.025.031-.012-1.458-1.522-4.51-4.574-2.506-2.506-4.556-4.577-4.556-4.603 0-.053.568-.637.62-.637.052 0 10.293 10.256 10.293 10.309 0 .051-10.24 10.309-10.292 10.309-.052 0-.622-.584-.622-.636 0-.027 2.047-2.095 4.549-4.596 2.501-2.502 4.54-4.56 4.532-4.574-.009-.015-6.499-.026-14.422-.026z" fill="#fff"/></svg>