<svg width="70" height="70" viewBox="0 0 70 70" fill="none" xmlns="http://www.w3.org/2000/svg"><g clip-path="url(#clip0)" fill="#fff"><path d="M62.58.27a1.168 1.168 0 00-1.717.249l-4.667 7a1.173 1.173 0 00-.196.647v10.5H4.667A4.671 4.671 0 000 23.334 4.671 4.671 0 004.667 28H7v9.333H1.167C.523 37.333 0 37.856 0 38.5v7c0 .644.523 1.166 1.167 1.166h14c.644 0 1.166-.522 1.166-1.166v-7c0-.644-.522-1.167-1.166-1.167h-2.334a1.167 1.167 0 000 2.333H14v4.667H2.333v-4.667h5.834c.644 0 1.166-.522 1.166-1.166V28H28v5.67l-9.046 31.663h-3.787c-.644 0-1.167.523-1.167 1.167v2.333a1.167 1.167 0 002.333 0v-1.166h37.334v1.166a1.167 1.167 0 002.333 0V66.5c0-.644-.523-1.167-1.167-1.167h-3.787L42 33.67V28h14.93l9.915 4.203c-1.236 6.258-3.572 9.85-4.858 11.424l-3.654-5.48V31.5a1.167 1.167 0 00-2.333 0v7c0 .23.069.456.196.647l4.47 6.706v15.98a1.167 1.167 0 002.334 0v-15.83c1.581-1.592 7-8.105 7-22.67C70 6.645 62.883.523 62.58.27zm-4.247 8.25l3.654-5.48c1.287 1.577 3.622 5.168 4.858 11.423l-8.512 3.609V8.52zM21.38 65.333l3.812-13.343 7.636 4.859-8.138 5.178a1.168 1.168 0 001.253 1.97L35 58.231l11.16 7.101H21.38zm26.82-1.468L25.862 49.65l2.657-9.3 4.364 2.883-4.358 2.878a1.166 1.166 0 101.285 1.947L35 44.631l8.356 5.517-5.507 3.504a1.167 1.167 0 001.254 1.969l5.705-3.631 3.393 11.875zm-4.688-16.41L29.19 37.997l1.098-3.843c.03-.105.045-.213.045-.321V28h9.334v5.833c0 .108.015.216.045.32l1.098 3.844-2.912 1.924a1.166 1.166 0 001.286 1.947l2.298-1.518 2.03 7.105zM58.333 26.06V24.5a1.167 1.167 0 00-2.333 0v1.166H4.667a2.336 2.336 0 01-2.334-2.333A2.336 2.336 0 014.667 21h52.5c.16 0 .315-.033.455-.093l9.618-4.076c.264 1.946.427 4.101.427 6.502s-.163 4.556-.427 6.502l-8.907-3.776z"/><path d="M8.201 22.166H8.19c-.644 0-1.161.523-1.161 1.167S7.557 24.5 8.2 24.5a1.166 1.166 0 100-2.334zm26.834 0h-.011c-.644 0-1.161.523-1.161 1.167s.528 1.167 1.172 1.167a1.166 1.166 0 100-2.334z"/></g><defs><clipPath id="clip0"><path fill="#fff" d="M0 0h70v70H0z"/></clipPath></defs></svg>