<svg width="83" height="10" viewBox="0 0 83 10" fill="none" xmlns="http://www.w3.org/2000/svg"><path d="M32.448 7.35h2.22v2.388h-2.22V7.35z" fill="#2E56F6"/><path d="M12.969 2.167c-1.58 0-2.829 1.124-2.829 2.822 0 1.31.743 2.277 1.81 2.653.069.026.142.047.216.068v2.16l-.216-.038c-2.298-.448-4.03-2.396-4.03-4.837C7.92 2.2 10.18.054 12.97.054c2.786 0 5.049 2.143 5.049 4.94 0 .574-.1 1.656-.812 2.716-1.119 1.669-2.924 2.07-3.313 2.146V7.681c.255-.08.691-.258 1.093-.647.799-.777.816-1.787.816-2.04-.004-1.699-1.252-2.827-2.833-2.827zM2.22 9.738H0v-5.02h3.883c.609 0 1.11-.528 1.11-1.22 0-.693-.501-1.221-1.11-1.221H0V.24h3.883c1.844 0 3.33 1.454 3.33 3.258 0 1.166-.722 2.226-1.788 2.754l2.064 3.486H5.105L3.274 6.616H2.22v3.122zM32.055.24l-.574 2.037h-2.272L29.723.24h2.332zm-4.008 6.65L26.177.244h-1.8l-1.87 6.646L20.83.244h-2.328l2.678 9.494h2.522l1.581-5.602 1.58 5.602h2.523l1.447-5.134H28.63l-.583 2.286zM69.52.245h2.22v9.493h-2.22V.245zM40.955 4.073c-.618-.098-1.15-.08-1.417-.474a.775.775 0 01-.095-.693c.13-.363.57-.608 1.093-.566h2.02L41.33.253h-.799c-.125-.004-2.16-.067-3.08 1.306a2.889 2.889 0 00-.461 1.394c-.005.198.004.765.328 1.322.501.866 1.507 1.289 2.53 1.568 1.456.393 2.014.625 2.014 1.208 0 .368-.264.773-1.318.773-1.097 0-1.693-.528-2.038-1.314l-1.918 1.073c.54 1.399 1.844 2.345 3.883 2.345 2.107 0 3.606-1.086 3.606-2.915 0-.566-.13-1.01-.35-1.369-.76-1.23-2.63-1.55-2.772-1.571zm3.602-1.737h2.517v7.406h2.22V.245h-5.96l1.222 2.091zM63.883.245h-7.697V6.32c0 .718-.345 1.33-1.524 1.33-1.18 0-1.525-.607-1.525-1.33V.245h-2.22V6.51c0 2.037 1.607 3.258 3.745 3.258 2.133 0 3.744-1.221 3.744-3.258V2.332h5.477c1.524 0 2.578 1.03 2.578 2.657s-1.054 2.658-2.578 2.658H62.22V3.849H60v5.885h3.883c2.677 0 4.716-2.062 4.716-4.749S66.56.245 63.884.245zm14.045-.19c-2.786 0-5.05 2.142-5.05 4.939 0 2.496 1.806 4.474 4.182 4.867V7.697c-1.145-.333-1.961-1.33-1.961-2.7 0-1.693 1.248-2.821 2.829-2.821 1.58 0 2.829 1.123 2.829 2.822 0 1.369-.817 2.366-1.961 2.7V9.86c2.375-.393 4.18-2.366 4.18-4.867C82.974 2.2 80.715.054 77.93.054z" fill="#0A143D"/></svg>