<svg width="68" height="68" viewBox="0 0 68 68" fill="none" xmlns="http://www.w3.org/2000/svg"><g clip-path="url(#clip0)" fill="#fff"><path d="M67.948 64.49a.996.996 0 00-1.26-.63l-6.285 2.095-6.286-2.096a.994.994 0 00-.63 0l-1.334.445 6.984-18.958a.996.996 0 00-.594-1.28l-3.824-1.39-2.15-18.04a5.38 5.38 0 00-5.367-4.833h-3.405v-3.404a.996.996 0 00-.996-.997h-2.304V6.393h.104c.55 0 .996-.445.996-.996v-4.4A.996.996 0 0040.6.001H27.399a.996.996 0 00-.996.996v4.4c0 .55.446.996.996.996h.104v9.01H25.2a.996.996 0 00-.996.996v3.404h-3.405a5.38 5.38 0 00-5.367 4.833l-2.15 18.04-3.824 1.39a.997.997 0 00-.594 1.28l1.472 3.997.001.003.001.003 5.51 14.955-1.334-.445a.994.994 0 00-.63 0l-6.286 2.096-6.286-2.096a.995.995 0 10-.63 1.89l6.6 2.2a.996.996 0 00.63 0l6.287-2.095 2.97.99.002.001 3.313 1.105a.996.996 0 00.63 0l6.286-2.096 6.286 2.096h.004a.999.999 0 00.14.035l.027.004a1.005 1.005 0 00.287 0l.027-.004a.992.992 0 00.14-.034l.005-.001 6.286-2.096 6.285 2.096a.996.996 0 00.63 0l6.286-2.096 6.285 2.096a.996.996 0 00.63 0l6.601-2.2a.996.996 0 00.63-1.26zM53.446 44.331l3.476 1.264-.783 2.125-21.143-7.813v-2.285l18.436 6.704.014.005zM39.605 1.993v2.408h-11.21V1.993h11.21zM29.495 12.44V6.393h9.01v.64l-9.01 5.406zm9.01-3.082v6.046h-9.01v-.64l9.01-5.406zm-12.31 8.038h15.61v2.408h-15.61v-2.408zm-5.397 4.4h26.404c1.529 0 2.831.998 3.257 2.409H17.541a3.393 3.393 0 013.257-2.409zm-3.547 4.4H50.75l1.872 15.718-18.28-6.648-.011-.003a.999.999 0 00-.15-.04l-.022-.003a.988.988 0 00-.317 0l-.021.003c-.051.01-.102.023-.15.04l-.01.003-18.282 6.647 1.873-15.716zm-6.173 19.401l3.471-1.262.008-.003 18.447-6.708v2.285L11.86 47.72l-.782-2.125zm36.124 20.359l-6.286-2.096a.994.994 0 00-.63 0l-5.29 1.764v-5.64a.996.996 0 10-1.992 0v5.64l-5.29-1.764a.994.994 0 00-.63 0L20.8 65.955l-2.531-.844L12.55 49.59l20.455-7.559v13.972a.996.996 0 101.992 0V42.032l20.455 7.558-5.718 15.521-2.531.844z"/><path d="M27.399 47.305a.996.996 0 00-.997.996v3.24l-6.937 1.892-.802-2.177a.996.996 0 10-1.869.69l1.118 3.032a.996.996 0 001.196.617l8.553-2.332a.996.996 0 00.734-.961v-4a.996.996 0 00-.996-.997zm23.215 3.361a.996.996 0 00-1.28.59l-.8 2.176-6.938-1.891V48.3a.996.996 0 10-1.992 0v4c0 .45.3.843.734.962l8.552 2.332a.997.997 0 001.197-.617l1.117-3.033a.996.996 0 00-.59-1.279zM25.199 27.503h-6.051a.996.996 0 00-.989.872l-.55 4.4a.996.996 0 00.989 1.12h6.6c.55 0 .997-.445.997-.996v-4.4a.996.996 0 00-.996-.996zm-5.473 4.4l.301-2.408h4.175v2.408h-4.476zm19.775-4.4H28.5a.996.996 0 00-.996.996v4.4c0 .55.446.996.996.996h11.001c.55 0 .996-.446.996-.996v-4.4a.996.996 0 00-.996-.996zm-.996 4.4h-9.009v-2.408h9.01v2.408zm11.885.873l-.55-4.4a.996.996 0 00-.988-.873H42.8a.996.996 0 00-.996.996v4.4c0 .55.446.996.996.996h6.6a.996.996 0 00.99-1.12zm-6.593-.873v-2.408h4.175l.302 2.408h-4.477z"/></g><defs><clipPath id="clip0"><path fill="#fff" d="M0 0h68v68H0z"/></clipPath></defs></svg>