<svg width="62" height="70" viewBox="0 0 62 70" fill="none" xmlns="http://www.w3.org/2000/svg"><path d="M60.166 37.333h-2.333V35h2.333a1.167 1.167 0 00.335-2.284L38 25.966V14.4l14.218 4.266H40.333a1.166 1.166 0 100 2.333H55.5v2.333h-2.334a1.166 1.166 0 100 2.334h7a1.166 1.166 0 100-2.334h-2.333V21h2.334a1.166 1.166 0 00.334-2.284l-22.845-6.854L32.144.652A1.166 1.166 0 0031.104 0h-.007c-.44 0-.842.246-1.041.638l-5.93 11.667c-.006.013-.004.026-.01.038-.033.07-.043.147-.063.223-.018.076-.043.15-.045.228 0 .014-.008.025-.008.04v5.833H9.934l12.061-3.548c.619-.181.972-.83.79-1.448a1.165 1.165 0 00-1.448-.791L1.504 18.713A1.168 1.168 0 001.833 21h2.333v2.333H1.833a1.166 1.166 0 100 2.334h7a1.166 1.166 0 100-2.334H6.5V21H24v11.667H9.934l12.061-3.548a1.166 1.166 0 00-.658-2.239L1.504 32.713A1.168 1.168 0 001.833 35h2.333v2.333H1.833a1.166 1.166 0 100 2.334h7a1.166 1.166 0 100-2.334H6.5V35h17.12l-8.668 30.333h-3.786c-.645 0-1.166.523-1.166 1.167v2.333a1.166 1.166 0 102.333 0v-1.166h37.334v1.166a1.166 1.166 0 102.333 0V66.5c0-.644-.522-1.167-1.167-1.167h-3.786L38 33.67v-5.269l14.218 4.266H40.333a1.166 1.166 0 100 2.333H55.5v2.333h-2.334a1.166 1.166 0 100 2.334h7a1.166 1.166 0 100-2.334zm-42.786 28l3.813-13.342 7.634 4.857-8.137 5.179a1.168 1.168 0 001.253 1.968L31 58.232l11.159 7.101H17.38zm26.82-1.467L21.861 49.65l2.657-9.3 4.365 2.883-4.36 2.878a1.166 1.166 0 101.286 1.948L31 44.63l8.356 5.517-5.506 3.505a1.167 1.167 0 001.254 1.968l5.704-3.63L44.2 63.866zm-4.688-16.41l-7.864-5.192c0-.002-.002-.003-.004-.004l-6.453-4.262.856-2.998h7.286a1.166 1.166 0 100-2.333h-7V28h7a1.166 1.166 0 100-2.333h-7V21h7a1.166 1.166 0 100-2.333h-7V14h5.833a1.166 1.166 0 100-2.333h-5.098l4.011-7.892 4.587 9.33v20.729c0 .108.016.215.045.32l1.099 3.844-2.912 1.923a1.166 1.166 0 001.285 1.947l2.299-1.518 2.03 7.105z" fill="#fff"/></svg>