<svg width="70" height="70" viewBox="0 0 70 70" fill="none" xmlns="http://www.w3.org/2000/svg"><g clip-path="url(#clip0)"><path fill-rule="evenodd" clip-rule="evenodd" d="M33.841 2.071c-.24.074-.584.368-.752.643-.086.142-.092.305-.092 2.466 0 2.763.07 2.514-.702 2.514-.437 0-.532.016-.738.124-.4.21-.625.455-.762.83-.092.252-.099.405-.099 2.23 0 1.717-.01 1.972-.078 2.04-.065.065-.214.079-.838.079-1.065 0-1.36.115-1.676.65-.11.188-.132.283-.13.576.002.22.033.406.084.5.103.194.364.458.6.607.208.132.265.278.217.556-.018.104-.055.458-.081.788-.027.33-.07.826-.098 1.101-.027.275-.072.782-.101 1.126a193.403 193.403 0 01-.198 2.226c-.03.33-.075.803-.1 1.05-.043.416-.08.813-.2 2.152a284.991 284.991 0 01-.2 2.151c-.043.416-.08.813-.2 2.152a238.537 238.537 0 01-.202 2.176c-.026.262-.07.746-.099 1.076-.028.33-.072.814-.098 1.076a65.09 65.09 0 00-.2 2.276c-.026.385-.073.88-.105 1.1-.032.22-.079.649-.104.951-.044.524-.065.75-.193 2.152l-.1 1.1a192.85 192.85 0 01-.2 2.152c-.043.426-.094.977-.202 2.176-.026.289-.06.728-.077.976-.017.247-.054.478-.082.512-.075.092-1.406.088-1.482-.004-.052-.062-.062-2.4-.058-12.55.001-1.56.007-1.592.282-1.592.146 0 .497-.169.662-.318.213-.195.357-.55.357-.883 0-.496-.233-.867-.686-1.095l-.21-.105H3.56l-.305.196c-.321.208-.36.258-.483.609-.124.358-.102.689.065.948.233.363.614.648.866.648.313 0 .291-.527.291 7.123 0 5.351-.014 6.98-.06 7.026-.04.04-.274.06-.722.06-1.15 0-1.688.237-2.013.886-.103.207-.105.26-.105 3.216v3.006l.124.236c.21.4.455.625.83.763.255.093.407.098 2.83.098 2.26 0 2.569.01 2.638.079.07.07.078.58.078 4.872 0 4.066-.01 4.802-.07 4.852-.055.045-.17.034-.507-.047-.466-.113-1.034-.377-1.723-.8-.556-.342-1.44-.785-1.822-.912-.475-.158-.99-.244-1.92-.32-.707-.058-1.25.25-1.459.83-.124.345-.124.46 0 .802.211.576.684.85 1.475.852a4.255 4.255 0 011.476.309c.096.04.569.311 1.05.6 1.24.746 1.358.8 2.3 1.05 1.276.338 3.27.252 4.276-.183.586-.254.906-.417 1.45-.738l.875-.515c.436-.257.549-.304 1.006-.42.382-.099.524-.109 1.25-.09.84.024 1.19.07 1.495.2l.449.193c.15.065.506.27.79.456 1.427.937 2.618 1.307 4.21 1.307.703 0 .917-.021 1.65-.162.203-.039.474-.129 1.142-.379.294-.11.693-.314.934-.478.76-.518 1.477-.883 2.025-1.033.36-.097.546-.115 1.2-.115 1.193 0 1.61.138 3.076 1.021.888.535 1.63.864 2.225.984 1.374.28 3.183.178 4.125-.231.765-.332.873-.39 2.118-1.128.512-.304.71-.391 1.15-.506.471-.123.622-.14 1.308-.14 1.24 0 1.7.165 3.278 1.178.271.174.56.317 1.197.595.298.13.896.276 1.375.336.815.103 2.245.05 2.8-.102.904-.249 1.38-.464 2.45-1.11.91-.549 1.157-.671 1.5-.748.152-.034.357-.082.457-.107a3.72 3.72 0 01.639-.045c.386 0 .495-.02.694-.121.507-.259.761-.66.76-1.197 0-.45-.257-.806-.769-1.068-.224-.115-.283-.123-.7-.097-1.06.065-1.746.2-2.293.45l-.575.262c-.289.131-.865.467-1.237.72-.702.478-1.61.75-2.505.75-.446 0-.58-.016-.642-.078-.07-.07-.079-.581-.079-4.875 0-4.293.008-4.804.079-4.874.07-.07.378-.079 2.638-.079 2.422 0 2.574-.005 2.83-.098.352-.13.532-.285.806-.7l.148-.222v-3.044c0-2.996-.002-3.048-.106-3.255-.328-.657-.891-.901-2.008-.872-.471.012-.653 0-.67-.044-.027-.07.167-.455.375-.745.079-.11.263-.392.409-.626.146-.234.416-.662.6-.95l.592-.939.516-.825c.142-.227.415-.66.608-.963.73-1.148 1.026-1.614 1.284-2.027l.608-.963.684-1.075c.319-.501.45-.71 1.108-1.764.657-1.051.789-1.261 1.1-1.75.184-.29.454-.718.6-.952.147-.233.417-.661.602-.95.185-.29.422-.672.528-.85a6.88 6.88 0 01.312-.487c.065-.09.191-.28.28-.426l.428-.689c.147-.234.365-.586.485-.783.222-.364.35-.472.423-.357.023.036.041 5 .042 11.03 0 9.903-.007 10.974-.078 11.045-.064.063-.205.078-.738.078-.883 0-1.143.091-1.574.55-.199.213-.275.35-.327.593-.079.37-.103 6.272-.027 6.612.124.555.394.927.83 1.146.207.103.26.105 3.114.105h2.904l.236-.12c.13-.067.312-.196.405-.288.463-.456.456-.395.456-4.11 0-3.008-.005-3.176-.097-3.43a1.514 1.514 0 00-.96-.96c-.214-.078-.398-.098-.926-.098-.534 0-.675-.014-.739-.078-.071-.072-.077-1.312-.06-13.296.01-7.27.035-13.323.055-13.452.028-.178.013-.3-.063-.51-.16-.444-.438-.727-.873-.886-.332-.121-.51-.12-.927.007-.694.213-1.661.512-2.41.747-.427.133-1.012.313-1.3.4a232.3 232.3 0 00-2.726.848c-.357.113-.684.205-.725.205-.115 0-.356.162-.584.395-.193.197-.539.703-1.166 1.706l-.608.963-.684 1.075-.608.963-.6.951c-.322.506-.584.923-1.117 1.776-.137.22-.4.637-.584.926l-.6.95c-.146.234-.42.668-.608.963l-.684 1.076-.608.963a72.06 72.06 0 01-.537.844c-.149.23-.402.638-.563.907-.16.27-.414.678-.563.908-.149.23-.436.677-.637.993-.201.317-.562.88-.8 1.251a122.631 122.631 0 00-1.192 1.889l-.516.825c-.65 1.04-.967 1.52-1.057 1.602-.082.074-.2.087-.81.087-.51 0-.728-.018-.764-.063-.028-.034-.065-.265-.082-.512a33.375 33.375 0 00-.078-.926c-.044-.44-.082-.85-.201-2.176a1012.655 1012.655 0 00-.3-3.252 51.149 51.149 0 01-.101-1.101c-.05-.63-.132-1.534-.201-2.226-.026-.262-.07-.746-.098-1.076a50.99 50.99 0 00-.202-2.001 24.61 24.61 0 01-.1-1.101 51.19 51.19 0 00-.096-1.176c-.045-.439-.082-.844-.203-2.176-.12-1.339-.157-1.736-.2-2.152-.042-.415-.079-.812-.2-2.15-.12-1.34-.157-1.737-.2-2.152-.025-.248-.07-.72-.1-1.05l-.1-1.102c-.025-.275-.07-.781-.098-1.125-.03-.344-.074-.84-.1-1.101-.026-.261-.07-.734-.1-1.05a31.039 31.039 0 00-.081-.815c-.044-.337.004-.47.218-.604.235-.15.497-.414.596-.602.048-.092.075-.28.074-.515-.002-.303-.024-.41-.125-.581-.306-.52-.61-.636-1.667-.636-.624 0-.774-.014-.838-.079-.07-.068-.079-.323-.079-2.04 0-1.825-.007-1.978-.098-2.23-.138-.375-.362-.62-.763-.83-.205-.108-.3-.124-.737-.124-.772 0-.702.25-.702-2.514 0-2.604.027-2.41-.399-2.827a1.108 1.108 0 00-.477-.286c-.31-.09-.373-.09-.68.004zm1.277 8.103c.118.118.118 2.626 0 2.744-.116.117-1.726.117-1.843 0-.067-.067-.078-.263-.078-1.372 0-1.11.01-1.305.078-1.372.066-.066.222-.079.922-.079.7 0 .856.013.921.079zm1.754 5.356c.133.052.188.256.236.87a205.834 205.834 0 00.29 3.226c.085.872.086.85-.027.865-.055.008-.145-.026-.2-.075-.054-.05-.223-.19-.374-.314a6.604 6.604 0 01-.35-.3 6.398 6.398 0 00-.35-.301 9.517 9.517 0 01-.3-.25 9.804 9.804 0 00-.3-.25 9.807 9.807 0 01-.3-.25 9.452 9.452 0 00-.3-.25 9.54 9.54 0 01-.3-.25 9.644 9.644 0 00-.3-.25 7.639 7.639 0 01-.3-.253 22.278 22.278 0 00-.55-.448 22.39 22.39 0 01-.55-.449 7.61 7.61 0 00-.3-.252 9.54 9.54 0 01-.3-.25 9.622 9.622 0 00-.3-.25c-.425-.345-.516-.468-.417-.567.043-.043 5.18-.044 5.292-.002zm-5.367 3.357c.092.076.178.15.192.164.013.014.148.127.3.25.15.123.286.236.3.252.013.015.26.217.55.448a28.033 28.033 0 01.85.701c.151.123.309.258.35.301.041.044.31.268.596.498.286.231.601.493.7.582.098.09.233.206.3.259.078.062.11.124.089.178-.03.076-.245.083-2.446.082-1.328 0-2.44-.017-2.473-.038-.069-.043-.034-.612.176-2.913.042-.467.064-.603.136-.838.031-.104.204-.07.38.074zm6.285 6.262c.092.058.156.37.212 1.031.025.303.07.787.1 1.076.029.289.057.694.062.9.007.341-.001.377-.092.39-.06.009-.342-.151-.7-.396l-1.675-1.143a258.61 258.61 0 01-1.475-1.01 7.764 7.764 0 00-.55-.357c-.271-.14-.495-.36-.46-.452.029-.076.223-.083 2.27-.083 1.233 0 2.27.02 2.308.044zm25.51.408c0 .203-.857 1.488-1.014 1.52a9.678 9.678 0 01-.787.134l-.675.095c-.165.024-.471.064-.68.09-.21.025-.402.058-.427.074-.026.016-.214.034-.42.041-.337.011-.374.003-.387-.085-.02-.131.335-.723.463-.772.095-.037.595-.192 2.101-.654.358-.11.842-.264 1.075-.342.445-.148.75-.19.75-.101zm-32.47 1.086l.736.513c.295.206.624.431.73.5.106.069.639.431 1.184.805l1.707 1.167c.506.345.711.512.7.571-.015.077-.25.085-2.874.097-2.605.012-2.866.005-2.941-.07a.176.176 0 01-.049-.188c.019-.058.056-.364.081-.68.026-.317.067-.801.092-1.076l.088-1.026c.063-.776.158-.882.546-.613zm29.683 3.346c-.01.102-.247.51-.722 1.244a83.29 83.29 0 00-.492.776l-.384.613c-.066.105-.157.188-.208.188-.11 0-.172-.116-.309-.576-.057-.193-.204-.66-.326-1.04-.279-.863-.28-.914-.036-.987.212-.063.59-.126 1.213-.203.234-.03.56-.07.725-.093.457-.061.552-.048.54.078zm-38.617 2.269c.106.067.13 1.505.1 5.844-.022 3.053-.035 3.523-.1 3.564-.047.03-2.969.048-7.66.048-6.829.001-7.592-.007-7.663-.078-.07-.07-.079-.563-.079-4.674 0-4.111.009-4.604.079-4.674.07-.071.834-.079 7.663-.078 4.682 0 7.613.019 7.66.048zm34.019.289c.037.076.097.25.133.388.036.137.127.452.203.7.269.876.316 1.052.31 1.146-.015.207-.005.205-1.802.31-.52.03-.66-.004-.66-.156 0-.035.172-.33.383-.657.356-.551.61-.954 1.014-1.606.185-.298.313-.337.419-.125zm-17.43.304c.102.065.172.347.218.884.05.57.128 1.43.194 2.126.112 1.177.113 1.201.05 1.277-.034.04-.079.074-.099.074-.06 0-1.261-.78-1.457-.947-.1-.084-.2-.154-.225-.154-.024 0-.269-.16-.544-.353a33.41 33.41 0 00-.775-.533 47.125 47.125 0 01-.614-.41 10.936 10.936 0 00-.56-.357 2.35 2.35 0 01-.337-.232 12.91 12.91 0 00-.814-.558c-.877-.568-1.002-.668-.96-.776.029-.076.278-.083 2.946-.082 1.603 0 2.943.02 2.978.041zm-29.22 1.023a1.527 1.527 0 00-.672.79c-.09.245-.098.402-.098 1.702 0 .787.02 1.497.045 1.577.026.08.059.203.074.273.033.154.325.466.538.576.34.176.576.217.847.145.423-.111.69-.32.876-.685.119-.234.12-.246.12-1.827 0-1.455-.009-1.613-.098-1.859-.116-.317-.202-.422-.5-.613-.198-.127-.266-.143-.625-.141-.222 0-.45.029-.507.062zm4.423.037c-.1.053-.263.19-.362.305-.302.354-.331.544-.331 2.204 0 1.336.009 1.494.099 1.743.12.335.387.592.78.752.258.105.298.108.562.047.156-.036.34-.094.41-.128.214-.107.447-.392.55-.674.09-.248.1-.4.1-1.806 0-1.44-.007-1.55-.104-1.777-.117-.274-.236-.417-.517-.624-.178-.13-.231-.143-.6-.14-.3 0-.452.026-.587.098zm4.4.043c-.125.08-.276.223-.336.32-.233.377-.255.568-.256 2.138 0 1.346.008 1.501.098 1.747.153.418.425.654.903.78a.783.783 0 00.497 0c.478-.126.75-.362.903-.78.09-.247.099-.402.099-1.797s-.009-1.551-.099-1.797c-.19-.52-.56-.755-1.19-.755-.346 0-.419.017-.619.144zm12.005.355c.106.054.224.128.26.164.07.066.814.578 1.111.763.089.055.306.205.484.332.178.128.428.297.555.376.127.078.465.302.75.498.285.195.575.372.644.393.069.02.204.11.3.199.203.187.627.483 1.69 1.18.562.368.762.525.75.588-.015.08-.26.087-3.65.1-3.325.01-3.64.005-3.716-.07a.178.178 0 01-.049-.189c.02-.058.053-.33.076-.605.023-.275.054-.557.07-.626a7.77 7.77 0 00.054-.7c.015-.317.048-.79.074-1.05.026-.262.061-.667.079-.901.018-.234.055-.454.083-.488.072-.09.213-.078.435.036zm25.555 3.278c.073.088.004.22-.647 1.226-.24.372-.532.826-.649 1.01-.366.58-.426.57-.627-.1a1196.181 1196.181 0 01-.478-1.589c-.134-.426.016-.52.837-.525.297-.002.585-.023.64-.047.178-.076.855-.059.924.025zm-4.434 2.364c.038.076.098.25.134.388.035.138.127.453.203.7.39 1.274.394 1.305.18 1.35-.305.061-.512.087-1.083.132-1.493.119-1.47.135-.952-.664.974-1.502 1.123-1.73 1.236-1.88.148-.199.194-.203.282-.025zm-11.928 1.506c.138.088.184.38.311 1.984.073.916.142 1.594.176 1.73.023.089.007.149-.053.198-.076.063-.127.049-.442-.121-.355-.192-1.3-.697-2.694-1.44l-1.487-.792a363.59 363.59 0 00-1.488-.789c-.765-.403-1.162-.647-1.162-.715 0-.021.028-.05.062-.064.106-.043 6.71-.034 6.777.009zm-9.502 1.51c.364.192.96.51 1.325.706.364.196.994.534 1.4.75l1.5.8c.42.225 1.013.54 1.318.7.551.29.716.41.63.464-.093.057-7.255.05-7.346-.009-.06-.038-.05-.25.087-1.786.024-.275.063-.782.086-1.126.042-.644.103-.85.252-.85.047 0 .383.158.748.35zm-7.867 1.328c.066.066.079.233.079 1.045 0 .744-.015.978-.067 1.021-.104.087-15.337.083-15.392-.004-.023-.035-.041-.496-.042-1.024 0-.806.012-.972.078-1.038.07-.07.836-.078 7.672-.078 6.837 0 7.601.008 7.672.078zm29.063.747c.032.082-.468.952-.687 1.198l-.136.153-1.315.025c-1.413.027-1.9.007-1.93-.08-.02-.064.526-.91.66-1.02.055-.046.262-.09.521-.113a258.08 258.08 0 012.77-.229c.048-.005.101.025.117.066zm2.54 3.956c.068.068.078.277.078 1.523 0 1.245-.01 1.454-.078 1.522-.071.071-2.409.079-24.974.079s-24.902-.008-24.973-.079c-.068-.068-.079-.277-.079-1.522 0-1.246.01-1.455.079-1.523.07-.071 2.408-.078 24.973-.078 22.566 0 24.903.007 24.974.078zm13.901 4.003c.069.068.079.317.079 1.972 0 1.656-.01 1.904-.079 1.973-.067.068-.267.079-1.421.079-1.155 0-1.354-.011-1.422-.079-.069-.069-.079-.317-.079-1.973 0-1.655.01-1.904.08-1.972.067-.068.266-.079 1.42-.079 1.155 0 1.355.011 1.422.079zm-49.504 1.7c.07.07.078.502.078 4 0 2.155-.013 3.955-.03 3.998-.04.107-.195.1-.576-.027-1.129-.375-2.874-.42-4.095-.105-.668.173-1.108.39-2.72 1.352-.223.133-.313.163-.374.125-.073-.046-.082-.494-.093-4.657-.011-4.138-.005-4.614.066-4.685.07-.07.485-.079 3.872-.079 3.382 0 3.802.009 3.872.079zm18.701 0c.07.071.08.582.08 4.875 0 4.294-.01 4.804-.08 4.875-.123.124-1.11.109-1.61-.025-.645-.172-.81-.24-1.282-.532-1.196-.74-1.409-.865-1.468-.865a1.4 1.4 0 01-.32-.13c-.713-.361-1.632-.535-2.842-.537a6.94 6.94 0 00-2.325.356c-.24.075-1.213.576-1.675.863-1.043.649-.997.627-1.812.845-.303.081-.537.103-1.087.103-.385 0-.807-.024-.938-.054-.541-.124-.765-.205-.813-.295-.033-.062-.05-1.712-.05-4.747 0-4.163.008-4.66.078-4.731.071-.071.872-.079 8.072-.079 7.2 0 8.002.008 8.072.079zm10.301 0c.07.071.079.53.079 4.297 0 3.771-.008 4.225-.078 4.284-.067.055-.162.025-.613-.19-.784-.371-.897-.417-1.31-.524-.599-.155-1.071-.207-1.9-.208-.916-.001-1.578.097-2.225.33-.66.239-.878.331-1.203.51-.363.2-.47.22-.474.091-.002-.048-.011-1.877-.021-4.065-.01-2.188-.026-4.086-.035-4.22-.013-.193.004-.256.08-.312.082-.06.698-.07 3.86-.07 3.353 0 3.77.008 3.84.078z" fill="#fff"/></g><defs><clipPath id="clip0"><path fill="#fff" d="M0 0h70v70H0z"/></clipPath></defs></svg>