<svg width="77" height="77" viewBox="0 0 77 77" fill="none" xmlns="http://www.w3.org/2000/svg"><path d="M69.383 54.328l-19.57-18.756a.742.742 0 00-.624-.2l-4.982.737.002-.1a5.386 5.386 0 00-3.402-5.013V.755a.747.747 0 00-1.475-.176l-6.315 26.475a.76.76 0 00.14.644l2.925 3.732a5.391 5.391 0 00-2.413 5.73L7.757 52.253a.758.758 0 00-.313.95.748.748 0 00.899.426l25.886-7.72a.75.75 0 00.483-.445l1.82-4.625.135.064-7.936 35.214a.759.759 0 00.165.615c.142.17.352.268.572.268h18.405c.22 0 .43-.098.572-.268a.76.76 0 00.164-.615l-7.905-35.054a5.319 5.319 0 001.495-.85l26.295 15.315a.74.74 0 00.973-.202.76.76 0 00-.084-.998zM34.556 27.05l4.756-19.936v23.535a5.273 5.273 0 00-1.808.162l-2.948-3.76zm4.321 5.088c2.116 0 3.837 1.737 3.837 3.871s-1.721 3.87-3.837 3.87-3.837-1.736-3.837-3.87c0-2.134 1.721-3.87 3.837-3.87zm-5.421 12.428L13.964 50.38 34.2 38.592a5.4 5.4 0 001.067 1.372l-1.812 4.602zM46.158 70.66h-6.432a.751.751 0 00-.748.754c0 .417.335.755.748.755h6.69l.568 3.323H30.356l3.302-12.986h1.67a.751.751 0 00.747-.755.751.751 0 00-.748-.754h-1.411l4.195-19.665a5.288 5.288 0 001.129.043l6.918 29.285zM43.25 39.082a5.39 5.39 0 00.697-1.41l5.1-.754 14.736 14.123L43.25 39.082z" fill="#fff"/></svg>